<svg width="107" height="78" viewBox="0 0 107 78" fill="none" xmlns="http://www.w3.org/2000/svg">
<path d="M28.5081 77.244C28.5081 77.244 31.864 73.0958 34.5985 69.639C23.0391 66.1194 18.6888 58.7659 18.6888 58.7659C18.6888 58.7659 19.621 59.3944 21.2369 60.3372C21.299 60.4 21.4233 60.5257 21.6097 60.5886C21.8583 60.7771 22.1691 60.84 22.4176 61.0285C24.7171 62.2855 26.9544 63.354 29.0674 64.171C32.7962 65.6166 37.2708 67.125 42.4291 68.1306C49.2653 69.3876 57.2201 69.8904 65.9829 68.1935C70.271 67.4393 74.6213 66.1823 79.1581 64.2339C82.3276 63.0397 85.87 61.2799 89.5988 58.8287C89.5988 58.8287 85.0621 66.3708 73.1298 69.7647C75.8643 73.2844 79.1581 77.1811 79.1581 77.1811C99.2316 76.5526 107 63.2283 107 63.2283C107 33.6257 93.887 9.61673 93.887 9.61673C80.7739 -0.250811 68.3445 0.00059099 68.3445 0.00059099L67.1015 1.44615C82.5762 6.2228 89.7231 13.1364 89.7231 13.1364C80.2767 7.91976 71.0168 5.34289 62.3783 4.33728C55.7907 3.58307 49.5138 3.77163 43.9827 4.52583C43.4234 4.52583 42.9884 4.58868 42.4291 4.71438C39.2596 4.96579 31.4911 6.15995 21.7962 10.4966C18.4402 12.0679 16.4515 13.1364 16.4515 13.1364C16.4515 13.1364 23.9713 5.90855 40.3161 1.1319L39.446 0.00059099C39.446 0.00059099 27.0165 -0.250812 13.9035 9.67958C13.9035 9.67958 0.790405 33.6885 0.790405 63.2911C0.790405 63.2283 8.43452 76.6154 28.5081 77.244ZM70.0846 34.317C75.2428 34.317 79.3445 38.9051 79.3445 44.4988C79.3445 50.0925 75.2428 54.6806 70.0846 54.6806C64.9885 54.6806 60.8246 50.0925 60.8246 44.4988C60.7625 38.9051 64.8642 34.317 70.0846 34.317ZM36.898 34.317C42.0562 34.317 46.2822 38.9051 46.1579 44.4988C46.1579 50.0925 42.0562 54.6806 36.898 54.6806C31.8019 54.6806 27.638 50.0925 27.638 44.4988C27.638 38.9051 31.6776 34.317 36.898 34.317Z" fill="#BFA084"/>
</svg>
