<svg width="26" height="22" viewBox="0 0 26 22" fill="none" xmlns="http://www.w3.org/2000/svg">
<path fill-rule="evenodd" clip-rule="evenodd" d="M2.09162 9.89231C8.81544 6.96286 13.299 5.03158 15.5424 4.09848C21.9477 1.4343 23.2787 0.971499 24.1462 0.956218C24.337 0.952857 24.7636 1.00014 25.0399 1.22438C25.2733 1.41371 25.3375 1.66948 25.3682 1.84899C25.3989 2.02851 25.4372 2.43744 25.4068 2.75697C25.0597 6.40404 23.5577 15.2545 22.7937 19.3393C22.4703 21.0677 21.8337 21.6472 21.2174 21.7039C19.878 21.8272 18.8609 20.8188 17.5636 19.9684C15.5336 18.6377 14.3868 17.8093 12.4164 16.5108C10.1392 15.0102 11.6154 14.1854 12.9131 12.8375C13.2528 12.4847 19.1542 7.11692 19.2685 6.62997C19.2827 6.56907 19.296 6.34206 19.1611 6.22219C19.0263 6.10232 18.8272 6.14331 18.6836 6.17591C18.48 6.22212 15.2371 8.36558 8.95479 12.6063C8.0343 13.2384 7.20054 13.5463 6.45352 13.5302C5.63 13.5124 4.04586 13.0646 2.86822 12.6818C1.42379 12.2122 0.275793 11.964 0.375758 11.1666C0.427826 10.7513 0.999781 10.3265 2.09162 9.89231Z" fill="#997B5F"/>
</svg>
