<svg width="26" height="21" viewBox="0 0 26 21" fill="none" xmlns="http://www.w3.org/2000/svg">
<path d="M25.4485 3.05371C24.5541 3.43897 23.532 3.69581 22.5099 3.82423C23.532 3.18214 24.4263 2.1548 24.8096 0.999029C23.7875 1.64112 22.7654 2.02638 21.4878 2.28321C20.5935 1.25587 19.188 0.61377 17.7826 0.61377C14.9718 0.61377 12.6721 2.9253 12.6721 5.75051C12.6721 6.13577 12.6721 6.52101 12.7999 6.90627C8.58369 6.64943 4.75078 4.59474 2.19551 1.5127C1.81222 2.28321 1.55669 3.18214 1.55669 4.08107C1.55669 5.87893 2.45104 7.41995 3.85644 8.31888C2.96209 8.31888 2.19551 8.06204 1.55669 7.67679C1.55669 10.1167 3.34538 12.2998 5.64512 12.6851C5.26183 12.8135 4.75079 12.8135 4.23973 12.8135C3.85644 12.8135 3.60091 12.8135 3.21762 12.6851C3.85644 14.7398 5.77289 16.2808 8.07264 16.2808C6.28395 17.6934 4.11197 18.4639 1.68446 18.4639C1.30117 18.4639 0.917884 18.4639 0.40683 18.3355C2.70657 19.7481 5.3896 20.6471 8.32816 20.6471C17.7827 20.6471 22.8932 12.8135 22.8932 6.00734V5.36525C23.9153 4.98 24.8096 4.08106 25.4485 3.05371Z" fill="#997B5F"/>
</svg>
