<svg width="93" height="77" viewBox="0 0 93 77" fill="none" xmlns="http://www.w3.org/2000/svg">
<path fill-rule="evenodd" clip-rule="evenodd" d="M6.92859 32.7332C31.5577 22.0027 47.9809 14.9285 56.1983 11.5106C79.6607 1.75178 84.536 0.0565737 87.7136 0.000596838C88.4125 -0.0117146 89.9752 0.161491 90.9874 0.982847C91.8421 1.67638 92.0773 2.61325 92.1898 3.2708C92.3023 3.92835 92.4425 5.42627 92.3311 6.59669C91.0596 19.9558 85.5582 52.3747 82.7593 67.337C81.575 73.6682 79.2431 75.791 76.9856 75.9987C72.0794 76.4502 68.3538 72.7564 63.6019 69.6414C56.1662 64.7672 51.9654 61.733 44.7477 56.9766C36.4064 51.4798 41.8137 48.4587 46.5674 43.5213C47.8115 42.2292 69.4283 22.567 69.8467 20.7833C69.899 20.5603 69.9476 19.7287 69.4536 19.2897C68.9596 18.8506 68.2305 19.0007 67.7044 19.1201C66.9586 19.2894 55.0798 27.1408 32.0681 42.6744C28.6964 44.9897 25.6424 46.1178 22.9061 46.0586C19.8895 45.9935 14.0869 44.353 9.77323 42.9508C4.48236 41.231 0.277275 40.3217 0.643443 37.4008C0.834166 35.8795 2.92922 34.3236 6.92859 32.7332Z" fill="#BFA084"/>
</svg>
