<svg width="92" height="74" viewBox="0 0 92 74" fill="none" xmlns="http://www.w3.org/2000/svg">
<path d="M91.9653 9.3466C88.6893 10.7578 84.9454 11.6986 81.2015 12.169C84.9454 9.81702 88.2213 6.0539 89.6253 1.82037C85.8814 4.17233 82.1375 5.58351 77.4575 6.52429C74.1816 2.76115 69.0336 0.40918 63.8857 0.40918C53.5899 0.40918 45.166 8.87624 45.166 19.2249C45.166 20.636 45.166 22.0472 45.634 23.4584C30.1903 22.5176 16.1505 14.9913 6.79064 3.70191C5.38666 6.52426 4.45067 9.81701 4.45067 13.1098C4.45067 19.6952 7.72664 25.34 12.8746 28.6327C9.59861 28.6327 6.79064 27.6919 4.45067 26.2807C4.45067 35.2182 11.0026 43.2148 19.4264 44.626C18.0224 45.0964 16.1505 45.0964 14.2785 45.0964C12.8746 45.0964 11.9386 45.0964 10.5346 44.626C12.8746 52.1523 19.8945 57.797 28.3183 57.797C21.7664 62.9713 13.8106 65.7937 4.91869 65.7937C3.51472 65.7937 2.11074 65.7937 0.23877 65.3233C8.66263 70.4976 18.4905 73.7904 29.2543 73.7904C63.8857 73.7904 82.6054 45.0964 82.6054 20.1656V17.8137C86.3493 16.4025 89.6253 13.1097 91.9653 9.3466Z" fill="#BFA084"/>
</svg>
