<svg width="349" height="92" viewBox="0 0 349 92" fill="none" xmlns="http://www.w3.org/2000/svg"><path d="M44.803 6.37c-3.758 0-16.4 3.792-19.475 4.79-3.417.997-8.2 5.387-10.25 7.183C4.486 27.123 4.486 30.117 1.41 40.893-3.03 55.86 9.27 71.225 27.378 82.4c4.442 2.794 9.567 5.388 15.717 6.785 5.125 1.197 10.933 1.397 16.4 1.597 60.817 1.796 121.976-.4 182.794-2.395 12.983-.4 25.625-.798 38.608-1.397 6.834-.399 14.009-.599 19.817-2.594 3.417-1.197 13.667-3.792 16.4-5.189 16.742-9.578 24.601-20.753 23.234-34.323-.683-6.386-5.125-12.372-9.567-18.16-6.492-7.982-14.008-15.764-29.384-18.757-6.491-1.397-16.4-2.595-23.233-2.595-10.592-.2-21.184-.2-31.775-.399-43.734-.798-86.443-.598-129.493 0-23.917.2-48.176.798-72.093 1.397z" fill="#5F8F99"/><path d="M52.986 2.383c-3.765 0-16.428 3.75-19.509 4.738-3.422.986-8.214 5.329-10.267 7.105C12.6 22.911 12.6 25.872 9.52 36.531c-4.792 15 7.872 30.2 26.01 41.055 4.45 2.764 9.584 5.33 15.744 6.711 5.134 1.184 10.952 1.382 16.428 1.58 60.579 1.578 121.499-.396 182.42-2.567 13.005-.395 25.669-.79 38.674-1.382 6.845-.394 14.032-.592 19.851-2.565 3.422-1.185 13.69-3.75 16.428-5.132 16.77-9.475 24.642-20.528 23.273-33.95-.685-6.316-5.134-12.238-9.583-17.962-6.503-7.895-14.033-15.593-29.434-18.554-6.503-1.382-16.428-2.566-23.273-2.566-10.61-.197-21.219-.197-31.829-.395C211.105.212 167.982.41 125.2 1.002c-23.957.394-48.257.79-72.214 1.381z" fill="#C1E6EA"/></svg>