<svg width="23" height="34" viewBox="0 0 23 34" fill="none" xmlns="http://www.w3.org/2000/svg"><g clip-path="url(#clip0_0_438)"><path d="M5.688 19.385H2.409c-.454 0-.883-.023-1.213-.058-.33-.035-1.143-.126-1.18-.854 0-.11-.016-.562-.016-.777v-.556c0-.086.01-.191.016-.259 0-.03 0-.064-.01-.095C0 16.669 0 16.06 0 16.053c0-.197 0-.475.007-.595.04-1.066 1.966-1.09 1.981-1.09l6.26-.013 3.247-.008h1.357c1.368 0 2.998 0 4.978.008h1.885l2.478.025c.354 0 .792.196.804 1.08v.617l-.022.536v.034l-.032.222c0 .033.016.13.016.13l.02.3c.014.354.029.778.029.88v.23c0 .703-.737.822-1.057.874-.35.055-.703.083-1.057.084h-.934c-2.546.01-5.559.013-5.589.013H10.03l-4.342.005zm0 7.307H2.409a12 12 0 01-1.213-.058c-.33-.035-1.143-.125-1.18-.86 0-.11-.016-.562-.016-.777v-.554c0-.086.01-.192.016-.266 0-.03 0-.065-.01-.096C0 23.975 0 23.365 0 23.36c0-.197 0-.473.007-.595.04-1.064 1.966-1.09 1.981-1.09l6.26-.012 3.247-.008h1.357c1.368 0 2.998 0 4.978.008h1.885l2.468.025c.364 0 .801.195.814 1.08v.617l-.022.535v.034l-.032.223c0 .032.016.13.016.13l.02.301c.014.354.029.777.029.88v.23c0 .702-.737.823-1.057.873-.35.055-.703.084-1.057.084h-.934c-2.546.01-5.559.013-5.589.013H10.03l-4.342.005zm0 7.307H2.414a12.36 12.36 0 01-1.218-.065c-.342-.036-1.143-.12-1.18-.848 0-.112-.016-.563-.016-.777v-.555c0-.085.01-.192.016-.259 0-.03 0-.066-.01-.097C0 31.281 0 30.671 0 30.665c0-.197 0-.473.007-.595.04-1.064 1.966-1.089 1.981-1.089l6.26-.013 3.247-.008h1.357c1.368 0 2.998 0 4.978.008h1.885l2.478.026c.354 0 .792.194.804 1.079v.618l-.022.535v.035l-.032.221c0 .033.016.123.016.123l.02.302c.014.355.029.784.029.88v.24c0 .701-.737.822-1.057.873-.35.054-.703.083-1.057.084h-.934c-2.546.01-5.559.013-5.589.013H10.03L5.688 34z" fill="#37271B"/><path d="M22.205 15.477v.594l-.015.342v.138l-.037.26a.375.375 0 000 .11c0 .03.013.096.02.15v.055l.014.204c.015.388.028.777.028.85v.226c0 .052-.594.18-1.321.184h-.933c-2.575.01-5.586.013-5.586.013H2.41c-.877 0-1.599-.082-1.603-.171a27.6 27.6 0 01-.014-.736v-.535c0-.083.013-.224.016-.247a.42.42 0 000-.082c0-.022-.008-.077-.012-.122-.004-.044-.004-.446-.004-.657v-.566c0-.1.548-.337 1.198-.342h2.29l3.963-.01c.17 0 1.632 0 3.248-.007h1.36c1.367 0 2.996 0 4.977.008h1.885l2.459.026c.02.104.03.21.032.315zm0 7.307v.593l-.015.342v.14l-.037.259a.376.376 0 000 .11c0 .03.013.097.02.149v.056l.014.203c.015.388.028.777.028.85v.226c0 .053-.594.181-1.321.184h-.933c-2.575.01-5.586.013-5.586.013H2.41c-.877 0-1.599-.082-1.603-.17a27.783 27.783 0 01-.014-.735v-.535c0-.083.013-.224.016-.246a.433.433 0 000-.083c0-.022-.008-.077-.012-.122s-.004-.445-.004-.66v-.565c0-.1.548-.337 1.198-.34h2.29l3.963-.009 3.25-.013h1.358c1.367 0 2.996 0 4.977.008h1.885l2.459.025c.02.105.03.212.032.32zm0 7.306v.594l-.015.342v.139l-.037.259a.376.376 0 000 .11c0 .03.013.097.02.149v.057l.014.203c.015.395.028.777.028.85v.227c0 .051-.594.18-1.321.183h-.933c-2.575.01-5.586.013-5.586.013H2.412c-.877 0-1.598-.081-1.602-.17a26.115 26.115 0 01-.017-.736v-.534c0-.081.013-.225.016-.247a.42.42 0 000-.082c0-.023-.008-.078-.012-.13-.004-.051-.004-.44-.004-.652v-.566c0-.101.548-.337 1.198-.34h2.29l3.963-.01 3.25-.011h1.358c1.367 0 2.996 0 4.977.007h1.885l2.459.025c.02.105.03.213.032.32z" fill="#997B5F"/><path d="M9.117 9.472a1.036 1.036 0 01-.422-.094l-.016-.007a1.739 1.739 0 01-.442-.285 3.03 3.03 0 01-.838-1.158L7.386 7.9a3.283 3.283 0 01-.132-.397 3.412 3.412 0 01-.094-.439V7.02a3.603 3.603 0 01.416-2.196l.049-.083c.034-.06.076-.13.132-.21l.184-.247.013-.015c.132-.157.264-.29.396-.425a3.12 3.12 0 00.397-.455.14.14 0 00.018-.044.56.56 0 000-.13 2.07 2.07 0 00-.106-.472 3.443 3.443 0 00-.186-.459 6.05 6.05 0 00-.371-.626l-.062-.095c-.132-.204-.55-.834-.03-1.329A.87.87 0 018.611 0c.28.013.553.103.785.26.39.244.733.555 1.012.919.184.238.344.494.475.764.16.318.272.656.337 1.005.041.234.05.472.027.708a2.3 2.3 0 01-.236.793 4.025 4.025 0 01-.778 1.004l-.014.014c-.094.096-.19.193-.265.276l-.108.138a.188.188 0 01-.018.032c-.015.023-.028.045-.044.067a1.906 1.906 0 00-.193.458c-.039.152-.06.307-.062.463v.255c.004.043.01.087.019.13l.009.054c.046.229.12.452.222.663l.009.02.008.021.034.082c.036.077.065.158.087.24a.845.845 0 01-.273.93.853.853 0 01-.528.176zm4.329 2.936a.936.936 0 01-.588-.212 1.187 1.187 0 01-.353-.48 1.538 1.538 0 01-.112-.625v-.014c.01-.226.058-.45.143-.66.087-.216.203-.421.345-.608a3.121 3.121 0 01.323-.377l.04-.04.111-.107c.092-.086.188-.172.283-.259.154-.129.298-.268.432-.417a.787.787 0 00.058-.084l.018-.036a.24.24 0 00.012-.092.33.33 0 00-.083-.193 1.713 1.713 0 00-.264-.245c-.177-.13-.59-.457-.475-.988.076-.346.39-.711 1.057-.711h.057c.422.02.83.155 1.179.388.235.155.439.349.604.574a2.25 2.25 0 01.177 2.385l-.008.014a2.861 2.861 0 01-.286.428c-.183.221-.39.422-.618.6-.15.118-.29.22-.412.31l-.176.13-.069.051a1.43 1.43 0 00-.132.113 1.89 1.89 0 00-.295.325 1.166 1.166 0 00-.052.106l-.016.038a.982.982 0 01-.249.403 1.01 1.01 0 01-.412.244.955.955 0 01-.224.029l-.015.01z" fill="#37271B"/><path d="M8.559.793c.044-.043.197 0 .423.13.305.196.574.443.792.73.156.194.29.404.4.625.125.254.213.523.264.8.028.164.034.33.018.494a1.532 1.532 0 01-.15.53 3.407 3.407 0 01-.661.826 7.976 7.976 0 00-.308.325l-.12.154c-.04.051-.07.108-.106.16a2.618 2.618 0 00-.287.667 2.924 2.924 0 00-.09.656 3.078 3.078 0 00.052.584c.058.292.15.575.278.844.04.103.082.18.096.242.015.062.015.105-.01.13-.026.024-.072.014-.14-.016a1.042 1.042 0 01-.265-.168 2.46 2.46 0 01-.741-1.2 2.828 2.828 0 01-.08-.37 2.884 2.884 0 01.015-.837c.055-.314.162-.617.317-.897.044-.074.085-.15.132-.222l.162-.215c.113-.13.232-.259.347-.377a3.23 3.23 0 00.529-.62.876.876 0 00.101-.283 1.24 1.24 0 00.014-.314 2.893 2.893 0 00-.14-.648 3.965 3.965 0 00-.221-.58 7.16 7.16 0 00-.477-.798c-.126-.188-.19-.308-.144-.352zm5.548 6.342c-.027.12.314.253.59.592.148.178.236.397.251.627a.971.971 0 01-.132.556 1.83 1.83 0 01-.132.185 9.075 9.075 0 01-.793.751l-.101.098c-.035.037-.07.07-.102.105a2.59 2.59 0 00-.177.215c-.101.134-.184.28-.247.434-.053.13-.083.267-.09.406a.782.782 0 00.053.314.438.438 0 00.119.174.134.134 0 00.11.036c.068-.017.097-.106.149-.225.03-.07.063-.137.1-.202.053-.085.111-.165.176-.241.081-.096.17-.186.264-.27.052-.046.108-.091.168-.14l.092-.07.105-.076c.141-.103.3-.215.465-.347.183-.142.35-.302.498-.48.078-.096.147-.2.206-.31.057-.11.102-.226.132-.346a1.494 1.494 0 00-.246-1.237 1.58 1.58 0 00-.396-.382 1.537 1.537 0 00-.761-.259c-.185-.009-.29.038-.301.092z" fill="#BFA084"/></g><defs><clipPath id="clip0_0_438"><path fill="#fff" d="M0 0h23v34H0z"/></clipPath></defs></svg>