<svg width="222" height="59" viewBox="0 0 222 59" fill="none" xmlns="http://www.w3.org/2000/svg"><g clip-path="url(#clip0_0_119)"><path d="M10.9 58.29c-1.244 0-2.1-.093-2.69-.29-1.801-.528-3.258-1.748-4.331-3.632-1.014-1.775-1.81-4.303-2.43-7.725a100.03 100.03 0 01-1.21-10.625A125.587 125.587 0 010 28.662c0-1.301.028-2.556.083-3.73.055-1.175.114-2.047.172-2.701a6.986 6.986 0 01.346-1.717 3.55 3.55 0 01.725-1.201c.631-.687 1.564-1.111 2.77-1.29.427-.06.857-.09 1.288-.09.756.01 1.509.104 2.244.28 1.035.236 1.791.753 2.264 1.535.273.47.475 1.113.644 2.04.152.828.302 2.08.46 3.828.153 1.717.345 4.145.555 7.224.214 2.982.494 5.937.834 8.78.122 1.03.243 1.986.366 2.857a161.522 161.522 0 001.628-7.394c.398-2.04.662-3.626.785-4.74.034-.386.096-.768.183-1.146.06-.277.141-.549.245-.813l.041-.095.057-.084c.346-.515.94-.858 1.799-1.062h.052c.473-.088.954-.13 1.436-.128.285 0 .588.01.9.03h.04c.762.077 3.073.309 3.61 1.909l.012.037.01.04c.035.144.088.43.225 1.545.101.82.207 1.787.314 2.874.23 2.242.452 4.101.656 5.517.204 1.417.468 2.91.787 4.486a66.55 66.55 0 00.89 3.794l.097.356c.69-2.634 1.238-6.098 1.643-10.333.173-2.028.322-4.807.428-8.267.054-2.16.08-4.14.08-5.881 0-1.03-.009-2.01-.026-2.908l-.1-3.866 1.405-.538a5.789 5.789 0 011.945-.303c.064 0 .183 0 .724.029a3.599 3.599 0 011.629.484l.031.017.031.02a2.1 2.1 0 01.497.452c.184.254.302.549.346.858.054.337.09.677.108 1.018.028.395.059.941.097 1.67.036.957.055 2.172.055 3.627v2.769c0 1.363-.033 3.126-.095 5.244-.062 2.119-.141 3.753-.233 4.84-.72 7.725-1.785 12.961-3.252 16.04-.994 2.22-2.824 3.395-5.294 3.395-.25 0-.528-.008-.823-.029-1.766-.086-3.231-.903-4.34-2.426-.844-1.162-1.572-2.843-2.21-5.116-.73 2.56-1.428 4.364-2.119 5.494l-.015.024-.018.024a5.327 5.327 0 01-1.898 1.638 7.468 7.468 0 01-.94.427c-.362.121-.74.195-1.121.218-.358.03-.851.052-1.51.07H10.9v-.005zm131.488-.349a7.161 7.161 0 01-1.959-.256c-1.339-.367-2.106-.832-2.452-1.497-.27-.427-.496-1.298-.596-5.3a328.86 328.86 0 01-.055-6.825c0-2.177.01-4.702.027-7.506.037-3.885.078-7.265.123-10.048.053-3.39.105-4.412.143-4.807h-2.337c-1.937 0-3.319-.055-4.225-.171-1.117-.14-1.84-.416-2.275-.87a1.65 1.65 0 01-.536-1.173c0-.71.492-1.262 1.464-1.645a3.6 3.6 0 011.07-.25c.418-.05 1.036-.088 1.915-.116.837-.027 2.04-.05 3.574-.067 1.535-.017 3.52-.044 5.969-.08 2.978-.02 5.251-.028 6.962-.028.883 0 1.931.005 3.141.014 1.649.012 2.191.094 2.489.185 1.103.273 1.775.687 2.11 1.293.136.226.21.483.214.747 0 .444-.197 1.083-1.131 1.614-.311.174-.652.29-1.005.343a11.06 11.06 0 01-1.553.124c-.632.017-1.554.036-2.745.053l-3.01.04c.064.957.119 2.978.173 6.145.019 2.404.027 4.884.027 7.406v5.928c0 2.65-.036 5.044-.108 7.118a196.917 196.917 0 01-.163 3.948 36.92 36.92 0 01-.181 2.327c-.041.481-.15.954-.324 1.406a2.03 2.03 0 01-.738.913c-.68.467-1.589.776-2.782.942-.406.06-.815.09-1.226.093zm-75.658.022a7.567 7.567 0 01-1.752-.171h-.035c-1.257-.344-1.968-.787-2.29-1.422-.216-.369-.401-1.071-.503-4.3-.074-2.289-.11-6.009-.11-11.072 0-14.746.33-16.767.613-17.35a2.24 2.24 0 01.543-.9c.288-.268.618-.488.975-.653l.031-.015a6.51 6.51 0 012.698-.505h.147a7.6 7.6 0 012.667.448c.843.314 1.59.836 2.173 1.518.616.686 1.353 1.847 2.244 3.552.863 1.624 2.058 4.068 3.566 7.263.346.754.67 1.447.965 2.09l.46-1.291a121.393 121.393 0 013.219-8.174c1.567-3.605 2.162-4.512 2.506-4.906l.059-.067.069-.057c.626-.515 1.453-.764 2.458-.764l.7.012c.651.014 1.324.285 2.004.809l.941.765-.112 16.914a564.92 564.92 0 00-.026 5.105 1611.12 1611.12 0 01-.048 5.949 84.474 84.474 0 01-.099 3.633c-.055.963-.146 1.622-.288 2.077-.216.687-.576 1.124-1.074 1.305l-.034.012-.036.01c-.22.06-.446.09-.674.09a4.192 4.192 0 01-.492-.034h-.06a2.461 2.461 0 00-.447-.032 9.286 9.286 0 01-1.43-.076 2.009 2.009 0 01-1.073-.515l-.702-.604.025-11.863c.016-1.634.025-3.122.025-4.432v-1.408l-.777 2.2a102.633 102.633 0 01-.972 2.657 18.34 18.34 0 01-.625 1.47 2.99 2.99 0 01-.6.878 1.84 1.84 0 01-.648.385l-.095.048-.051.019a5.306 5.306 0 01-1.847.307l-.6-.012a4.22 4.22 0 01-1.486-.354 1.19 1.19 0 01-.213-.094 2.534 2.534 0 01-.625-.402 3.433 3.433 0 01-.69-.937c-.206-.362-.474-.912-.823-1.68-.33-.732-.787-1.748-1.368-3.048l-.145-.292-.01-.02c-.346-.766-.7-1.546-1.064-2.327v1.738c-.017 3.46-.074 6.748-.172 9.775-.1 3.09-.208 5.04-.327 5.941a2.922 2.922 0 01-.707 1.659c-.424.42-.952.72-1.532.867a8.37 8.37 0 01-2.126.285h-.292l-.008-.004zm34.819.024a56.1 56.1 0 01-1.899-.036 13.839 13.839 0 01-1.863-.171h-.03c-1.306-.272-2.201-.859-2.664-1.736-.24-.39-.62-1.217-.84-8.352-.306-8.554-.536-13.882-.679-15.828a66.732 66.732 0 01-.126-3.262 54.963 54.963 0 01-.024-1.566c0-.496 0-1.068.026-1.7.024-.966.102-1.318.172-1.534l.02-.057.025-.055c.394-.836 1.254-1.373 2.63-1.662a8.63 8.63 0 011.694-.171 9.198 9.198 0 011.842.19h.035l.034.01c.322.084.649.147.979.191.375.06.753.099 1.132.119h.04c.956.088 1.902.26 2.827.515.936.241 1.845.574 2.715.994l.024.012a9.498 9.498 0 014.526 5.12l.009.021v.024c.299.89.444 1.987.444 3.355a12.294 12.294 0 01-.434 3.466l-.008.03c-.763 2.308-2.331 4.662-4.661 6.995l-.564.584c.515.353 1.01.735 1.482 1.143.625.51 1.192 1.086 1.692 1.717l.017.024.018.026c.838 1.28 1.265 2.602 1.265 3.93a6.678 6.678 0 01-.518 2.549l-.012.029-.014.029a8.548 8.548 0 01-2.65 3.078 10.707 10.707 0 01-3.857 1.835l-.031.009h-.033c-.635.092-1.276.138-1.918.137h-.825l.002-.002zm2.107-8.496c.021.658.043 1.267.068 1.822.052-.262.078-.527.079-.793a5.524 5.524 0 00-.152-1.152l.005.123zm-1.035-22.59c0 .218.019.539.041 1.01l.268 6.047c.079 1.761.145 3.168.202 4.268a13.997 13.997 0 001.696-3.13c.116-.3.207-.573.271-.805.059-.24.092-.485.099-.731.015-.36.022-.867.022-1.506v-.316c0-1.373-.134-2.104-.247-2.475-.139-.457-.469-.927-.98-1.396l-.028-.027a5.72 5.72 0 00-.768-.656 2.206 2.206 0 00-.582-.292l.006.009z" fill="#37271B"/><path d="M117.241 58.666a5.799 5.799 0 01-1.814-.248l-.026-.008-.026-.01c-1.196-.468-2.015-1.316-2.365-2.45l-.009-.026v-.026c-.198-.791-.319-2.117-.371-4.053-.017-.795-.024-1.633-.024-2.498 0-1.145.028-2.575.085-4.252a59.8 59.8 0 01.385-5.054 52.07 52.07 0 012.083-9.606c.98-2.992 2.03-5.085 3.209-6.401l.017-.018.017-.018a8.43 8.43 0 014.241-2.318 8.847 8.847 0 011.809-.189c1.013 0 2.015.195 2.952.577 1.338.474 2.405 1.6 3.174 3.348.705 1.6 1.273 4.183 1.737 7.897.447 3.579.911 8.755 1.381 15.406.095 1.322.172 2.458.231 3.375.059.917.093 1.607.111 2.15.017.276.025.528.025.751 0 .223-.008.447-.027.687a2.657 2.657 0 01-.173.801 1.509 1.509 0 01-.583.73c-.611.42-1.381.632-2.303.632h-.633c-.623 0-1.255-.244-1.878-.725l-.03-.024a2.053 2.053 0 01-.462-.539 2.263 2.263 0 01-.261-.803 13.798 13.798 0 01-.107-.975c-.034-.428-.066-.94-.098-1.635l-.207-2.882c-.071-.984-.14-1.86-.206-2.602 0-.064-.012-.122-.017-.172l-1.122.075c-.585.04-1.167.084-1.726.133a50.44 50.44 0 00-1.438.14l-.278.024-.102 2.081c-.083 1.888-.172 3.36-.285 4.383-.119 1.14-.307 1.96-.573 2.508a2.766 2.766 0 01-1.396 1.396c-.554.243-1.309.384-2.301.422-.212.007-.421.016-.616.016zm7.577-27.419a93.98 93.98 0 00-.274 1.063 31.987 31.987 0 00-.485 2.144 112.39 112.39 0 00-.675 4.453c-.256 1.879-.426 3.346-.506 4.344l-.022.244c.217 0 .469-.021.754-.043.385-.033.713-.064 1.005-.093.98-.146 1.598-.247 1.986-.32-.022-.28-.06-.677-.12-1.237-.104-.95-.275-2.232-.506-3.803a190 190 0 00-.739-4.565c-.15-.85-.29-1.58-.418-2.187zm33.999 26.595c-1.002 0-1.37-.05-1.579-.095l-.053-.012-.054-.017c-1.131-.368-1.845-.804-2.244-1.374-.212-.29-.336-.698-.428-1.4-.069-.515-.128-1.298-.173-2.375-.421-7.711-.65-14.886-.69-21.32l-.052-7.782.801-.608c.568-.479 1.429-.765 2.71-.903.884-.085 2.128-.127 3.815-.127h1.51c1.403.017 2.417.036 3.119.062.536.008 1.071.05 1.602.122.354.054.697.165 1.015.33.841.446 1.27 1.012 1.27 1.679 0 .377-.148.928-.852 1.423a2.75 2.75 0 01-1.236.422c-.65.067-1.303.095-1.956.082-.617.015-1.176.027-1.678.037h-.54v5.445c0 1.753.012 3.562.036 5.379.025 1.859.054 3.203.085 4.108l.066 2.084h1.068c.863 0 1.503.022 1.935.067.461.037.912.158 1.329.357.312.154 1.257.625 1.257 1.576 0 .7-.489 1.267-1.45 1.684-.366.172-1.022.343-3.071.343h-.917l.054 1.351c.033.687.069 1.412.11 2.169.042.757.076 1.373.109 1.852l.036.6 1.521-.06a40.537 40.537 0 011.819-.047c.874 0 1.431.05 1.806.163 1.683.482 1.935 1.463 1.935 2.005 0 .121-.012.242-.036.36-.199 1.527-2.372 1.853-4.697 1.977-.646.032-1.333.077-2.046.132-.712.055-1.32.108-1.777.156-.975.1-1.955.15-2.935.15l-.544.005z" fill="#37271B"/><path d="M174.618 58.666a5.798 5.798 0 01-1.814-.246l-.021-.002-.025-.01c-1.197-.467-2.015-1.315-2.365-2.45v-.051c-.199-.792-.32-2.117-.371-4.053-.018-.792-.026-1.63-.026-2.498 0-1.145.029-2.575.086-4.253.057-1.677.186-3.399.385-5.054a52.061 52.061 0 012.07-9.613c.98-2.993 2.029-5.085 3.208-6.402l.018-.02.017-.016a8.429 8.429 0 014.241-2.318 8.845 8.845 0 011.809-.194 7.82 7.82 0 012.952.577c1.337.474 2.404 1.6 3.174 3.348.704 1.6 1.272 4.183 1.736 7.897.447 3.577.912 8.755 1.381 15.406.095 1.335.173 2.472.232 3.375.058.903.093 1.612.11 2.15.017.28.026.526.026.751 0 .225-.01.445-.028.687a2.657 2.657 0 01-.172.801 1.51 1.51 0 01-.584.73c-.611.42-1.381.632-2.302.632h-.634c-.623 0-1.255-.244-1.878-.725l-.029-.024a2.057 2.057 0 01-.463-.539 2.261 2.261 0 01-.26-.803 12.199 12.199 0 01-.107-.975c-.035-.428-.066-.94-.099-1.635l-.207-2.882c-.071-.985-.14-1.86-.205-2.602 0-.064-.012-.122-.018-.172l-1.122.075c-.585.04-1.166.084-1.726.133-.559.048-1.035.094-1.438.14l-.277.024-.102 2.081c-.083 1.888-.173 3.361-.285 4.383-.119 1.14-.307 1.959-.571 2.508a2.778 2.778 0 01-1.399 1.396c-.554.244-1.308.384-2.3.422-.208.012-.422.02-.617.02zm7.578-27.418c-.092.343-.183.7-.276 1.062a32.71 32.71 0 00-.484 2.144c-.193 1.072-.419 2.575-.675 4.454-.255 1.878-.426 3.347-.505 4.341l-.023.246c.218 0 .47-.02.755-.043.383-.033.713-.064 1.004-.093a60.675 60.675 0 001.987-.32c-.022-.28-.06-.677-.121-1.237-.103-.95-.274-2.232-.507-3.803-.233-1.57-.48-3.103-.737-4.564-.151-.85-.29-1.582-.418-2.188zm15.443 26.715a7.576 7.576 0 01-1.752-.171h-.034c-1.257-.344-1.968-.787-2.291-1.422-.215-.369-.4-1.071-.502-4.3-.074-2.287-.11-6.009-.11-11.072 0-14.746.329-16.767.614-17.35.105-.338.291-.646.542-.899.288-.268.617-.489.975-.654l.031-.015a6.51 6.51 0 012.698-.505h.147a7.603 7.603 0 012.667.448c.842.314 1.59.837 2.173 1.518.616.686 1.353 1.847 2.244 3.552.863 1.625 2.058 4.068 3.566 7.263l.967 2.09.457-1.291a122.683 122.683 0 013.219-8.174c1.568-3.596 2.163-4.512 2.507-4.906l.058-.067.071-.057c.627-.515 1.452-.764 2.456-.764l.701.012c.651.014 1.324.285 2.004.809l.941.765-.124 16.924a537.957 537.957 0 00-.025 5.106c-.017 2.43-.033 4.413-.05 5.947a84.114 84.114 0 01-.098 3.634c-.055.961-.147 1.622-.288 2.077-.216.687-.577 1.125-1.074 1.305l-.034.012-.037.01c-.219.06-.445.09-.673.09a4.198 4.198 0 01-.492-.033h-.06a2.458 2.458 0 00-.447-.033 9.288 9.288 0 01-1.431-.075 2.022 2.022 0 01-1.072-.515l-.703-.605.026-11.862c.016-1.669.024-3.116.024-4.433v-1.408l-.775 2.2a104.604 104.604 0 01-.973 2.655c-.259.67-.463 1.152-.625 1.473a2.974 2.974 0 01-.601.877 1.822 1.822 0 01-.647.385l-.097.05-.05.017a5.295 5.295 0 01-1.847.307l-.599-.012a4.213 4.213 0 01-1.484-.353 1.082 1.082 0 01-.217-.097 2.539 2.539 0 01-.624-.4 3.433 3.433 0 01-.69-.937c-.205-.362-.473-.912-.82-1.68-.333-.732-.789-1.748-1.37-3.048l-.145-.292-.011-.02c-.345-.76-.69-1.545-1.063-2.327v1.738a355.418 355.418 0 01-.173 9.775c-.1 3.09-.205 5.04-.326 5.942a2.924 2.924 0 01-.708 1.658 3.34 3.34 0 01-1.531.867 8.365 8.365 0 01-2.126.285h-.289v-.014zM42.875 17.388c-.156 0-.31-.021-.461-.062a2.073 2.073 0 01-.987-.6 2.357 2.357 0 01-.38-.557l-.078-.171-.059-.172v-.027a2.396 2.396 0 01-.074-.368 2.84 2.84 0 01.197-1.423c.161-.395.383-.762.656-1.09.109-.134.223-.266.335-.393.084-.098.172-.193.243-.285.057-.07.11-.142.156-.218a2.152 2.152 0 00.314-1.27 2.422 2.422 0 00-.245-.88 5.355 5.355 0 00-.375-.631c-.223-.33-.635-.943-.22-1.592a1.16 1.16 0 01.995-.524c.257.006.51.065.744.172.494.233.93.572 1.276.992a4.4 4.4 0 01.963 2.06 4.71 4.71 0 01-1.138 3.964c-.172.201-.345.364-.497.515-.064.062-.124.12-.172.172l-.014.014a1.72 1.72 0 00-.27.32 1.187 1.187 0 01.404.822 1.15 1.15 0 01-.744 1.13 1.499 1.499 0 01-.57.102zm6.146-3.586a1.296 1.296 0 01-.59-.15l-.019-.01a2.216 2.216 0 01-.563-.414 4.252 4.252 0 01-1.014-1.605l-.013-.037a4.63 4.63 0 01-.162-.54c-.05-.198-.087-.4-.112-.604v-.056a5.61 5.61 0 01.022-1.44c.082-.54.244-1.066.48-1.56l.06-.116c.04-.081.092-.182.158-.289l.224-.343.014-.02a9.32 9.32 0 01.48-.598c.187-.2.354-.418.5-.65a.344.344 0 00.035-.107.948.948 0 000-.229 3.784 3.784 0 00-.136-.707 5.542 5.542 0 00-.227-.673 8.993 8.993 0 00-.462-.896l-.076-.132c-.197-.344-.613-1.073-.043-1.698a1.112 1.112 0 01.83-.364c.382.02.747.16 1.046.397a5.03 5.03 0 011.248 1.297c.225.332.417.684.573 1.053.193.439.328.9.404 1.373.048.314.059.633.031.95a3.44 3.44 0 01-.276 1.066c-.244.51-.563.982-.946 1.399l-.017.019c-.121.14-.235.274-.325.391l-.133.196c0 .008-.015.03-.027.051-.013.02-.035.064-.054.095a3.06 3.06 0 00-.252.686 3.647 3.647 0 00-.081.687v.072a2.089 2.089 0 000 .227v.075c.004.07.013.14.024.208l.014.09c.058.33.152.652.281.96l.009.027.009.025c.015.045.03.084.044.12.042.104.076.21.102.318a1.15 1.15 0 01-.335 1.17c-.198.18-.456.281-.725.286zm5.327 4.142a1.187 1.187 0 01-.81-.324 1.642 1.642 0 01-.42-.654 2.275 2.275 0 01-.127-.81 2.99 2.99 0 01.173-.893 3.97 3.97 0 01.411-.835 4.38 4.38 0 01.28-.384c.029-.04.07-.088.112-.136l.053-.061.128-.141c.12-.132.24-.253.356-.371.188-.182.363-.376.524-.582.026-.038.052-.079.08-.129.027-.05.026-.062.03-.077a.64.64 0 00-.104-.54 2.066 2.066 0 00-.332-.343c-.222-.199-.69-.61-.56-1.268.085-.452.491-.972 1.36-.972h.079a2.755 2.755 0 011.526.58c.293.224.544.497.742.807a3.3 3.3 0 01.456 1.156c.087.45.081.914-.018 1.363a3.544 3.544 0 01-.228.687l-.01.018a3.838 3.838 0 01-.345.59 5.3 5.3 0 01-.758.846 8.368 8.368 0 01-.518.44l-.214.17-.084.073-.173.16c-.087.086-.168.18-.242.278a1.467 1.467 0 00-.202.372l-.017.05c-.086.237-.266.73-.837.901a1.119 1.119 0 01-.325.048l.014-.019zM48.36 55.843c-1.343 0-1.658-.608-1.726-1.008a1.166 1.166 0 01-.159-.922c.137-.57.622-.92.9-1.078a2.215 2.215 0 011.075-.29c.328-.007.65.093.917.283.143.107.43.297.61.406a1.276 1.276 0 01.666 1.116 1.267 1.267 0 01-.665 1.115c-.439.261-1.13.378-1.618.378zm-5.005.204c-.097 0-.193-.011-.287-.034-.654-.163-1.094-.657-1.094-1.232a5.04 5.04 0 01.096-.744 1.871 1.871 0 011.098-1.296 3.778 3.778 0 011.241-.228 1.179 1.179 0 011.072.656c.173.362.244.968-.42 1.792-.325.405-.981 1.087-1.706 1.087zm12.916-22.578a1.795 1.795 0 01-.431-.048c-.655-.163-1.095-.66-1.095-1.233a5.02 5.02 0 01.097-.743 1.871 1.871 0 011.098-1.296 3.778 3.778 0 011.24-.229 1.296 1.296 0 011.078.557 1.554 1.554 0 01.126 1.454c-.197.515-.646 1.146-1.208 1.373-.29.11-.596.165-.905.165zM40.978 52.966c-.338.004-.67-.09-.956-.27a1.31 1.31 0 01-.365-1.814 1.47 1.47 0 011.222-.625c.12 0 .24.014.358.043a1.619 1.619 0 011.12.982 1.23 1.23 0 01-.091.978 1.375 1.375 0 01-.874.665c-.136.03-.275.043-.414.04zm.923-2.991a1.228 1.228 0 01-.863-.343 1.435 1.435 0 01-.328-1.442c.199-.59.796-.905 1.246-.994.107-.021.216-.032.325-.033.744 0 1.303.515 1.303 1.202 0 .551-.374 1.03-.725 1.288-.276.207-.612.32-.958.322zm14.319 2.323a1.222 1.222 0 01-.864-.343 1.43 1.43 0 01-.328-1.44c.197-.591.794-.905 1.247-.995.106-.021.215-.032.324-.032.742 0 1.303.515 1.303 1.202 0 .55-.374 1.03-.726 1.289a1.604 1.604 0 01-.95.33l-.007-.01zm-10.842-3.001a1.237 1.237 0 01-1.052-.515 1.773 1.773 0 01-.22-1.364 1.848 1.848 0 01.93-1.135 2.517 2.517 0 011.008-.265h.466a1.416 1.416 0 011.317 1.09c.173.696-.29 1.394-1.243 1.868a2.92 2.92 0 01-1.208.328l.002-.007zm-5.16-18.824a1.135 1.135 0 01-1.022-.615 1.825 1.825 0 01-.079-1.175c.137-.414.336-.805.59-1.16l.052-.073.69-.687.279-.069c.16-.04.326-.06.491-.06.69 0 1.278.357 1.499.91.27.673.076 1.422-.465 1.78-.112.076-.345.24-.497.354l-.623.465c-.262.204-.582.32-.915.33zm2.013 2.74a1.227 1.227 0 01-.863-.382 1.214 1.214 0 01-.33-.88c0-.687.561-1.154 1.036-1.344a1.8 1.8 0 01.66-.137 1.12 1.12 0 011.057.665c.059.135.09.28.092.428v.31a1.306 1.306 0 01-.94 1.203c-.23.079-.47.125-.712.137zm1.885-6.455a1.18 1.18 0 01-1.112-.703 1.162 1.162 0 01-.096-.45c0-.492.345-1.051.486-1.27.18-.272.378-.53.596-.774a1.208 1.208 0 01.863-.343c.344.006.678.122.951.331.37.282.64.673.772 1.116a1.536 1.536 0 01-.346 1.442 1.79 1.79 0 01-1.2.457 1.543 1.543 0 00-.315.08c-.19.08-.395.12-.6.12v-.006z" fill="#37271B"/><path d="M46.888 26.962a1.118 1.118 0 01-.8-.32 1.067 1.067 0 01-.3-.924c.031-.189.11-.366.23-.515l.054-.158c.043-.134.291-.818.795-1.15a1.234 1.234 0 011.899.762 1.77 1.77 0 01-.223 1.363 2.444 2.444 0 01-.863.736 1.836 1.836 0 01-.785.205l-.007.001z" fill="#37271B"/><path d="M52.992 57.963c-.59 0-1.405-.008-2.488-.024-.509 0-.954-.024-1.325-.048a17 17 0 01-.596.023c-.663.017-1.652.032-2.943.05h-.863c-3.28 0-4.238-.116-4.676-.219-.917-.171-1.588-.542-1.994-1.116-.367-.515-.576-1.282-.656-2.403-.034-.536-.067-2.252-.098-5.257a960.267 960.267 0 01-.048-10.487v-1.545c0-2.795 0-4.979.012-6.687 0-1.74.027-3.128.06-4.12.033-1.03.083-1.784.154-2.284.088-.635.233-1.078.454-1.392.194-.28.443-.519.73-.704l.11-.072h.01a3.994 3.994 0 011.262-.573 9.992 9.992 0 011.923-.242c.787-.041 1.939-.07 3.42-.088h2.4c.548 0 1 0 1.342.023a30.46 30.46 0 011.343-.023h2.387a90.76 90.76 0 013.43.088 9.98 9.98 0 011.925.242c.467.12.909.324 1.303.602l.074.054.026.027c.243.16.459.357.639.585.246.315.405.744.498 1.351.071.46.125 1.13.173 2.05.04.886.066 2.12.074 3.666l.035 5.893v.671c.017 1.697.024 3.345.024 4.888 0 1.543 0 3.41-.024 5.665-.016 2.2-.049 3.913-.097 5.094-.048 1.46-.114 2.518-.198 3.236-.106.882-.296 1.481-.598 1.888a2.497 2.497 0 01-1.427.898c-.314.077-.962.184-3.07.252-.895.021-1.808.038-2.707.038zm-.14-5.725h.621l.033-2.221v-2.44c.01-2.575.016-4.694.016-6.462v-1.753c-.01-2.098-.016-3.998-.016-4.22 0-.22 0-2.535-.016-5.15l-.008-2.975c0-.057-.004-.115-.012-.171v-.035a2.471 2.471 0 00-.052-.343h-2.309l-.361.019h-1.473c-.027.268-.051.63-.055 1.074v15.53c0 .04 0 3.949.022 7.253v1.214c.002.23.02.46.054.687l.82-.02.625-.018.019.036.788-.027.261-.02.199.02.844.022z" fill="#37271B"/><path d="M52.992 57.963c-.59 0-1.405-.008-2.488-.024-.509 0-.954-.024-1.325-.048a17 17 0 01-.596.023c-.663.017-1.652.032-2.943.05h-.863c-3.28 0-4.238-.116-4.676-.219-.917-.171-1.588-.542-1.994-1.115-.367-.516-.576-1.283-.656-2.404-.034-.536-.067-2.252-.098-5.257a910.617 910.617 0 01-.048-10.19v-2.184l1.697 1.394c2.35 1.931 4.168 3.377 5.89 4.683a41.57 41.57 0 003.83 2.642l.503.3v.581c0 1.269.01 2.762.017 4.156v1.214c.002.23.02.46.054.687l.82-.02.625-.018.019.036.788-.027.261-.02.199.02.837.025h.621l.033-2.22.01-2.68 1.198.195c1.299.202 2.611.298 3.925.288.296 0 .603 0 .914-.012l.43-.014 1.092-.042-.015 1.088c-.02 1.121-.044 2.06-.073 2.793-.048 1.46-.114 2.519-.198 3.236-.106.883-.296 1.482-.598 1.889a2.498 2.498 0 01-1.427.897c-.314.078-.962.184-3.07.253-.883.027-1.796.044-2.695.044z" fill="#37271B"/><path d="M60.048 36.004v-.664c-.015-2.39-.027-4.355-.035-5.895a94.3 94.3 0 00-.072-3.623c-.041-.876-.094-1.523-.157-1.941a1.95 1.95 0 00-.29-.872 1.723 1.723 0 00-.482-.418l-.048-.05a2.923 2.923 0 00-.965-.44 9.16 9.16 0 00-1.71-.21 90.808 90.808 0 00-3.377-.086h-2.387c-.57 0-1.017 0-1.343.023a33.274 33.274 0 00-1.343-.023h-2.387a90.626 90.626 0 00-3.375.086 9.194 9.194 0 00-1.712.21 2.923 2.923 0 00-.965.44.28.28 0 01-.12.075 1.633 1.633 0 00-.443.437 2.316 2.316 0 00-.277.946c-.065.458-.113 1.182-.144 2.174a175.33 175.33 0 00-.064 4.09 1251.08 1251.08 0 00-.012 6.684v1.545c0 4.03.016 7.52.049 10.472.032 2.952.063 4.683.095 5.195.065.901.22 1.528.47 1.88.251.352.703.585 1.363.7.514.13 2 .196 4.46.196h.844c1.302-.017 2.28-.034 2.934-.05.233 0 .442-.014.629-.024.366.024.81.04 1.334.05 1.053.016 1.877.024 2.472.024.9 0 1.791-.017 2.675-.05 1.496-.048 2.445-.121 2.847-.22a1.49 1.49 0 00.854-.515c.185-.244.318-.707.399-1.387.08-.68.145-1.732.193-3.157.049-1.18.08-2.867.095-5.06.015-2.195.023-4.078.024-5.65a855.791 855.791 0 00-.03-4.892zm-5.482 5.121c0 1.779 0 3.894-.016 6.467v2.45l-.034 2.388v.807c-.139.026-.279.04-.42.041h-1.248l-.626-.019h-.256l-.148-.015-.19.014c-.526.019-1.036.036-1.134.036h-.3c-.01 0-.016-.01-.026-.026a81.28 81.28 0 01-1.184.026h-.415c-.096 0-.331-.773-.345-1.717v-1.212c-.019-3.346-.022-7.258-.022-7.258V27.568c.008-1.14.148-2.077.31-2.082.163-.005.963-.019 1.35-.019h3.463c.281 0 .621 0 .754.009.133.008.376.556.44 1.267.013.096.019.193.02.29v2.975l.015 5.15c0 .22 0 2.12.015 4.22l-.003 1.747zM34.33 22.104c.035.933.053 2.124.054 3.574v2.77c0 1.361-.032 3.1-.095 5.213-.063 2.114-.14 3.709-.23 4.785-.701 7.526-1.755 12.758-3.162 15.696-.828 1.864-2.279 2.796-4.351 2.795-.23 0-.482-.009-.756-.026-1.458-.072-2.647-.74-3.566-2.004-.92-1.263-1.722-3.31-2.407-6.14a110.63 110.63 0 00-.345-1.439 20.36 20.36 0 01-.19-.766h-.027c-.036 0-.117.184-.244.552-.126.367-.27.882-.431 1.545-.847 3.226-1.65 5.458-2.406 6.695a4.308 4.308 0 01-1.54 1.317 6.26 6.26 0 01-.798.362 3.37 3.37 0 01-.85.161c-.346.028-.832.05-1.459.067h-.621c-1.119 0-1.912-.08-2.379-.242-1.55-.447-2.798-1.5-3.744-3.157-.946-1.657-1.717-4.126-2.315-7.408-.523-2.937-.92-6.44-1.189-10.508a117.54 117.54 0 01-.243-7.284c0-1.291.027-2.518.08-3.682.055-1.13.112-2.012.173-2.648.035-.498.13-.99.283-1.464.113-.318.29-.61.518-.858.469-.504 1.189-.827 2.161-.969.377-.053.756-.08 1.136-.08.679.01 1.354.096 2.013.255.748.17 1.284.523 1.609 1.061.196.344.367.905.517 1.695.15.79.294 2.032.446 3.735.152 1.703.345 4.103.554 7.21.217 3.01.497 5.953.839 8.83.341 2.877.675 5.122 1 6.733.053.232.098.343.134.343a.11.11 0 00.067-.04c.105-.248.191-.505.257-.767.36-1.039.78-2.57 1.257-4.595a165.16 165.16 0 001.324-6.141c.406-2.07.672-3.679.797-4.826.03-.346.085-.69.162-1.03a4.4 4.4 0 01.19-.644c.197-.286.594-.5 1.19-.645a6.64 6.64 0 011.242-.108c.27 0 .55.01.838.027 1.604.162 2.513.565 2.729 1.21.036.143.103.619.203 1.424.1.805.202 1.756.311 2.85.23 2.276.45 4.13.661 5.564.21 1.432.476 2.947.798 4.542a65.73 65.73 0 00.906 3.856c.229.908.513 1.8.85 2.675l.298.672.345-.995c.99-2.861 1.747-7.027 2.27-12.498.18-2.06.323-4.837.431-8.332.055-2.187.082-4.158.081-5.914 0-1.056-.008-2.032-.026-2.928l-.08-3.146.702-.27a4.772 4.772 0 011.593-.241c.055 0 .28.01.677.027.409.02.807.138 1.161.344a1.1 1.1 0 01.258.228c.079.126.13.268.148.415.047.299.079.6.095.902.027.412.06.967.097 1.665zm120.221-3.602c.805.198 1.301.467 1.486.807a.482.482 0 01.081.24c0 .252-.207.494-.621.727a1.934 1.934 0 01-.663.214 9.934 9.934 0 01-1.392.108c-.631.02-1.542.038-2.73.053l-4.162.055.109.78c.072.715.136 2.847.19 6.396.017 2.366.026 4.83.026 7.391v5.928a207.99 207.99 0 01-.27 11.006c-.053.985-.11 1.738-.172 2.258a4.356 4.356 0 01-.244 1.115 1.029 1.029 0 01-.364.47c-.54.377-1.324.637-2.353.78a7.746 7.746 0 01-1.08.08 6.067 6.067 0 01-1.674-.215c-1.046-.287-1.659-.627-1.839-1.022-.23-.322-.383-1.924-.459-4.807a336.129 336.129 0 01-.055-6.8c0-2.151.009-4.651.028-7.498.036-3.906.077-7.252.122-10.04.045-2.788.094-4.387.149-4.797l.134-1.049h-3.516c-1.874 0-3.239-.053-4.094-.161-.855-.108-1.409-.296-1.663-.565a.677.677 0 01-.243-.456c0-.251.279-.484.837-.7.251-.095.516-.153.784-.17.38-.046.988-.08 1.824-.107.837-.027 2.022-.049 3.554-.067l5.973-.08c2.865-.02 5.18-.03 6.946-.028.882 0 1.927.004 3.134.013 1.207.01 1.946.056 2.217.141zm-65.038 4.311l.535.436-.121 16.43a569.58 569.58 0 00-.026 5.114c-.016 2.424-.032 4.403-.048 5.936a83.55 83.55 0 01-.097 3.588 8.53 8.53 0 01-.243 1.828c-.116.364-.262.578-.439.642a1.423 1.423 0 01-.39.05 2.78 2.78 0 01-.366-.025 3.595 3.595 0 00-.633-.048c-.42.01-.839-.01-1.255-.06a1.003 1.003 0 01-.55-.255l-.363-.316.024-11.388c.016-1.616.024-3.095.024-4.436 0-1.342-.004-2.824-.012-4.447-.01-1.624-.022-2.482-.036-2.575-.033 0-.132.206-.294.618-.162.412-.357.932-.585 1.562a20.81 20.81 0 01-.345.97c-.618 1.762-1.126 3.204-1.523 4.326a125.102 125.102 0 01-.953 2.624 16.8 16.8 0 01-.585 1.382 2.181 2.181 0 01-.378.582.816.816 0 01-.376.194.366.366 0 01-.074.048 4.28 4.28 0 01-1.486.242l-.573-.012c-.41-.028-.81-.13-1.181-.304a.062.062 0 01-.048-.024 1.462 1.462 0 01-.439-.266 2.645 2.645 0 01-.476-.666 22.799 22.799 0 01-.779-1.6c-.332-.735-.793-1.757-1.38-3.066l-.147-.29a145.82 145.82 0 00-1.209-2.63 95.67 95.67 0 00-.987-2.047l-.853-1.648v6.154a359.586 359.586 0 01-.172 9.743c-.098 3.037-.204 4.983-.318 5.837-.029.4-.182.78-.438 1.09-.3.283-.67.484-1.072.582a7.378 7.378 0 01-1.852.242h-.268a6.573 6.573 0 01-1.51-.146c-.943-.257-1.495-.564-1.657-.92-.18-.275-.306-1.555-.378-3.842-.073-2.287-.109-5.966-.109-11.037 0-10.758.178-16.405.535-16.94a1.26 1.26 0 01.318-.581c.21-.188.448-.344.706-.46a5.459 5.459 0 012.266-.412h.147a6.53 6.53 0 012.315.386 4.255 4.255 0 011.753 1.236c.553.615 1.255 1.73 2.108 3.344.853 1.615 2.034 4.023 3.545 7.223l1.036 2.242c.316.686.531 1.15.645 1.392l.346.776 1.315-3.708c.99-2.793 2.055-5.494 3.192-8.103 1.136-2.61 1.916-4.155 2.338-4.636.439-.354 1.04-.532 1.804-.532l.682.012c.423.006.887.202 1.39.59zm21.66 12.773c-.714 2.164-2.184 4.36-4.41 6.59l-1.486 1.504.585.343c.664.406 1.291.869 1.875 1.382.565.46 1.08.978 1.536 1.545.731 1.116 1.096 2.239 1.096 3.369a5.652 5.652 0 01-.438 2.157c-.487 1.002-1.267 1.903-2.339 2.703a9.648 9.648 0 01-3.485 1.66c-.581.08-1.167.12-1.754.12h-.804c-.553 0-1.174-.012-1.865-.036a12.59 12.59 0 01-1.726-.158c-1.008-.21-1.666-.621-1.974-1.236-.325-.517-.56-3.142-.706-7.875-.309-8.611-.536-13.902-.682-15.873a64.426 64.426 0 01-.123-3.2 52.918 52.918 0 010-3.217c-.007-.415.034-.83.123-1.236.243-.516.876-.88 1.899-1.09a7.52 7.52 0 011.486-.146c.549.002 1.096.06 1.633.172a9.32 9.32 0 001.108.218c.408.06.819.1 1.231.12.895.08 1.782.24 2.649.477.869.223 1.714.53 2.522.92a8.458 8.458 0 014.044 4.58c.259.776.389 1.786.39 3.03a11.238 11.238 0 01-.385 3.177zm-4.922-3.539v-.316c0-1.21-.098-2.134-.292-2.774-.195-.64-.617-1.258-1.267-1.854a6.67 6.67 0 00-.913-.776 3.371 3.371 0 00-.915-.436c-.259-.08-.495-.156-.706-.23a4.319 4.319 0 01-.414-.156h-.049c-.032 0-.065.048-.098.144a2.29 2.29 0 00-.024.388v.515c0 .241.016.71.048 1.404l.269 6.047c.098 2.172.179 3.856.244 5.052l.121 1.842.518-.606c.162-.177.34-.383.535-.618.194-.235.367-.449.517-.642a14.73 14.73 0 001.973-3.562c.13-.344.232-.642.306-.908.079-.314.124-.635.133-.958.007-.378.014-.895.014-1.558v.002zm-1.535 19.676h-.024a5.21 5.21 0 00.147-1.212 7.74 7.74 0 00-.33-1.986 4.04 4.04 0 00-1.279-2.012l-.732-.582.123 3.588c.032 1.016.069 1.914.11 2.688.042.774.067 1.245.085 1.406l.122.515.779-.874c.52-.563.853-1.073.999-1.531zm27.948-2.933c.097 1.358.175 2.48.231 3.37.056.887.093 1.598.11 2.131.016.26.025.495.025.704 0 .21-.009.395-.025.606-.008.17-.041.337-.098.496a.49.49 0 01-.195.254c-.438.308-1.014.462-1.726.46h-.634c-.39 0-.804-.171-1.242-.515a1.028 1.028 0 01-.232-.266 1.355 1.355 0 01-.134-.448 12.706 12.706 0 01-.097-.898 45.066 45.066 0 01-.097-1.61l-.207-2.896a148.36 148.36 0 00-.207-2.618c-.066-.735-.114-1.126-.147-1.174l-.621.036c-.399.024-.889.056-1.474.096s-1.167.086-1.742.134c-.575.048-1.068.096-1.474.144l-1.146.098-.147 2.98c-.082 1.875-.175 3.317-.279 4.326-.105 1.01-.263 1.732-.475 2.168a1.769 1.769 0 01-.877.898c-.438.194-1.089.308-1.95.344a6.38 6.38 0 01-.56.024 4.757 4.757 0 01-1.486-.194c-.911-.355-1.496-.953-1.755-1.792-.179-.711-.294-1.987-.346-3.829-.017-.792-.025-1.616-.025-2.472 0-1.132.028-2.537.086-4.216a58.61 58.61 0 01.378-4.967 50.912 50.912 0 012.045-9.402c.927-2.829 1.926-4.84 2.999-6.035a7.37 7.37 0 013.726-2.036 7.664 7.664 0 011.585-.172 6.76 6.76 0 012.589.515c1.071.371 1.934 1.304 2.589 2.799.655 1.494 1.207 4.031 1.657 7.61.447 3.576.906 8.691 1.378 15.348zm-5.02-4.943a.707.707 0 00.024-.242c0-.306-.052-.944-.157-1.915-.105-.97-.277-2.25-.518-3.84a133.1 133.1 0 00-.742-4.592c-.265-1.47-.495-2.585-.69-3.345a13.35 13.35 0 00-.535-1.794c-.066-.171-.132-.266-.195-.266-.033 0-.066.033-.099.096-.114.194-.283.687-.518 1.503a75.884 75.884 0 00-.69 2.606 37.49 37.49 0 00-.501 2.218c-.194 1.081-.421 2.58-.682 4.494-.26 1.915-.432 3.381-.517 4.398l-.123 1.358h.975c.277 0 .609-.016.998-.05.39-.03.741-.063 1.048-.096 1.771-.255 2.745-.433 2.922-.533z" fill="#997B5F"/><path d="M168.613 54.05c.796.228 1.195.567 1.195 1.017a.845.845 0 01-.025.194c-.049.615-1.292.986-3.728 1.114a76.61 76.61 0 00-2.071.134c-.732.057-1.333.11-1.802.158-.94.097-1.883.145-2.828.144h-.537a8.126 8.126 0 01-1.363-.072c-.894-.29-1.47-.622-1.726-.994-.098-.128-.179-.439-.244-.932-.064-.493-.122-1.257-.172-2.29-.424-7.744-.652-14.836-.684-21.277l-.05-7.27.414-.315c.391-.343 1.114-.572 2.17-.687.829-.079 2.063-.119 3.703-.12h1.51c1.366.015 2.394.035 3.083.06.489.008.977.044 1.462.11.241.034.474.108.69.218.489.258.732.515.732.774 0 .194-.138.388-.414.582a1.83 1.83 0 01-.78.242c-.608.061-1.218.086-1.828.074-.616.015-1.176.027-1.681.036-.503 0-.845.012-1.022.012l-.537.024v6.447c0 1.761.012 3.559.036 5.392.024 1.833.053 3.21.086 4.132l.097 3.077h2.071c.829 0 1.438.02 1.828.061.338.026.667.112.974.255.46.228.69.446.69.654 0 .259-.284.515-.863.752-.307.16-1.186.242-2.63.242h-1.994l.098 2.422c.034.695.07 1.422.109 2.182.039.76.076 1.382.111 1.866l.096 1.598 2.534-.096c.7-.032 1.293-.048 1.78-.048.747.007 1.25.046 1.51.127zm21.432-5.26c.099 1.358.176 2.48.231 3.369.055.888.093 1.601.114 2.139.015.26.024.494.024.704 0 .21 0 .395-.024.606-.008.17-.041.336-.099.496a.486.486 0 01-.195.254c-.438.308-1.013.461-1.726.46h-.633c-.39 0-.805-.171-1.243-.515a1.024 1.024 0 01-.231-.266 1.356 1.356 0 01-.135-.448 12.706 12.706 0 01-.097-.898 48.038 48.038 0 01-.096-1.61c-.066-.923-.135-1.888-.209-2.896a200.18 200.18 0 00-.207-2.618c-.065-.735-.113-1.127-.145-1.175l-.622.036c-.398.024-.889.057-1.474.097-.585.039-1.167.085-1.741.133-.575.048-1.069.097-1.474.145l-1.147.098-.146 2.98c-.081 1.874-.174 3.316-.28 4.326-.106 1.01-.264 1.732-.475 2.168a1.77 1.77 0 01-.876.898c-.441.194-1.091.308-1.951.343a6.341 6.341 0 01-.559.024 4.746 4.746 0 01-1.486-.194c-.912-.354-1.497-.952-1.756-1.792-.177-.71-.292-1.987-.345-3.828-.017-.792-.026-1.616-.026-2.472 0-1.132.029-2.538.086-4.217.058-1.679.184-3.335.378-4.968a50.996 50.996 0 012.046-9.402c.927-2.828 1.927-4.84 2.998-6.035a7.366 7.366 0 013.727-2.036 7.647 7.647 0 011.584-.172 6.76 6.76 0 012.589.515c1.073.371 1.936 1.304 2.59 2.799.653 1.494 1.206 4.031 1.657 7.61.442 3.572.9 8.686 1.374 15.343zm-5.02-4.944a.706.706 0 00.024-.242c0-.305-.052-.943-.157-1.914a94.79 94.79 0 00-.518-3.84 133.56 133.56 0 00-.742-4.593c-.265-1.469-.495-2.584-.69-3.344a13.662 13.662 0 00-.535-1.794c-.066-.171-.132-.266-.195-.266-.033 0-.066.033-.099.096-.114.194-.283.687-.518 1.502a75.815 75.815 0 00-.69 2.606 37.527 37.527 0 00-.501 2.218c-.195 1.082-.425 2.58-.69 4.495-.265 1.915-.437 3.38-.518 4.398l-.123 1.358h.976c.276 0 .608-.016.997-.05.389-.033.739-.065 1.048-.096 1.775-.255 2.75-.433 2.928-.534h.003zm35.399-21.033l.535.436-.121 16.43a539.509 539.509 0 00-.024 5.114c-.017 2.424-.034 4.403-.05 5.936a84.102 84.102 0 01-.096 3.588 8.417 8.417 0 01-.244 1.828c-.115.364-.261.578-.438.642a1.426 1.426 0 01-.39.05 2.79 2.79 0 01-.366-.025 3.606 3.606 0 00-.634-.048c-.419.01-.838-.01-1.255-.06a1.014 1.014 0 01-.549-.255l-.364-.316.024-11.388c.015-1.616.023-3.095.025-4.436.001-1.342-.003-2.824-.013-4.447-.009-1.624-.021-2.482-.036-2.575-.033 0-.131.206-.293.618-.162.412-.358.932-.584 1.562-.115.344-.23.667-.345.97-.618 1.762-1.125 3.204-1.522 4.326a94.96 94.96 0 01-.963 2.629c-.244.63-.439 1.091-.586 1.382-.093.213-.221.41-.378.582a.81.81 0 01-.376.194.39.39 0 01-.074.048 4.27 4.27 0 01-1.486.242l-.572-.012a3.32 3.32 0 01-1.182-.304.063.063 0 01-.027-.007.057.057 0 01-.021-.017 1.458 1.458 0 01-.439-.266 2.652 2.652 0 01-.476-.666c-.187-.332-.446-.865-.779-1.6-.332-.735-.793-1.757-1.381-3.066l-.146-.29c-.388-.873-.791-1.75-1.209-2.63a116.45 116.45 0 00-.987-2.047l-.853-1.648v6.154a357.657 357.657 0 01-.172 9.743c-.098 3.038-.203 4.983-.316 5.837-.03.4-.183.78-.439 1.09a2.393 2.393 0 01-1.073.582 7.363 7.363 0 01-1.851.242h-.258a6.58 6.58 0 01-1.511-.146c-.942-.257-1.495-.564-1.657-.92-.178-.275-.304-1.555-.378-3.842-.074-2.287-.11-5.966-.109-11.037 0-10.758.179-16.405.535-16.94a1.26 1.26 0 01.318-.581c.21-.188.448-.344.706-.46a5.456 5.456 0 012.266-.412h.147a6.52 6.52 0 012.315.386 4.26 4.26 0 011.754 1.236c.552.615 1.254 1.73 2.107 3.344.853 1.615 2.035 4.023 3.546 7.223l1.035 2.242c.316.687.531 1.15.646 1.392l.345.776 1.315-3.708a124.533 124.533 0 013.19-8.108c1.136-2.61 1.916-4.155 2.339-4.636.438-.354 1.04-.532 1.804-.532l.69.012c.419.006.879.202 1.381.59z" fill="#997B5F"/><path d="M42.76 8.202c.044-.067.206-.065.457.041.35.167.658.409.902.709.38.454.634 1 .737 1.581a3.68 3.68 0 01-.274 2.148 3.54 3.54 0 01-.278.515 3.62 3.62 0 01-.345.443c-.237.262-.463.465-.648.652-.369.36-.573.702-.612.987a.717.717 0 00.036.378.937.937 0 00.162.28c.118.144.252.204.257.288 0 .041-.029.084-.11.117a.605.605 0 01-.364 0 1.058 1.058 0 01-.494-.313 1.317 1.317 0 01-.21-.309l-.042-.094-.034-.103a1.398 1.398 0 01-.045-.218c-.034-.31.01-.625.13-.913.125-.3.294-.578.501-.826.197-.246.408-.467.58-.687a3.081 3.081 0 00.423-.685 3.19 3.19 0 00.273-1.52 3.442 3.442 0 00-.345-1.26c-.344-.694-.75-1.064-.656-1.211zm5.581-6.586c.054-.058.242 0 .518.189.386.283.719.632.982 1.03.189.276.349.57.478.877.158.362.27.741.334 1.13.035.23.043.465.022.697-.023.257-.088.51-.191.747-.21.426-.48.82-.805 1.167a8.47 8.47 0 00-.378.457 9.442 9.442 0 01-.148.218c-.05.072-.085.15-.13.225-.154.298-.27.615-.345.942a4.525 4.525 0 00-.047 1.751c.071.408.187.806.346 1.188.048.148.1.256.119.344.019.087.019.146-.012.171-.031.026-.09.02-.173-.022a1.206 1.206 0 01-.32-.237 3.2 3.2 0 01-.778-1.22 4.135 4.135 0 01-.141-.467 4.34 4.34 0 01-.08-1.704c.068-.439.2-.866.394-1.267.055-.104.103-.21.172-.312l.195-.304c.14-.192.289-.367.429-.532a4.41 4.41 0 00.647-.876c.063-.125.106-.26.126-.398a2 2 0 00.017-.444 4.653 4.653 0 00-.172-.92 6.38 6.38 0 00-.284-.802 11.25 11.25 0 00-.586-1.127c-.164-.267-.245-.437-.189-.5zm6.819 8.954c-.033.17.386.355.725.833.185.26.293.568.31.886a1.585 1.585 0 01-.32 1.046 11.66 11.66 0 01-.966 1.06l-.126.14c-.043.05-.086.098-.126.147-.077.097-.15.198-.217.303a2.841 2.841 0 00-.302.613 1.926 1.926 0 00-.11.573c-.006.15.016.3.063.443a.62.62 0 00.147.245c.052.047.096.064.136.052.081-.026.12-.151.181-.32.037-.097.078-.192.125-.284.063-.12.135-.235.215-.344a3.692 3.692 0 01.536-.577c.036-.034.076-.065.114-.1l.125-.106c.173-.146.37-.303.574-.49.227-.204.431-.43.61-.677a2.91 2.91 0 00.254-.44 2.28 2.28 0 00.164-.477c.069-.314.073-.639.012-.954a2.267 2.267 0 00-.314-.793 2.095 2.095 0 00-.493-.54 1.732 1.732 0 00-.936-.369c-.238-.013-.368.052-.381.13z" fill="#BFA084"/><path d="M59.58 48.85c-1.684.06-3.37-.037-5.035-.291v1.483l-.035 2.388v.807c-.138.026-.278.04-.419.041h-1.247l-.627-.019h-.256l-.148-.015-.19.014c-.527.019-1.036.036-1.134.036h-.3c-.01 0-.016-.01-.026-.026-.577.015-1.076.026-1.185.026h-.414c-.097 0-.331-.773-.345-1.717v-1.212c0-1.398-.014-2.891-.017-4.16a42.129 42.129 0 01-3.927-2.707c-2.01-1.524-3.97-3.107-5.923-4.71 0 3.905.017 7.298.049 10.181.03 2.956.063 4.688.095 5.195.065.901.22 1.528.47 1.88.251.352.703.585 1.363.7.514.13 2 .196 4.46.196h.844a285.68 285.68 0 002.934-.05c.234 0 .442-.013.629-.024.366.024.81.04 1.334.05 1.053.016 1.877.024 2.472.024.9 0 1.792-.017 2.675-.05 1.496-.048 2.445-.121 2.847-.22.336-.068.637-.25.854-.514.185-.245.318-.708.399-1.388.08-.68.145-1.732.193-3.157.03-.728.054-1.65.071-2.767l-.46.005z" fill="#8A6A50"/><path d="M48.75 53.653c-.172-.129-.557-.093-.862.077-.306.17-.475.414-.39.54a.911.911 0 01.157.389c0 .084.314.154.698.154.376.003.748-.076 1.09-.232a.25.25 0 00.16-.232.248.248 0 00-.16-.233 10.464 10.464 0 01-.692-.463zm-4.34-.11c.257 0 .186.343-.156.774-.342.43-.763.738-.934.697-.17-.041-.312-.148-.312-.233.014-.182.04-.363.08-.541a.834.834 0 01.465-.543 2.78 2.78 0 01.856-.154zM57.174 30.95c.257 0 .362.278.233.62-.13.342-.407.687-.621.773a1.388 1.388 0 01-.701.079c-.173-.043-.311-.148-.311-.234.013-.182.04-.362.078-.54a.837.837 0 01.466-.543c.275-.096.564-.148.856-.155zM40.985 51.299a.592.592 0 01.39.309c.043.129-.062.268-.233.309a.78.78 0 01-.546-.077.28.28 0 01-.12-.286.275.275 0 01.043-.1.46.46 0 01.466-.155zm.787-2.4c.086.086.295.051.468-.077a.746.746 0 00.31-.464c0-.129-.172-.197-.388-.154a.656.656 0 00-.468.309.412.412 0 00.078.386zm14.309 2.323c.087.084.295.05.468-.078a.75.75 0 00.31-.465c0-.127-.172-.197-.388-.154a.662.662 0 00-.467.309.414.414 0 00.077.388zm-10.893-3.018c.084.127.506.056.934-.157.428-.212.742-.525.699-.686a.38.38 0 00-.311-.311h-.466c-.19.017-.375.07-.545.156a.818.818 0 00-.389.464.772.772 0 00.078.534zm-5.059-18.799c.043.084.219.05.39-.077l.623-.465c.172-.127.416-.302.543-.386.128-.085.164-.33.078-.543-.086-.213-.435-.316-.778-.232l-.311.31-.11.11a3.424 3.424 0 00-.435.818.87.87 0 000 .465zm2.723 2.158c0-.084-.172-.084-.388 0-.216.084-.388.26-.388.388 0 .129.069.232.155.232.132-.009.263-.035.388-.077.128-.043.233-.148.233-.234v-.309zm2.336-7.196c-.173-.13-.382-.172-.468-.078-.17.195-.325.402-.466.618a1.84 1.84 0 00-.313.697c0 .128.173.163.39.078a2.32 2.32 0 01.701-.155.77.77 0 00.467-.154.547.547 0 00.077-.466 1.17 1.17 0 00-.388-.54zm2.567.54c-.042-.171-.183-.24-.311-.154a1.408 1.408 0 00-.389.62v.308c-.172.086-.276.19-.234.232.041.043.219.009.39-.077a1.4 1.4 0 00.466-.386.772.772 0 00.078-.543z" fill="#BFA084"/></g><defs><clipPath id="clip0_0_119"><path fill="#fff" transform="translate(0 .564)" d="M0 0h222v58.102H0z"/></clipPath></defs></svg>