<svg version="1.0" xmlns="http://www.w3.org/2000/svg" width="666.667" height="666.667" viewBox="0 0 500 500"><path d="M229.8.5c-.2.1-3.2.5-6.8.9-3.6.3-7.6.8-9 1-1.4.3-4.3.7-6.5 1.1-2.2.3-6.8 1.2-10.2 2-3.5.8-7.5 1.7-9.1 2-5.5 1-27.7 8.6-37.5 12.9-40.4 17.7-74.5 44.5-100.3 79.1-4.1 5.5-7.8 10.4-8.2 11-.8 1.1-9.5 15.6-12.9 21.5-10.9 19.2-22.6 53.5-25.9 76-.3 1.9-.7 4.6-1 6-2.6 14.8-2.6 57.5 0 72 .3 1.4.7 4.2 1 6.3 1.9 12.7 8.7 36.7 14.2 50.4 26.7 66.2 79.8 117.7 146.8 142.4 7.6 2.9 22.5 7.3 27.6 8.3 1.4.2 4.5.9 7 1.5 6.5 1.5 13.1 2.5 26.5 4.1 7 .9 48.7.6 53.5-.3 1.4-.3 4.7-.8 7.3-1.2 2.7-.4 5.9-.8 7-1.1 1.2-.2 3.5-.7 5-.9 21.9-4 53.9-15.6 71-25.7 2.6-1.5 5-2.8 5.3-2.8.3 0 5.7-3.4 12-7.5 55.4-36.6 93.2-91.1 107.5-155 1.1-5 2.2-10.8 2.5-13 .3-2.2.7-4.5.9-5.2 1.9-5.8 2.8-48.9 1.3-62.3-1.4-12.4-3-22.1-4.8-29-.5-1.9-1.1-4.6-1.4-6-1.3-6.4-7.4-25.1-11.3-34.5-10.5-25.1-26.1-50.1-44.1-70.3-7.8-8.9-9.2-10.3-17.8-18.3-27.9-26-70-49.2-104-57.4-1.1-.3-4.6-1.1-7.9-1.9C289.2 2.1 273 .3 249.8.3c-10.8-.1-19.8 0-20 .2z"/></svg>