<svg width="601" height="153" viewBox="0 0 601 153" fill="none" xmlns="http://www.w3.org/2000/svg" preserveAspectRatio="none">
<path d="M76.5518 11.3334C70.0577 11.3334 48.2139 17.6667 42.9005 19.3334C36.9968 21 28.7316 28.3334 25.1893 31.3334C6.88774 46 6.88774 51 1.57438 69C-6.10047 94 15.153 119.667 46.4427 138.333C54.1176 143 62.9732 147.333 73.5999 149.667C82.4555 151.667 92.4919 152 101.938 152.333C207.024 155.333 312.701 151.667 417.788 148.333C440.222 147.667 462.066 147 484.5 146C496.307 145.333 508.705 145 518.741 141.667C524.645 139.667 542.356 135.333 547.079 133C576.008 117 589.586 98.3334 587.225 75.6667C586.044 65 578.369 55 570.694 45.3334C559.477 32 546.489 19 519.922 14C508.705 11.6667 491.584 9.66669 479.777 9.66669C461.475 9.33336 443.174 9.33336 424.872 9.00003C349.304 7.66669 275.508 8.00003 201.121 9.00003C159.794 9.33336 117.878 10.3334 76.5518 11.3334Z" fill="#5F8F99"/>
<path d="M90.7182 3.33443C84.2241 3.33443 62.3803 9.66776 57.0669 11.3344C51.1632 13.0011 42.8979 20.3344 39.3557 23.3344C21.0541 38.0011 21.0541 43.0011 15.7408 61.0011C7.47555 86.3344 29.3194 112.001 60.6091 130.334C68.284 135.001 77.1396 139.334 87.7663 141.668C96.6219 143.668 106.658 144.001 116.104 144.334C220.6 147.001 325.687 143.668 430.773 140.001C453.207 139.334 475.051 138.668 497.485 137.668C509.293 137.001 521.691 136.668 531.727 133.334C537.631 131.334 555.342 127.001 560.065 124.668C588.993 108.668 602.572 90.0011 600.21 67.3344C599.03 56.6678 591.355 46.6678 583.68 37.0011C572.463 23.6678 559.475 10.6678 532.908 5.66776C521.691 3.33443 504.57 1.33443 492.762 1.33443C474.461 1.00109 456.159 1.00109 437.858 0.667761C363.471 -0.332239 289.084 0.00109423 215.287 1.00109C173.961 1.66776 132.044 2.33443 90.7182 3.33443Z" fill="#C1E6EA"/>
</svg>
