<svg width="280" height="101" viewBox="0 0 280 101" fill="none" xmlns="http://www.w3.org/2000/svg">
<path d="M35.6647 7.68675C32.6392 7.68675 22.4624 11.8262 19.9869 12.9155C17.2364 14.0048 13.3857 18.7979 11.7355 20.7586C3.20893 30.3447 3.20893 33.6127 0.733488 45.3774C-2.84215 61.7173 7.05962 78.4929 21.6372 90.6933C25.2129 93.7434 29.3386 96.5757 34.2895 98.1007C38.4152 99.4079 43.091 99.6258 47.4918 99.8436C96.4506 101.804 145.684 99.4079 194.643 97.2292C205.095 96.7935 215.272 96.3578 225.724 95.7042C231.225 95.2685 237.001 95.0506 241.677 92.8719C244.427 91.5648 252.678 88.7325 254.879 87.2075C268.356 76.7499 274.682 64.5495 273.582 49.7347C273.032 42.763 269.456 36.2271 265.881 29.909C260.655 21.1944 254.604 12.6976 242.227 9.42967C237.001 7.90462 229.024 6.59743 223.523 6.59743C214.997 6.37956 206.47 6.37956 197.944 6.1617C162.737 5.29024 128.356 5.5081 93.7001 6.1617C74.4466 6.37956 54.9182 7.03316 35.6647 7.68675Z" fill="#37271B"/>
<path d="M42.2645 2.45824C39.239 2.45824 29.0622 6.59767 26.5867 7.687C23.8362 8.77632 19.9856 13.5693 18.3353 15.5301C9.80874 25.1162 9.80874 28.3842 7.3333 40.1489C3.48261 56.7066 13.6594 73.4822 28.237 85.4648C31.8127 88.5149 35.9384 91.3471 40.8893 92.8722C45.015 94.1794 49.6909 94.3972 54.0917 94.6151C102.775 96.358 151.734 94.1794 200.693 91.7829C211.145 91.3471 221.322 90.9114 231.773 90.2578C237.274 89.8221 243.05 89.6042 247.726 87.4256C250.477 86.1184 258.728 83.2861 260.929 81.7611C274.406 71.3036 280.732 59.1031 279.632 44.2883C279.082 37.3166 275.506 30.7807 271.931 24.4626C266.705 15.748 260.654 7.25127 248.276 3.98329C243.05 2.45824 235.074 1.15105 229.573 1.15105C221.046 0.933182 212.52 0.933182 203.993 0.715317C169.337 0.0617219 134.681 0.279587 100.3 0.933182C81.0465 1.36891 61.518 1.80464 42.2645 2.45824Z" fill="#BFA084"/>
</svg>
