<svg width="222" height="59" viewBox="0 0 222 59" fill="none" xmlns="http://www.w3.org/2000/svg">
<g clip-path="url(#clip0_149_612)">
<path d="M10.9004 57.7255C9.65586 57.7255 8.79971 57.6328 8.20938 57.4354C6.40904 56.9084 4.95221 55.6878 3.87857 53.8045C2.86534 52.0294 2.06961 49.5006 1.44821 46.0791C0.856271 42.5613 0.452942 39.0146 0.239929 35.4542C0.0828532 32.8379 0 30.3657 0 28.0979C0 26.7966 0.0276177 25.5417 0.0828532 24.3674C0.138089 23.1932 0.196776 22.3211 0.255464 21.667C0.298057 21.0827 0.414033 20.5059 0.600686 19.9502C0.760075 19.5059 1.00648 19.0975 1.32565 18.7485C1.95741 18.0618 2.88951 17.6378 4.09606 17.4592C4.52264 17.3992 4.95291 17.3688 5.38373 17.3683C6.13991 17.379 6.89253 17.4734 7.62768 17.6498C8.66334 17.885 9.41938 18.4017 9.89233 19.1846C10.1651 19.6532 10.367 20.297 10.5362 21.2241C10.6881 22.0515 10.8382 23.3048 10.9953 25.0524C11.1489 26.7692 11.3405 29.1966 11.5511 32.2765C11.7652 35.2585 12.0448 38.213 12.3848 41.0559C12.5074 42.086 12.6282 43.0422 12.7508 43.9126C12.8509 43.5074 12.9562 43.0765 13.0632 42.6216C13.5379 40.6113 13.9798 38.5581 14.3785 36.5186C14.7772 34.4791 15.0413 32.8928 15.1639 31.7786C15.1985 31.3932 15.2596 31.0106 15.3468 30.6336C15.4064 30.3562 15.4884 30.0841 15.5919 29.8198L15.6334 29.7254L15.6903 29.6413C16.0356 29.1263 16.6293 28.7829 17.4889 28.5786H17.5148H17.5407C18.0143 28.4914 18.4952 28.4489 18.9768 28.4516C19.2617 28.4516 19.5654 28.4619 19.8779 28.4808H19.9176C20.6788 28.558 22.99 28.7898 23.5269 30.3898L23.5389 30.4275L23.5493 30.467C23.5838 30.6112 23.6373 30.8979 23.7737 32.0121C23.8755 32.8327 23.9808 33.7992 24.0879 34.8859C24.3174 37.128 24.5401 38.9872 24.7438 40.4036C24.9475 41.8199 25.2116 43.3134 25.5309 44.8894C25.814 46.2628 26.1126 47.5349 26.4216 48.6834L26.5182 49.0388C27.2087 46.4053 27.7558 42.9409 28.1615 38.7057C28.3341 36.6782 28.4825 33.8988 28.5895 30.4396C28.6431 28.2799 28.6689 26.2988 28.6689 24.558C28.6689 23.5279 28.6603 22.5477 28.6431 21.6498L28.5429 17.7837L29.948 17.2464C30.5741 17.0348 31.2321 16.932 31.8933 16.9425C31.9572 16.9425 32.0763 16.9425 32.6166 16.9717C33.1909 17.0008 33.7498 17.1668 34.246 17.4558L34.2771 17.473L34.3081 17.4936C34.4971 17.6167 34.6649 17.7691 34.8053 17.9451C34.9886 18.1991 35.1071 18.4937 35.1505 18.8035C35.2054 19.1406 35.2417 19.4804 35.2592 19.8215C35.2868 20.2163 35.3179 20.7623 35.3559 21.4902C35.3921 22.4481 35.4111 23.6636 35.4111 25.1177V27.8868C35.4111 29.2499 35.3783 31.013 35.3162 33.1314C35.2541 35.2499 35.1747 36.8842 35.0832 37.9709C34.3634 45.6963 33.2984 50.9324 31.8312 54.0105C30.8369 56.232 29.0073 57.4062 26.5372 57.4062C26.2869 57.4062 26.009 57.3976 25.7139 57.377C23.948 57.2912 22.4826 56.474 21.3744 54.9513C20.5303 53.789 19.8019 52.1083 19.1633 49.8354C18.4331 52.395 17.7358 54.1993 17.0453 55.329L17.0298 55.353L17.0125 55.377C16.5198 56.0655 15.8688 56.627 15.1138 57.0148C14.8111 57.1787 14.4974 57.3215 14.1748 57.4423C13.812 57.5634 13.4348 57.6367 13.0528 57.6603C12.6955 57.6895 12.2019 57.7118 11.5425 57.7307H10.9004V57.7255Z" fill="#37271B"/>
<path d="M142.388 57.3771C141.727 57.3829 141.067 57.2968 140.429 57.1213C139.09 56.7539 138.323 56.2887 137.977 55.6243C137.707 55.1968 137.481 54.3265 137.381 50.3247C137.345 48.6663 137.326 46.4346 137.326 43.4989C137.326 41.3221 137.336 38.7968 137.353 35.9933C137.39 32.1083 137.431 28.728 137.476 25.9452C137.529 22.5546 137.581 21.5332 137.619 21.1383H135.282C133.345 21.1383 131.963 21.0834 131.057 20.9666C129.94 20.8276 129.217 20.5512 128.782 20.098C128.618 19.948 128.486 19.7667 128.394 19.565C128.302 19.3632 128.252 19.1451 128.246 18.9237C128.246 18.2147 128.738 17.6619 129.71 17.2791C130.052 17.1412 130.413 17.0566 130.78 17.0284C131.198 16.9786 131.816 16.9409 132.695 16.9134C133.532 16.8859 134.735 16.8636 136.269 16.8464C137.804 16.8293 139.789 16.8018 142.238 16.7657C145.216 16.7469 147.489 16.7383 149.2 16.7383C150.083 16.7383 151.131 16.7429 152.341 16.752C153.99 16.764 154.532 16.8464 154.83 16.9374C155.933 17.2104 156.605 17.6241 156.94 18.2301C157.076 18.4559 157.15 18.7136 157.154 18.9769C157.154 19.4216 156.957 20.0602 156.023 20.5907C155.712 20.7649 155.371 20.8813 155.018 20.934C154.504 21.0117 153.985 21.053 153.465 21.0576C152.833 21.0748 151.911 21.0937 150.72 21.1108L147.71 21.1503C147.774 22.1083 147.829 24.1289 147.883 27.2963C147.902 29.6997 147.91 32.1804 147.91 34.7023V40.6302C147.91 43.2792 147.874 45.674 147.802 47.7479C147.748 49.3736 147.693 50.7024 147.639 51.6964C147.586 52.6904 147.524 53.4818 147.458 54.0226C147.417 54.5041 147.308 54.9775 147.134 55.4286C146.984 55.7985 146.727 56.1162 146.396 56.3419C145.716 56.8089 144.807 57.1179 143.614 57.2844C143.208 57.344 142.799 57.3749 142.388 57.3771Z" fill="#37271B"/>
<path d="M66.7296 57.3993C66.1408 57.4104 65.5528 57.3528 64.9776 57.2276H64.943C63.6864 56.8843 62.9753 56.4414 62.6525 55.8062C62.4367 55.4371 62.252 54.7349 62.1502 51.5057C62.076 49.2173 62.0397 45.4971 62.0397 40.4344C62.0397 25.6876 62.3694 23.667 62.6525 23.085C62.7594 22.746 62.9458 22.4371 63.1962 22.1837C63.4843 21.916 63.8136 21.6958 64.1715 21.5313L64.2025 21.5159C65.0553 21.1578 65.9752 20.9857 66.9005 21.0112H67.0472C67.956 20.9999 68.8594 21.1517 69.714 21.4592C70.5565 21.7728 71.3046 22.2952 71.8872 22.9768C72.5034 23.6635 73.2405 24.824 74.1311 26.5288C74.9942 28.1528 76.1887 30.5975 77.6973 33.7923C78.0425 34.546 78.367 35.2396 78.6622 35.8816L79.1213 34.5906C80.1138 31.7872 81.1926 29.0369 82.3405 26.4172C83.9078 22.812 84.5033 21.9056 84.8468 21.5107L84.9055 21.4438L84.9746 21.3871C85.6011 20.8721 86.4279 20.6232 87.4325 20.6232L88.1333 20.6352C88.7841 20.6489 89.4573 20.9202 90.1374 21.4438L91.0781 22.2094L90.9659 39.1228C90.9486 41.0113 90.94 42.728 90.94 44.2284C90.9239 46.6594 90.9078 48.6422 90.8917 50.177C90.8761 51.722 90.8416 52.9444 90.7933 53.8096C90.738 54.7727 90.6466 55.4319 90.505 55.8869C90.2893 56.5736 89.9285 57.0113 89.4314 57.1916L89.3968 57.2036L89.3606 57.2139C89.1414 57.2743 88.9149 57.3044 88.6874 57.3032C88.5229 57.302 88.3587 57.2911 88.1955 57.2706H88.1644H88.1351C87.9874 57.2461 87.8377 57.2352 87.688 57.2379C87.2098 57.2497 86.7313 57.2244 86.2571 57.1624C85.8555 57.1027 85.4817 56.9231 85.1851 56.6474L84.4826 56.0431L84.5085 44.1804C84.524 42.546 84.5327 41.0576 84.5327 39.7477C84.5327 39.2899 84.5327 38.8207 84.5327 38.34C84.2392 39.1743 83.9803 39.9074 83.7559 40.5392C83.3503 41.6877 83.031 42.5563 82.7841 43.1967C82.5252 43.8628 82.3215 44.3452 82.1593 44.6679C82.0132 44.9936 81.8098 45.2907 81.5586 45.5452C81.3719 45.7165 81.1515 45.8474 80.9113 45.9297L80.8164 45.9778L80.7646 45.9967C80.1722 46.2077 79.5468 46.3118 78.9176 46.304L78.3187 46.292C77.8057 46.2654 77.302 46.1455 76.8325 45.9383C76.7582 45.9139 76.6865 45.8823 76.6185 45.8439C76.3914 45.7413 76.1809 45.6059 75.9936 45.4422C75.7116 45.171 75.4781 44.854 75.3032 44.5048C75.0978 44.1426 74.8302 43.5932 74.4815 42.8241C74.1501 42.0928 73.6939 41.0771 73.1127 39.7769L72.9677 39.4851L72.9574 39.4645C72.6122 38.6988 72.2583 37.9194 71.8941 37.1383V38.8756C71.8768 42.3366 71.8199 45.6242 71.7215 48.6508C71.6214 51.7409 71.5143 53.6911 71.3952 54.5924C71.3403 55.2054 71.0927 55.7856 70.6875 56.2508C70.2644 56.6709 69.7357 56.9703 69.1565 57.1178C68.463 57.3036 67.7482 57.3994 67.0299 57.4028H66.7382L66.7296 57.3993Z" fill="#37271B"/>
<path d="M101.549 57.4235C100.988 57.4235 100.349 57.4115 99.65 57.3874C99.026 57.3723 98.4037 57.3149 97.7875 57.2158H97.7565C96.4515 56.9445 95.5557 56.3574 95.0931 55.4801C94.8532 55.0904 94.4734 54.263 94.2525 47.1282C93.947 38.5736 93.7174 33.2466 93.5741 31.2998C93.5068 30.2577 93.4654 29.1641 93.4481 28.0379C93.4326 27.5006 93.424 26.9684 93.424 26.4723C93.424 25.9761 93.424 25.4045 93.4498 24.7727C93.474 23.8062 93.5517 23.4542 93.6225 23.2379L93.6414 23.1813L93.6673 23.1263C94.0609 22.2903 94.9205 21.7529 96.2962 21.4645C96.8541 21.3516 97.4219 21.2941 97.9912 21.2928C98.61 21.2942 99.2271 21.3581 99.833 21.4834H99.8675L99.902 21.4937C100.224 21.5766 100.551 21.6402 100.881 21.6843C101.256 21.7432 101.634 21.7827 102.013 21.8027H102.053C103.009 21.891 103.955 22.0633 104.88 22.3177C105.816 22.559 106.725 22.892 107.595 23.3117L107.619 23.3238C109.714 24.4136 111.327 26.2379 112.145 28.4431L112.154 28.4654V28.4894C112.453 29.3787 112.598 30.4757 112.598 31.844C112.619 33.0139 112.473 34.1809 112.164 35.3101L112.156 35.3393C111.393 37.6483 109.825 40.0019 107.495 42.335L106.931 42.9187C107.446 43.2718 107.941 43.6535 108.413 44.0621C109.038 44.5722 109.605 45.1478 110.105 45.7788L110.122 45.8028L110.14 45.8286C110.978 47.1093 111.405 48.4312 111.405 49.7599C111.401 50.6346 111.225 51.5 110.887 52.3076L110.875 52.3368L110.861 52.366C110.239 53.5887 109.33 54.6445 108.211 55.4441C107.063 56.308 105.751 56.9323 104.354 57.2793L104.323 57.2879H104.29C103.655 57.3804 103.014 57.4263 102.372 57.4252H101.547L101.549 57.4235ZM103.656 48.9273C103.677 49.5848 103.699 50.1943 103.724 50.7488C103.776 50.4875 103.802 50.2219 103.803 49.9556C103.793 49.5674 103.742 49.1813 103.651 48.8037L103.656 48.9273ZM102.621 26.3366C102.621 26.5547 102.64 26.8757 102.662 27.3461C102.744 29.207 102.833 31.2231 102.93 33.3942C103.009 35.1556 103.075 36.5616 103.132 37.662C103.828 36.6947 104.399 35.643 104.828 34.5324C104.944 34.232 105.035 33.959 105.099 33.7272C105.158 33.4876 105.191 33.2424 105.198 32.9959C105.213 32.6354 105.22 32.1289 105.22 31.4903V31.1744C105.22 29.801 105.086 29.0697 104.973 28.6989C104.834 28.2422 104.504 27.7718 103.993 27.3032L103.965 27.2757C103.729 27.0351 103.472 26.8156 103.197 26.6199C103.019 26.4946 102.823 26.3963 102.615 26.3281L102.621 26.3366Z" fill="#37271B"/>
<path d="M117.241 58.1016C116.627 58.1157 116.014 58.0322 115.427 57.8543L115.401 57.8458L115.375 57.8355C114.179 57.3685 113.36 56.5204 113.01 55.3857L113.001 55.3599V55.3342C112.803 54.5427 112.682 53.2174 112.63 51.2809C112.613 50.4861 112.606 49.6483 112.606 48.7831C112.606 47.638 112.634 46.2079 112.691 44.5307C112.748 42.8534 112.877 41.1315 113.076 39.4766C113.466 36.217 114.163 33.0011 115.159 29.8714C116.139 26.8791 117.189 24.7864 118.368 23.4696L118.385 23.4525L118.402 23.4336C119.557 22.2647 121.032 21.4588 122.643 21.116C123.238 20.9911 123.844 20.9278 124.452 20.9271C125.465 20.9263 126.467 21.1222 127.404 21.504C128.742 21.9778 129.809 23.104 130.578 24.8516C131.283 26.4516 131.851 29.0353 132.315 32.7486C132.762 36.3281 133.226 41.504 133.696 48.1547C133.791 49.4766 133.868 50.6131 133.927 51.5299C133.986 52.4466 134.02 53.1367 134.038 53.6809C134.055 53.9556 134.063 54.208 134.063 54.4311C134.063 54.6543 134.055 54.8775 134.036 55.1178C134.02 55.3924 133.962 55.6628 133.863 55.9196C133.751 56.2179 133.547 56.4733 133.28 56.6492C132.669 57.0698 131.899 57.2809 130.977 57.2809H130.344C129.721 57.2809 129.089 57.0372 128.466 56.5565L128.436 56.5324C128.252 56.3807 128.095 56.1983 127.974 55.9934C127.837 55.7442 127.749 55.4716 127.713 55.19C127.677 54.9616 127.641 54.6423 127.606 54.2148C127.572 53.7874 127.54 53.2758 127.508 52.5805C127.442 51.6649 127.373 50.7041 127.301 49.6981C127.23 48.7144 127.161 47.8388 127.095 47.0955C127.095 47.032 127.083 46.9736 127.078 46.9238L125.956 46.9994C125.371 47.0388 124.789 47.0835 124.23 47.1315C123.67 47.1796 123.194 47.226 122.792 47.2723L122.514 47.2964L122.412 49.377C122.329 51.2655 122.24 52.7367 122.127 53.7599C122.008 54.8998 121.82 55.7204 121.554 56.2681C121.277 56.8884 120.78 57.3853 120.158 57.6638C119.604 57.9076 118.849 58.0483 117.857 58.0861C117.645 58.093 117.436 58.1016 117.241 58.1016ZM124.818 30.6834C124.727 31.0267 124.636 31.381 124.544 31.7461C124.316 32.6439 124.152 33.365 124.059 33.8903C123.866 34.965 123.639 36.4654 123.384 38.3435C123.128 40.2216 122.958 41.6895 122.878 42.6869L122.856 42.9307C123.073 42.9307 123.325 42.9101 123.61 42.8877C123.995 42.8551 124.323 42.8242 124.615 42.795C125.595 42.6491 126.213 42.5478 126.601 42.4757C126.579 42.1942 126.541 41.7976 126.481 41.238C126.377 40.2886 126.206 39.0062 125.975 37.4354C125.744 35.8645 125.488 34.3349 125.236 32.8705C125.086 32.0207 124.946 31.2894 124.818 30.6834Z" fill="#37271B"/>
<path d="M158.817 57.2776C157.815 57.2776 157.447 57.2278 157.238 57.1831L157.185 57.1711L157.131 57.154C156 56.7866 155.286 56.3505 154.887 55.7806C154.675 55.4904 154.551 55.0819 154.459 54.3797C154.39 53.8647 154.331 53.0818 154.286 52.0054C153.865 44.2938 153.636 37.1195 153.596 30.6852L153.544 22.9032L154.345 22.2954C154.913 21.8165 155.774 21.5298 157.055 21.3924C157.939 21.3066 159.183 21.2654 160.87 21.2654H162.38C163.783 21.2825 164.797 21.3014 165.499 21.3272C166.035 21.3354 166.57 21.3761 167.101 21.4491C167.455 21.5028 167.798 21.6141 168.116 21.7787C168.957 22.225 169.386 22.7916 169.386 23.4577C169.386 23.8353 169.238 24.3864 168.534 24.8808C168.162 25.1187 167.738 25.2636 167.298 25.3032C166.648 25.37 165.995 25.3976 165.342 25.3856C164.725 25.4004 164.166 25.4125 163.664 25.4216H163.124V30.8671C163.124 32.6199 163.136 34.4294 163.16 36.2457C163.185 38.1049 163.214 39.4492 163.245 40.3539L163.311 42.438H164.379C165.242 42.438 165.882 42.4603 166.314 42.505C166.775 42.5425 167.226 42.6635 167.643 42.862C167.955 43.0166 168.9 43.4869 168.9 44.438C168.9 45.1385 168.411 45.705 167.45 46.1222C167.084 46.2938 166.428 46.4655 164.379 46.4655H163.462L163.516 47.8166C163.549 48.5033 163.585 49.2277 163.626 49.9848C163.668 50.7419 163.702 51.3582 163.735 51.8372L163.771 52.4363L165.292 52.378C166 52.3454 166.614 52.3299 167.111 52.3299C167.985 52.3299 168.542 52.3797 168.917 52.493C170.6 52.9754 170.852 53.9557 170.852 54.4982C170.852 54.6192 170.84 54.74 170.816 54.8587C170.617 56.3849 168.444 56.711 166.119 56.8346C165.473 56.8673 164.786 56.9119 164.073 56.9668C163.361 57.0218 162.753 57.075 162.296 57.1231C161.321 57.2234 160.341 57.2733 159.361 57.2724L158.817 57.2776Z" fill="#37271B"/>
<path d="M174.618 58.1017C174.004 58.1165 173.392 58.0336 172.804 57.8562L172.783 57.8545L172.758 57.8442C171.561 57.3772 170.743 56.5292 170.393 55.3944V55.3686V55.3429C170.194 54.5515 170.073 53.2261 170.022 51.2897C170.004 50.4982 169.996 49.6605 169.996 48.7918C169.996 47.6467 170.025 46.2167 170.082 44.5394C170.139 42.8621 170.268 41.1402 170.467 39.4853C170.852 36.2232 171.545 33.0044 172.537 29.8715C173.517 26.8792 174.566 24.7865 175.745 23.4698L175.763 23.4509L175.78 23.4337C176.935 22.2649 178.41 21.459 180.021 21.1161C180.616 20.9895 181.222 20.9245 181.83 20.9221C182.842 20.9213 183.845 21.1172 184.782 21.4989C186.119 21.9728 187.186 23.099 187.956 24.8466C188.66 26.4466 189.228 29.0303 189.692 32.7436C190.139 36.3213 190.604 41.499 191.073 48.1497C191.168 49.4854 191.246 50.6218 191.305 51.5249C191.363 52.4279 191.398 53.1369 191.415 53.6759C191.432 53.9558 191.441 54.2013 191.441 54.4262C191.441 54.651 191.431 54.8708 191.413 55.1129C191.398 55.3873 191.339 55.6578 191.241 55.9146C191.129 56.2129 190.924 56.4683 190.657 56.6442C190.046 57.0648 189.276 57.276 188.355 57.276H187.721C187.098 57.276 186.466 57.0322 185.843 56.5515L185.814 56.5274C185.629 56.3757 185.473 56.1933 185.351 55.9884C185.214 55.7392 185.126 55.4666 185.091 55.185C185.053 54.9566 185.018 54.6373 184.984 54.2098C184.949 53.7824 184.918 53.2708 184.885 52.5755C184.82 51.6599 184.751 50.6991 184.678 49.6931C184.607 48.7077 184.538 47.8321 184.473 47.0905C184.473 47.027 184.461 46.9686 184.455 46.9188L183.333 46.9944C182.748 47.0338 182.167 47.0785 181.607 47.1265C181.048 47.1746 180.572 47.221 180.169 47.2673L179.892 47.2914L179.79 49.372C179.707 51.2605 179.617 52.7334 179.505 53.7549C179.386 54.8948 179.198 55.7137 178.934 56.2631C178.655 56.8831 178.158 57.3799 177.535 57.6588C176.981 57.9026 176.227 58.0433 175.234 58.0811C175.027 58.0931 174.813 58.1017 174.618 58.1017ZM182.196 30.6835C182.104 31.0269 182.013 31.384 181.92 31.7462C181.692 32.6441 181.53 33.3651 181.436 33.8904C181.243 34.9617 181.017 36.4655 180.761 38.3437C180.506 40.2218 180.335 41.6913 180.256 42.6853L180.233 42.9308C180.451 42.9308 180.703 42.9102 180.988 42.8879C181.371 42.8553 181.7 42.8244 181.992 42.7952C182.973 42.6493 183.591 42.548 183.979 42.4759C183.956 42.1943 183.919 41.7978 183.858 41.2381C183.755 40.2887 183.584 39.0063 183.351 37.4355C183.118 35.8647 182.871 34.3316 182.614 32.8707C182.463 32.0209 182.324 31.2896 182.196 30.6835Z" fill="#37271B"/>
<path d="M197.639 57.3993C197.051 57.4104 196.463 57.3528 195.887 57.2276H195.853C194.596 56.8843 193.885 56.4414 193.562 55.8062C193.347 55.4371 193.162 54.7349 193.06 51.5057C192.986 49.219 192.95 45.4971 192.95 40.4344C192.95 25.6876 193.279 23.667 193.564 23.085C193.669 22.7461 193.855 22.4375 194.106 22.1854C194.394 21.917 194.723 21.6961 195.081 21.5313L195.112 21.5159C195.965 21.1578 196.885 20.9857 197.81 21.0112H197.957C198.866 20.9999 199.769 21.1517 200.624 21.4592C201.466 21.7732 202.214 22.2955 202.797 22.9768C203.413 23.6635 204.15 24.824 205.041 26.5288C205.904 28.1545 207.099 30.5975 208.607 33.7923L209.574 35.8816L210.031 34.5906C211.025 31.7872 212.102 29.0369 213.25 26.4172C214.818 22.8206 215.413 21.9056 215.757 21.5107L215.815 21.4438L215.886 21.3871C216.513 20.8721 217.338 20.6232 218.342 20.6232L219.043 20.6352C219.694 20.6489 220.367 20.9202 221.047 21.4438L221.988 22.2094L221.864 39.1331C221.846 41.0216 221.839 42.7383 221.839 44.2387C221.822 46.6696 221.806 48.6519 221.789 50.1855C221.774 51.7306 221.739 52.9564 221.691 53.8199C221.636 54.7813 221.544 55.4422 221.403 55.8972C221.187 56.5839 220.826 57.0216 220.329 57.2019L220.295 57.2139L220.258 57.2242C220.039 57.2846 219.813 57.3147 219.585 57.3135C219.421 57.3123 219.256 57.3014 219.093 57.2809H219.062H219.033C218.885 57.2564 218.735 57.2455 218.586 57.2482C218.108 57.26 217.629 57.2347 217.155 57.1727C216.754 57.1122 216.38 56.9327 216.083 56.6577L215.38 56.0534L215.406 44.1907C215.422 42.522 215.43 41.0748 215.43 39.758C215.43 39.3002 215.43 38.831 215.43 38.3503L214.655 40.5494C214.246 41.7031 213.927 42.5718 213.682 43.2053C213.423 43.8748 213.219 44.3572 213.057 44.6782C212.911 45.0039 212.708 45.301 212.456 45.5555C212.27 45.7271 212.049 45.8581 211.809 45.94L211.712 45.9898L211.662 46.007C211.07 46.2181 210.445 46.3222 209.815 46.3143L209.216 46.3023C208.704 46.2757 208.201 46.1558 207.732 45.9486C207.656 45.9244 207.583 45.8922 207.514 45.8525C207.288 45.7501 207.078 45.6153 206.891 45.4525C206.609 45.1813 206.376 44.8643 206.201 44.5151C205.996 44.1529 205.728 43.6035 205.381 42.8344C205.048 42.1031 204.592 41.0874 204.011 39.7872L203.865 39.4954L203.855 39.4748C203.51 38.716 203.165 37.9297 202.792 37.1486V38.8859C202.775 42.3434 202.718 45.631 202.619 48.6611C202.519 51.7512 202.414 53.7014 202.293 54.6027C202.238 55.2157 201.99 55.7959 201.585 56.2611C201.162 56.6812 200.633 56.9806 200.054 57.1281C199.361 57.3139 198.646 57.4097 197.928 57.413H197.639V57.3993Z" fill="#37271B"/>
<path d="M42.8748 16.8242C42.7191 16.8238 42.5642 16.8031 42.414 16.7624C42.0341 16.6595 41.6916 16.4511 41.4266 16.1616C41.274 15.9951 41.1461 15.8078 41.0469 15.6053L40.9692 15.4337L40.9105 15.262V15.2345C40.8762 15.1142 40.8514 14.9913 40.8363 14.8671C40.779 14.3838 40.8467 13.8939 41.0331 13.4439C41.1945 13.0494 41.4157 12.6818 41.689 12.3538C41.7977 12.2199 41.9117 12.0877 42.0239 11.9607C42.1084 11.8628 42.1965 11.7684 42.2672 11.6757C42.3242 11.6068 42.3762 11.534 42.4226 11.4577C42.4709 11.3807 42.5136 11.3004 42.5503 11.2173C42.6963 10.8943 42.7603 10.5406 42.7367 10.1873C42.7115 9.88154 42.6283 9.5833 42.4916 9.3083C42.3814 9.08947 42.2563 8.87839 42.1171 8.67654C41.8944 8.34693 41.4819 7.73405 41.8961 7.08512C42.0039 6.92098 42.1518 6.7868 42.326 6.6952C42.5003 6.6036 42.6951 6.5576 42.8921 6.56151C43.1493 6.5675 43.4025 6.62593 43.636 6.73318C44.1297 6.96613 44.5654 7.30502 44.9116 7.72546C45.4081 8.31672 45.7401 9.02699 45.8748 9.78556C46.0375 10.7149 45.9173 11.6714 45.5296 12.5324C45.4285 12.7605 45.3084 12.9799 45.1706 13.1881C45.0408 13.386 44.8959 13.5737 44.7373 13.7495C44.5647 13.9504 44.3921 14.1135 44.2402 14.2645C44.1763 14.3264 44.1159 14.3847 44.0676 14.4362L44.0538 14.45C43.9513 14.5451 43.8609 14.6524 43.7845 14.7693C43.9032 14.8729 44.0001 14.999 44.0694 15.1401C44.1387 15.2813 44.1792 15.4348 44.1884 15.5916C44.1992 15.8337 44.1331 16.073 43.9996 16.2758C43.8661 16.4785 43.6719 16.6343 43.4444 16.7212C43.2632 16.7922 43.0696 16.8272 42.8748 16.8242Z" fill="#37271B"/>
<path d="M49.0214 13.2378C48.8155 13.2356 48.6131 13.1844 48.4311 13.0885L48.4121 13.0782C48.2037 12.9708 48.0138 12.8312 47.8494 12.6644C47.394 12.2122 47.0471 11.6635 46.8345 11.0593L46.8224 11.0215C46.7574 10.8453 46.7032 10.6653 46.6601 10.4825C46.6104 10.2835 46.5729 10.0817 46.5479 9.87817V9.82152C46.4936 9.34299 46.5012 8.85951 46.5704 8.38288C46.6524 7.8421 46.8141 7.31628 47.0502 6.82236L47.1106 6.70562C47.1504 6.62494 47.2021 6.52365 47.2677 6.41721L47.4921 6.07386L47.5059 6.05326C47.6647 5.83352 47.8235 5.64639 47.9858 5.45583C48.1727 5.25558 48.3403 5.03831 48.4864 4.8069C48.5038 4.773 48.5155 4.73645 48.5209 4.69875C48.5301 4.62292 48.5301 4.54625 48.5209 4.47042C48.498 4.23089 48.4524 3.99406 48.3845 3.76312C48.3236 3.53424 48.2481 3.30947 48.1584 3.09015C48.0211 2.78309 47.8667 2.48391 47.6958 2.19401L47.6199 2.06182C47.4231 1.71847 47.0071 0.988857 47.5767 0.363962C47.6816 0.248724 47.8098 0.156758 47.9529 0.0940515C48.0959 0.0313449 48.2506 -0.000697085 48.407 1.15008e-05C48.7887 0.0204918 49.1544 0.159148 49.453 0.39658C49.944 0.75113 50.3667 1.19077 50.7009 1.69444C50.9258 2.02591 51.1178 2.37836 51.274 2.74681C51.4665 3.18579 51.6022 3.64726 51.6779 4.1202C51.7264 4.43428 51.7369 4.75301 51.709 5.06956C51.6748 5.43733 51.5816 5.79727 51.4328 6.13566C51.1892 6.64621 50.8704 7.11777 50.4869 7.53481L50.4697 7.5537C50.3488 7.69447 50.2349 7.82838 50.1451 7.94511L50.0122 8.14082C50.0122 8.14941 49.9967 8.17173 49.9846 8.19233C49.9725 8.21293 49.9501 8.25585 49.9311 8.28675C49.8199 8.50484 49.7353 8.73538 49.6791 8.97344C49.6304 9.1993 49.6032 9.42922 49.598 9.66014V9.73225C49.5939 9.80773 49.5939 9.88337 49.598 9.95886V9.99663V10.0344C49.6024 10.104 49.6105 10.1733 49.6221 10.2421L49.6359 10.3314C49.6937 10.6612 49.788 10.9837 49.9173 11.2928L49.9259 11.3185L49.9346 11.3443C49.9501 11.3889 49.9656 11.4284 49.9794 11.4644C50.0212 11.5677 50.0553 11.6738 50.0813 11.782C50.14 11.9886 50.1398 12.2074 50.0806 12.4139C50.0215 12.6203 49.9058 12.8064 49.7464 12.9511C49.5479 13.1312 49.2901 13.2332 49.0214 13.2378Z" fill="#37271B"/>
<path d="M54.3483 17.3804C54.0467 17.3787 53.7572 17.2627 53.5387 17.056C53.3478 16.8746 53.2034 16.6503 53.1176 16.4019C53.0268 16.1415 52.9841 15.867 52.9915 15.5916C53.0034 15.2871 53.0616 14.9861 53.1642 14.6989C53.2679 14.4058 53.4058 14.1258 53.575 13.8645C53.6609 13.7312 53.7542 13.6029 53.8546 13.48C53.8839 13.4405 53.9254 13.3924 53.9668 13.3444L54.0203 13.2826L54.148 13.1418C54.2689 13.0096 54.388 12.8894 54.5036 12.771C54.6921 12.5895 54.8674 12.395 55.0284 12.189C55.0542 12.1512 55.0801 12.11 55.1078 12.0602C55.1354 12.0105 55.1337 11.9984 55.1388 11.983C55.157 11.9194 55.164 11.8532 55.1595 11.7873C55.1524 11.6633 55.1092 11.544 55.0353 11.4439C54.938 11.317 54.8262 11.2018 54.7021 11.1006C54.4795 10.9014 54.0117 10.4894 54.1411 9.83191C54.2274 9.3804 54.6331 8.86023 55.5013 8.86023H55.5807C56.1367 8.89523 56.6689 9.09761 57.1066 9.44049C57.4 9.66369 57.6513 9.93688 57.8488 10.2474C58.0726 10.6005 58.2272 10.9925 58.3045 11.4027C58.392 11.8535 58.3862 12.3174 58.2873 12.7658C58.235 13.0018 58.1586 13.2319 58.0594 13.4525L58.049 13.4714C57.9518 13.678 57.8363 13.8757 57.7038 14.062C57.4824 14.3697 57.2283 14.6528 56.9461 14.9066C56.7614 15.0783 56.5888 15.2191 56.4282 15.3461L56.2142 15.5178L56.1296 15.5899C56.064 15.6517 56.0105 15.6997 55.957 15.7495C55.87 15.8365 55.7892 15.9294 55.7153 16.0276C55.6674 16.091 55.6246 16.1582 55.5876 16.2285C55.5583 16.2869 55.5324 16.3452 55.5134 16.4002L55.4961 16.45C55.4098 16.6869 55.2303 17.1796 54.659 17.3513C54.5538 17.3831 54.4444 17.3993 54.3345 17.3993L54.3483 17.3804Z" fill="#37271B"/>
<path d="M48.3603 55.2792C47.0174 55.2792 46.7016 54.6714 46.6342 54.2714C46.5455 54.1369 46.4856 53.9856 46.4583 53.827C46.4309 53.6683 46.4368 53.5058 46.4754 53.3496C46.6118 52.7796 47.0968 52.4294 47.3747 52.2714C47.7023 52.0848 48.0726 51.9849 48.4501 51.9813C48.7784 51.9742 49.1002 52.0737 49.3667 52.2646C49.5099 52.371 49.7965 52.5616 49.9777 52.6697C50.179 52.7793 50.3469 52.9407 50.4639 53.137C50.5809 53.3334 50.6426 53.5574 50.6426 53.7856C50.6426 54.0138 50.5809 54.2378 50.4639 54.4342C50.3469 54.6305 50.179 54.7919 49.9777 54.9015C49.5393 55.1624 48.8488 55.2792 48.3603 55.2792Z" fill="#37271B"/>
<path d="M43.3546 55.4835C43.2581 55.4835 43.1619 55.472 43.0681 55.4492C42.4139 55.2861 41.9738 54.7917 41.9738 54.2165C41.9875 53.9667 42.0198 53.7183 42.0704 53.4732C42.1382 53.1866 42.2729 52.9199 42.4636 52.6947C42.6544 52.4695 42.8957 52.2922 43.1682 52.1771C43.566 52.032 43.9856 51.9548 44.4093 51.9487C44.6321 51.9456 44.8513 52.0055 45.0411 52.1217C45.2309 52.2378 45.3836 52.4053 45.4812 52.6045C45.6538 52.9668 45.7246 53.5728 45.0618 54.3968C44.7355 54.802 44.0796 55.4835 43.3546 55.4835Z" fill="#37271B"/>
<path d="M56.2711 32.9049C56.1258 32.9064 55.9809 32.8902 55.8396 32.8568C55.1854 32.6937 54.7452 32.1976 54.7452 31.6242C54.7589 31.3744 54.7912 31.1259 54.8419 30.8809C54.9097 30.5943 55.0444 30.3276 55.2351 30.1024C55.4259 29.8772 55.6672 29.6998 55.9397 29.5847C56.3375 29.4396 56.7571 29.3624 57.1808 29.3564C57.3924 29.3542 57.6013 29.4038 57.7891 29.5008C57.977 29.5978 58.1379 29.7392 58.2579 29.9126C58.3966 30.1264 58.4806 30.3706 58.5026 30.6241C58.5245 30.8775 58.4838 31.1325 58.3839 31.3667C58.1871 31.8817 57.7383 32.5135 57.1756 32.7401C56.8867 32.8492 56.5802 32.9051 56.2711 32.9049Z" fill="#37271B"/>
<path d="M40.9778 52.402C40.6396 52.4059 40.3074 52.3123 40.0216 52.1324C39.7316 51.9396 39.5305 51.6402 39.4622 51.3001C39.3939 50.9599 39.4641 50.6066 39.6574 50.3179C39.7946 50.1227 39.9777 49.9638 40.1906 49.8549C40.4036 49.746 40.64 49.6904 40.8794 49.693C40.9999 49.6925 41.1199 49.7069 41.2368 49.7359C41.4891 49.7978 41.7228 49.9195 41.9178 50.0904C42.1128 50.2614 42.2635 50.4766 42.357 50.7178C42.4099 50.8785 42.4291 51.0482 42.4134 51.2166C42.3977 51.3849 42.3473 51.5482 42.2655 51.6964C42.1734 51.8607 42.0484 52.0045 41.8982 52.1188C41.7479 52.2331 41.5757 52.3154 41.3921 52.3608C41.2561 52.3905 41.1171 52.4043 40.9778 52.402Z" fill="#37271B"/>
<path d="M41.9012 49.4114C41.5793 49.4143 41.2693 49.2909 41.0382 49.068C40.8573 48.8798 40.7312 48.6462 40.6734 48.3922C40.6156 48.1382 40.6284 47.8733 40.7102 47.626C40.9087 47.0354 41.506 46.7213 41.9565 46.632C42.0634 46.611 42.172 46.6001 42.281 46.5994C43.0249 46.5994 43.5842 47.1144 43.5842 47.8011C43.5842 48.3522 43.2096 48.8311 42.8592 49.0886C42.5832 49.296 42.2472 49.4092 41.9012 49.4114Z" fill="#37271B"/>
<path d="M56.2193 51.7341C55.8973 51.7376 55.5871 51.6142 55.3563 51.3908C55.1754 51.2029 55.0492 50.9696 54.9915 50.7159C54.9337 50.4621 54.9464 50.1975 55.0283 49.9504C55.2251 49.3599 55.8223 49.0457 56.2746 48.9564C56.3814 48.9346 56.4901 48.9237 56.5991 48.9238C57.3413 48.9238 57.9023 49.4389 57.9023 50.1256C57.9023 50.6766 57.5277 51.1556 57.1756 51.4148C56.903 51.6234 56.5701 51.739 56.2262 51.7444L56.2193 51.7341Z" fill="#37271B"/>
<path d="M45.3776 48.7333C45.1732 48.7412 44.97 48.6982 44.7864 48.6082C44.6029 48.5183 44.4448 48.3843 44.3264 48.2183C44.1999 48.017 44.1151 47.7925 44.0772 47.5581C44.0392 47.3237 44.0489 47.0841 44.1055 46.8535C44.1749 46.6114 44.2932 46.3859 44.4532 46.1908C44.6131 45.9957 44.8114 45.8351 45.0359 45.7187C45.3495 45.5613 45.693 45.4712 46.0439 45.4543H46.51C46.8194 45.467 47.116 45.5806 47.354 45.7777C47.592 45.9747 47.7582 46.2442 47.827 46.5445C47.9996 47.2398 47.537 47.9385 46.5842 48.4123C46.2102 48.6076 45.7978 48.7195 45.3759 48.7402L45.3776 48.7333Z" fill="#37271B"/>
<path d="M40.2184 29.9091C40.0074 29.9117 39.7998 29.8555 39.6192 29.7469C39.4386 29.6383 39.2922 29.4816 39.1965 29.2945C39.0408 28.9218 39.0129 28.5085 39.1171 28.1185C39.2542 27.7049 39.4532 27.3143 39.7075 26.9597L39.7592 26.8859L40.4497 26.1992L40.7276 26.1305C40.8885 26.0908 41.0537 26.0706 41.2195 26.0704C41.91 26.0704 42.4968 26.4275 42.7178 26.9803C42.9888 27.6533 42.7937 28.4018 42.2534 28.7606C42.1413 28.8361 41.9082 29.0009 41.7563 29.1142L41.1332 29.5795C40.8713 29.7834 40.5508 29.8989 40.2184 29.9091Z" fill="#37271B"/>
<path d="M42.2309 32.649C42.0689 32.6455 41.9091 32.6099 41.761 32.5443C41.613 32.4787 41.4795 32.3844 41.3685 32.2669C41.2574 32.1494 41.171 32.0111 41.1143 31.8601C41.0576 31.709 41.0317 31.5483 41.0382 31.3872C41.0382 30.7005 41.5992 30.2335 42.0739 30.043C42.283 29.9562 42.5067 29.9096 42.7332 29.9056C42.8813 29.9008 43.0289 29.9254 43.1672 29.9781C43.3056 30.0307 43.4321 30.1103 43.5391 30.2121C43.6462 30.314 43.7317 30.436 43.7908 30.5712C43.8498 30.7063 43.8811 30.8519 43.8828 30.9992V31.3099C43.8715 31.5828 43.7748 31.8453 43.6061 32.0607C43.4375 32.2762 43.2053 32.4339 42.9421 32.5117C42.7128 32.5906 42.4733 32.6369 42.2309 32.649Z" fill="#37271B"/>
<path d="M44.1159 26.1941C43.96 26.1987 43.8048 26.1723 43.6593 26.1166C43.5138 26.0608 43.3809 25.9768 43.2684 25.8694C43.1559 25.762 43.0661 25.6333 43.0041 25.491C42.9422 25.3487 42.9094 25.1955 42.9076 25.0405C42.9076 24.5495 43.2528 23.9898 43.3944 23.7718C43.5731 23.4992 43.7721 23.2404 43.9899 22.9975C44.1038 22.8865 44.2387 22.7989 44.3869 22.74C44.535 22.6811 44.6934 22.6519 44.8529 22.6542C45.1975 22.6602 45.531 22.7764 45.804 22.9855C46.1733 23.267 46.4435 23.6577 46.5756 24.1014C46.6442 24.3513 46.6485 24.6143 46.5882 24.8663C46.5279 25.1183 46.4048 25.3511 46.2304 25.5435C45.901 25.8379 45.4736 26.0006 45.0307 26.0001C44.9228 26.0158 44.8169 26.0428 44.7148 26.0808C44.5243 26.1591 44.3203 26.1999 44.1141 26.201L44.1159 26.1941Z" fill="#37271B"/>
<path d="M46.888 26.3984C46.7397 26.4005 46.5925 26.3732 46.455 26.3181C46.3175 26.263 46.1924 26.1811 46.0871 26.0773C45.9675 25.9578 45.8781 25.8117 45.8262 25.6512C45.7743 25.4907 45.7614 25.3202 45.7884 25.1537C45.8193 24.9653 45.8984 24.788 46.018 24.6387L46.0715 24.4807C46.1147 24.3468 46.3632 23.6636 46.8673 23.3305C47.0346 23.217 47.2275 23.1463 47.4288 23.1246C47.6302 23.103 47.8338 23.1311 48.0216 23.2065C48.2094 23.2819 48.3756 23.4023 48.5055 23.5569C48.6353 23.7115 48.7248 23.8955 48.766 24.0928C48.8219 24.3233 48.831 24.5626 48.7928 24.7966C48.7546 25.0307 48.6698 25.2548 48.5433 25.4559C48.3174 25.765 48.0218 26.0173 47.6803 26.1923C47.4372 26.3181 47.1688 26.3879 46.8949 26.3966L46.888 26.3984Z" fill="#37271B"/>
<path d="M52.9915 57.3993C52.4012 57.3993 51.5865 57.3907 50.5042 57.3753C49.995 57.3753 49.5497 57.3513 49.1786 57.3272C49.006 57.3375 48.8023 57.3444 48.5831 57.3495C47.9202 57.3667 46.9312 57.3822 45.6401 57.3993H44.777C41.4974 57.3993 40.5394 57.2843 40.101 57.1813C39.1844 57.0096 38.513 56.6388 38.1073 56.0654C37.7397 55.5504 37.5308 54.783 37.4514 53.662C37.4169 53.1264 37.3841 51.4096 37.353 48.4053C37.3202 45.4868 37.3047 41.9521 37.3047 37.9177V36.3726C37.3047 33.5778 37.3047 31.3941 37.3168 29.6859C37.3168 27.9451 37.3444 26.558 37.3772 25.5657C37.41 24.5357 37.46 23.782 37.5308 23.2824C37.6188 22.6472 37.7638 22.2043 37.9848 21.8902C38.1795 21.6103 38.4276 21.3711 38.7149 21.1863L38.8254 21.1142H38.8357C39.2192 20.8509 39.6464 20.6568 40.0975 20.5408C40.729 20.398 41.3731 20.3169 42.0204 20.2987C42.8075 20.2575 43.9588 20.2283 45.4398 20.2112H47.8391C48.388 20.2112 48.8403 20.2112 49.182 20.2335C49.5273 20.218 49.976 20.2112 50.5249 20.2112H52.9121C54.407 20.2283 55.5565 20.2575 56.3419 20.2987C56.9899 20.3168 57.6345 20.3979 58.2665 20.5408C58.7343 20.6608 59.176 20.865 59.5697 21.1434L59.644 21.1966L59.6699 21.2241C59.9131 21.3836 60.1288 21.5813 60.3085 21.8095C60.5554 22.1236 60.7142 22.5528 60.8074 23.1606C60.8781 23.6206 60.9316 24.2902 60.98 25.2103C61.0197 26.0962 61.0456 27.3305 61.0542 28.8756C61.0628 30.4207 61.0732 32.3795 61.0887 34.7692V35.4404C61.106 37.1366 61.1129 38.7847 61.1129 40.328C61.1129 41.8714 61.1129 43.7375 61.0887 45.9933C61.0732 48.1924 61.0404 49.9057 60.9921 51.0869C60.9437 52.5461 60.8781 53.6053 60.7936 54.3229C60.6883 55.2053 60.4984 55.8045 60.1963 56.2113C59.8399 56.6665 59.3351 56.984 58.7688 57.1092C58.4547 57.1865 57.8074 57.2929 55.6998 57.3616C54.804 57.3822 53.8909 57.3993 52.9915 57.3993ZM52.8517 51.674H53.4731L53.5059 49.4525V47.013C53.5163 44.4379 53.5215 42.3194 53.5215 40.5512V38.7984C53.5128 36.7005 53.5059 34.8001 53.5059 34.5786C53.5059 34.3572 53.5059 32.043 53.4904 29.4284L53.4818 26.4533C53.4819 26.3958 53.4778 26.3385 53.4697 26.2816V26.2473C53.4605 26.1318 53.4432 26.017 53.4179 25.9039H52.8586C52.579 25.9039 52.1147 25.9039 51.854 25.9039H51.7988C51.6935 25.9039 51.3863 25.9039 51.1084 25.9039L50.7476 25.9228H50.7183H49.8449H49.2752C49.2476 26.1906 49.2235 26.5528 49.22 26.9975V28.328C49.22 30.2816 49.22 31.2464 49.22 31.2464C49.22 33.8593 49.22 36.3967 49.22 36.8877C49.22 37.3786 49.22 39.916 49.22 42.5272C49.22 42.5666 49.22 46.4757 49.2424 49.7804V50.9942C49.2437 51.224 49.2616 51.4535 49.296 51.6809L50.1159 51.6603L50.7407 51.6431L50.7597 51.6791L51.5485 51.6517L51.8092 51.6328L52.0077 51.6517L52.8517 51.674Z" fill="#37271B"/>
<path d="M52.9916 57.3995C52.4012 57.3995 51.5865 57.3909 50.5042 57.3754C49.995 57.3754 49.5497 57.3514 49.1786 57.3274C49.006 57.3377 48.8023 57.3445 48.5831 57.3497C47.9203 57.3668 46.9312 57.3823 45.6401 57.3995H44.777C41.4974 57.3995 40.5394 57.2844 40.101 57.1814C39.1844 57.0098 38.513 56.6389 38.1073 56.0656C37.7397 55.5505 37.5308 54.7831 37.4514 53.6621C37.4169 53.1265 37.3841 51.4097 37.353 48.4054C37.3202 45.5505 37.3047 42.1221 37.3047 38.2148V36.0311L39.0015 37.4251C41.3524 39.3565 43.17 40.802 44.8927 42.1084C46.1187 43.0596 47.3975 43.9417 48.7229 44.7505L49.2252 45.0492V45.6312C49.2252 46.8998 49.2356 48.3934 49.2425 49.7874V51.0012C49.2438 51.231 49.2616 51.4605 49.296 51.6879L50.1159 51.6673L50.7407 51.6501L50.7597 51.6861L51.5485 51.6587L51.8092 51.6398L52.0077 51.6587L52.8448 51.6844H53.4662L53.499 49.4647C53.499 49.4527 53.5094 46.7831 53.5094 46.7831L54.7073 46.9788C56.0057 47.1805 57.3184 47.2769 58.6325 47.2672C58.9277 47.2672 59.2349 47.2672 59.5456 47.2552L59.9754 47.2415L61.068 47.1986L61.0525 48.287C61.0335 49.408 61.0093 50.3471 60.98 51.0801C60.9317 52.5394 60.8661 53.5986 60.7815 54.3162C60.6762 55.1986 60.4863 55.7977 60.1843 56.2046C59.8278 56.6598 59.323 56.9773 58.7568 57.1025C58.4426 57.1797 57.7953 57.2862 55.6877 57.3548C54.804 57.3823 53.8909 57.3995 52.9916 57.3995Z" fill="#37271B"/>
<path d="M60.048 35.4404V34.776C60.033 32.3863 60.0215 30.4212 60.0134 28.8807C60.0054 27.3402 59.9812 26.1328 59.9409 25.2584C59.8995 24.3817 59.8472 23.7345 59.7839 23.3168C59.7581 23.0073 59.6587 22.7084 59.4939 22.4447C59.3608 22.277 59.1975 22.1355 59.0123 22.0275L58.964 21.9777C58.6722 21.7732 58.3451 21.6236 57.9991 21.5365C57.4368 21.4131 56.8641 21.343 56.2885 21.327C55.5163 21.287 54.3909 21.2584 52.9122 21.2412H50.525C49.9554 21.2412 49.5083 21.2412 49.1821 21.2635C48.8559 21.2498 48.4088 21.2412 47.8392 21.2412H45.452C43.9733 21.2584 42.8484 21.287 42.0774 21.327C41.5013 21.3431 40.928 21.4132 40.3651 21.5365C40.0191 21.6236 39.692 21.7732 39.4002 21.9777C39.367 22.0122 39.3254 22.0376 39.2794 22.0515C39.1053 22.1679 38.9552 22.3165 38.8375 22.4893C38.6783 22.7813 38.5835 23.1038 38.5596 23.4352C38.4952 23.893 38.4474 24.6175 38.4164 25.6086C38.3853 26.5997 38.364 27.9634 38.3525 29.6996C38.3433 31.437 38.3393 33.6647 38.3404 36.3829V37.928C38.3404 41.9578 38.3565 45.4485 38.3887 48.4001C38.421 51.3518 38.4526 53.0834 38.4837 53.595C38.5493 54.4963 38.7046 55.1229 38.9549 55.4749C39.2052 55.8268 39.6574 56.0603 40.3168 56.1753C40.8312 56.3058 42.3179 56.371 44.7771 56.371H45.6211C46.9226 56.3538 47.9007 56.3372 48.5555 56.3212C48.7885 56.3212 48.9974 56.3075 49.1838 56.2972C49.5498 56.3212 49.9945 56.3378 50.5181 56.347C51.571 56.363 52.395 56.371 52.9899 56.371C53.8898 56.371 54.7816 56.3544 55.6654 56.3212C57.1613 56.2731 58.1101 56.1999 58.5117 56.1015C58.8476 56.0327 59.1494 55.8508 59.3661 55.5864C59.5514 55.3415 59.6843 54.8791 59.7649 54.1993C59.8454 53.5195 59.9099 52.4671 59.9582 51.0422C60.0065 49.8622 60.0382 48.1752 60.0531 45.9812C60.0681 43.7872 60.0761 41.904 60.0773 40.3314C60.0715 38.7566 60.0618 37.1263 60.048 35.4404ZM54.5658 40.5615C54.5658 42.34 54.5658 44.4551 54.5503 47.0285V49.4783C54.5365 50.4242 54.5244 51.2791 54.5158 51.8662C54.5158 52.3607 54.5158 52.668 54.5158 52.6731C54.3774 52.6989 54.2371 52.7127 54.0963 52.7143H53.8996C53.7131 52.7143 53.2609 52.7143 52.8484 52.7143L52.2218 52.6954H51.9663L51.8179 52.68L51.628 52.6937C51.1015 52.7126 50.5923 52.7298 50.4939 52.7298H50.1936C50.185 52.7298 50.1781 52.7195 50.1677 52.704C49.5912 52.7195 49.0923 52.7298 48.9836 52.7298H48.5693C48.4727 52.7298 48.2379 51.9572 48.2241 51.013V49.801C48.2051 46.4551 48.2017 42.5426 48.2017 42.5426C48.2017 39.9297 48.2017 37.3924 48.2017 36.9014C48.2017 36.4104 48.2017 33.8713 48.2017 31.2601C48.2017 31.2601 48.2017 30.2936 48.2017 28.3417V27.0043C48.2103 25.8644 48.3501 24.9271 48.5124 24.9219C48.6746 24.9168 49.4755 24.903 49.8622 24.903H50.7477H51.1326C51.414 24.903 51.735 24.903 51.8455 24.903H51.8576C52.1217 24.903 52.5929 24.903 52.876 24.903H53.3248C53.6061 24.903 53.9462 24.903 54.0791 24.9116C54.212 24.9202 54.4554 25.4678 54.5192 26.1786C54.5317 26.2748 54.5381 26.3717 54.5382 26.4687V27.4112C54.5382 29.1812 54.5382 29.4438 54.5382 29.4438C54.5468 32.0567 54.5537 34.3743 54.5537 34.5941C54.5537 34.8138 54.5538 36.7142 54.5693 38.8138L54.5658 40.5615Z" fill="#997B5F"/>
<path d="M34.3306 21.54C34.3651 22.4728 34.383 23.6642 34.3841 25.1143V27.8834C34.3841 29.2453 34.3525 30.9832 34.2892 33.0971C34.2259 35.211 34.1494 36.8059 34.0596 37.8817C33.3577 45.4079 32.3036 50.64 30.8974 53.5779C30.0689 55.4423 28.6183 56.3739 26.5459 56.3728C26.3157 56.3728 26.0637 56.3642 25.7898 56.347C24.3318 56.2749 23.1431 55.6071 22.2237 54.3436C21.3042 53.08 20.5022 51.0331 19.8175 48.2028C19.6921 47.666 19.577 47.1865 19.4723 46.7641C19.3635 46.3435 19.2997 46.0877 19.2824 45.9985H19.2548C19.2191 45.9985 19.138 46.1822 19.0114 46.5495C18.8848 46.9169 18.741 47.4319 18.5799 48.0946C17.7329 51.321 16.9309 53.5527 16.1737 54.7899C15.7731 55.3444 15.2452 55.7958 14.634 56.1067C14.377 56.2459 14.1106 56.3669 13.8365 56.4689C13.5611 56.5592 13.2751 56.6134 12.9856 56.6303C12.6403 56.6577 12.1541 56.6801 11.527 56.6972H10.9056C9.78708 56.6972 8.99422 56.6165 8.52702 56.4552C6.97697 56.0077 5.72899 54.9553 4.78309 53.2981C3.83718 51.6408 3.06561 49.1716 2.46838 45.8903C1.94479 42.9535 1.54836 39.4508 1.27909 35.3821C1.11683 32.783 1.03571 30.3549 1.03571 28.098C1.03571 26.807 1.06275 25.5795 1.11683 24.4155C1.17092 23.2859 1.22845 22.4035 1.28944 21.7683C1.32379 21.2706 1.41885 20.7788 1.57253 20.3039C1.68535 19.9861 1.86147 19.6941 2.09036 19.4456C2.55871 18.942 3.27907 18.6192 4.25145 18.4773C4.62766 18.4239 5.0072 18.397 5.38723 18.3966C6.06557 18.4073 6.74062 18.4931 7.39987 18.6524C8.14785 18.8218 8.68409 19.1755 9.0086 19.7134C9.20538 20.0567 9.37626 20.6181 9.52643 21.4078C9.67661 22.1975 9.81987 23.4404 9.97177 25.1434C10.1237 26.8464 10.317 29.2465 10.5259 32.3538C10.7433 35.3627 11.023 38.3057 11.3647 41.183C11.7065 44.0603 12.0396 46.3046 12.3642 47.9161C12.4177 48.1478 12.4625 48.2594 12.4988 48.2594C12.5254 48.255 12.5494 48.2409 12.5661 48.2199C12.6715 47.9711 12.7575 47.7145 12.8233 47.4526C13.1835 46.4133 13.6024 44.8814 14.0799 42.8568C14.5575 40.8322 14.9988 38.7853 15.4038 36.716C15.81 34.6456 16.0759 33.037 16.2013 31.8902C16.2317 31.5436 16.286 31.1995 16.3636 30.8602C16.4098 30.641 16.4733 30.4257 16.5534 30.2164C16.7502 29.9303 17.1466 29.7151 17.7427 29.5709C18.1526 29.496 18.5687 29.4598 18.9855 29.4628C19.2548 29.4628 19.5344 29.4731 19.8227 29.4902C21.4268 29.6516 22.3365 30.055 22.5516 30.7005C22.5879 30.843 22.6552 31.3186 22.7553 32.1237C22.8554 32.9289 22.9573 33.88 23.066 34.9735C23.2962 37.2499 23.5165 39.1046 23.7271 40.5375C23.9377 41.9704 24.2035 43.4846 24.5246 45.08C24.8123 46.4774 25.1143 47.7627 25.4308 48.9358C25.6596 49.8438 25.9437 50.737 26.2818 51.6105L26.5787 52.2835L26.9239 51.2878C27.9147 48.4265 28.6713 44.2605 29.1937 38.7899C29.3732 36.7298 29.5171 33.9526 29.6252 30.4585C29.6805 28.2713 29.7075 26.3 29.7064 24.5443C29.7064 23.4879 29.6977 22.5117 29.6805 21.6155L29.5993 18.4704L30.3019 18.2009C30.8152 18.0305 31.354 17.9487 31.8951 17.9589C31.9503 17.9589 32.1747 17.9692 32.5717 17.9863C32.981 18.0064 33.3795 18.1242 33.7334 18.3297C33.8307 18.3918 33.9175 18.4689 33.9906 18.558C34.0701 18.684 34.1208 18.8258 34.139 18.9735C34.1861 19.2721 34.2178 19.5729 34.234 19.8747C34.2616 20.2868 34.2938 20.8418 34.3306 21.54Z" fill="#997B5F"/>
<path d="M154.551 17.9382C155.356 18.1362 155.852 18.4051 156.037 18.745C156.085 18.8166 156.113 18.8995 156.118 18.9854C156.118 19.2372 155.911 19.4792 155.497 19.7116C155.291 19.8226 155.066 19.8954 154.834 19.9262C154.373 19.9948 153.908 20.031 153.443 20.0343C152.811 20.0538 151.901 20.0715 150.712 20.0875L146.55 20.1425L146.659 20.9219C146.731 21.6372 146.795 23.7694 146.849 27.3185C146.866 29.6842 146.875 32.1477 146.875 34.7091V40.637C146.875 43.298 146.839 45.6585 146.768 47.7186C146.712 49.3495 146.658 50.6576 146.605 51.6431C146.552 52.6285 146.495 53.381 146.433 53.9006C146.401 54.2815 146.319 54.6566 146.189 55.0165C146.117 55.2054 145.99 55.369 145.825 55.4868C145.285 55.8634 144.501 56.1232 143.473 56.2663C143.115 56.3182 142.754 56.3452 142.392 56.3469C141.826 56.3531 141.263 56.2803 140.718 56.1306C139.672 55.8445 139.059 55.504 138.879 55.1092C138.649 54.7876 138.496 53.1853 138.42 50.3023C138.385 48.6542 138.366 46.3875 138.365 43.5022C138.365 41.3506 138.374 38.851 138.393 36.0035C138.429 32.0985 138.47 28.752 138.515 25.964C138.56 23.176 138.609 21.5771 138.664 21.1674L138.798 20.1184H135.282C133.408 20.1184 132.043 20.0646 131.188 19.9571C130.333 19.8495 129.779 19.6612 129.526 19.3923C129.387 19.2781 129.299 19.1139 129.282 18.9356C129.282 18.685 129.561 18.4521 130.119 18.2369C130.371 18.1413 130.635 18.0835 130.903 18.0652C131.283 18.0206 131.891 17.9851 132.727 17.9588C133.564 17.9325 134.749 17.9101 136.282 17.8918C137.813 17.8724 139.804 17.8455 142.254 17.8111C145.119 17.7917 147.434 17.7825 149.2 17.7837C150.082 17.7837 151.127 17.7882 152.334 17.7974C153.541 17.8066 154.28 17.8535 154.551 17.9382Z" fill="#997B5F"/>
<path d="M89.5126 22.2492L90.0476 22.6852L89.9268 39.1145C89.9096 41.0212 89.9009 42.7259 89.9009 44.2287C89.8848 46.6527 89.8687 48.6315 89.8526 50.1652C89.8365 51.6988 89.8043 52.8948 89.7559 53.7532C89.7412 54.3695 89.6596 54.9825 89.5126 55.5815C89.3975 55.9455 89.2513 56.1595 89.0741 56.2236C88.947 56.2581 88.8158 56.2749 88.684 56.2734C88.5616 56.2728 88.4394 56.2642 88.3181 56.2476C88.1088 56.2129 87.8968 56.1968 87.6846 56.1995C87.2654 56.2094 86.846 56.1893 86.4297 56.1395C86.2248 56.1131 86.033 56.0244 85.8808 55.8854L85.5166 55.5695L85.5408 44.1806C85.5569 42.5646 85.5649 41.0859 85.5649 39.7445C85.5649 38.4032 85.5609 36.9211 85.5529 35.2982C85.5437 33.6741 85.5316 32.8157 85.5166 32.723C85.4838 32.723 85.3854 32.9291 85.2232 33.3411C85.0609 33.7531 84.8659 34.2733 84.638 34.9033C84.5241 35.2467 84.4119 35.566 84.2928 35.8733C83.6749 37.6347 83.1674 39.0767 82.7704 40.1995C82.3734 41.3222 82.0558 42.1966 81.8176 42.8227C81.5736 43.4533 81.3786 43.9139 81.2324 44.2046C81.1385 44.4175 81.0109 44.614 80.8544 44.7866C80.7484 44.8832 80.6186 44.9502 80.4781 44.9806C80.4554 44.9995 80.4305 45.0157 80.4039 45.0287C79.9269 45.1965 79.4236 45.2785 78.9177 45.2707L78.3446 45.2587C77.9355 45.2314 77.5351 45.1283 77.164 44.9549C77.1546 44.9547 77.1454 44.9525 77.137 44.9483C77.1287 44.9442 77.1214 44.9382 77.1156 44.9308C76.9548 44.8686 76.8064 44.7785 76.6772 44.6647C76.4847 44.4686 76.3239 44.2439 76.2008 43.9986C76.0144 43.6667 75.7549 43.1334 75.4223 42.3986C75.0898 41.6639 74.6295 40.6418 74.0414 39.3325L73.8947 39.0424C73.5046 38.1703 73.1019 37.2936 72.6864 36.4123C72.271 35.5311 71.9419 34.8489 71.6991 34.366L70.8464 32.7179V38.8724C70.8292 42.3299 70.7716 45.5775 70.6738 48.615C70.576 51.6524 70.4701 53.5981 70.3562 54.4519C70.3275 54.8517 70.1742 55.2328 69.9178 55.542C69.6174 55.8254 69.248 56.026 68.8459 56.124C68.2414 56.2828 67.619 56.3642 66.9937 56.3661H66.7262C66.2188 56.3759 65.7119 56.3269 65.2159 56.2201C64.2734 55.9626 63.721 55.6559 63.5588 55.3C63.3793 55.0253 63.2533 53.7446 63.1808 51.4579C63.1083 49.1712 63.072 45.4922 63.072 40.4209C63.072 29.6627 63.2504 24.0163 63.6071 23.4818C63.659 23.2631 63.7686 23.0622 63.9247 22.8998C64.1351 22.7115 64.3732 22.5564 64.6307 22.4397C65.3478 22.1428 66.1207 22.0023 66.8971 22.0277H67.0438C67.8325 22.0156 68.6169 22.1465 69.3585 22.414C70.0398 22.6699 70.6437 23.0955 71.1122 23.65C71.6646 24.2646 72.3671 25.3794 73.2198 26.9943C74.0725 28.6091 75.2543 31.0166 76.7652 34.2166L77.8009 36.4587C78.1174 37.1454 78.3325 37.6095 78.4465 37.851L78.7917 38.6269L80.107 34.9188C81.0978 32.1262 82.1616 29.4252 83.2986 26.8157C84.4355 24.2063 85.2151 22.6612 85.6374 22.1805C86.0759 21.8257 86.6771 21.6483 87.4412 21.6483L88.123 21.6603C88.5465 21.6661 89.0097 21.8623 89.5126 22.2492Z" fill="#997B5F"/>
<path d="M111.173 35.0215C110.459 37.1857 108.989 39.3826 106.763 41.6121L105.277 43.116L105.862 43.4593C106.526 43.8655 107.153 44.3279 107.737 44.8413C108.302 45.3011 108.817 45.819 109.273 46.3864C110.004 47.5022 110.369 48.625 110.369 49.7546C110.366 50.4955 110.217 51.2287 109.931 51.9126C109.444 52.914 108.664 53.8147 107.592 54.6147C106.555 55.3969 105.369 55.9616 104.107 56.2748C103.526 56.3557 102.94 56.3959 102.353 56.395H101.549C100.996 56.395 100.375 56.383 99.6845 56.3589C99.1062 56.346 98.5294 56.2932 97.9584 56.201C96.9504 55.9915 96.2921 55.5795 95.9837 54.9649C95.6592 54.4476 95.4239 51.8227 95.2777 47.0902C94.9694 38.479 94.7421 33.188 94.5959 31.2172C94.5304 30.1986 94.4895 29.1319 94.4734 28.0172C94.4573 27.4678 94.4492 26.9528 94.4492 26.4721C94.4492 25.9914 94.4573 25.4341 94.4734 24.8C94.4655 24.3846 94.5066 23.9698 94.5959 23.5639C94.8388 23.0478 95.4717 22.6844 96.4947 22.4738C96.9839 22.376 97.4818 22.3271 97.9808 22.3279C98.5296 22.3297 99.0767 22.3872 99.6137 22.4996C99.9783 22.5945 100.348 22.6673 100.722 22.7176C101.13 22.7788 101.541 22.8189 101.953 22.8378C102.848 22.9176 103.735 23.0773 104.602 23.315C105.471 23.5376 106.316 23.8459 107.124 24.2352C108.998 25.2079 110.441 26.8412 111.168 28.8155C111.427 29.5914 111.557 30.6015 111.558 31.8455C111.582 32.917 111.452 33.9863 111.173 35.0215ZM106.251 31.4833V31.1674C106.251 29.9577 106.153 29.0329 105.959 28.3932C105.764 27.7534 105.342 27.1353 104.692 26.5391C104.412 26.2538 104.106 25.9941 103.779 25.7631C103.498 25.5725 103.189 25.4255 102.864 25.327C102.605 25.2464 102.369 25.1708 102.158 25.097C102.017 25.0519 101.879 24.9997 101.744 24.9408H101.695C101.663 24.9408 101.63 24.9888 101.597 25.085C101.578 25.2134 101.57 25.3432 101.573 25.473V25.988C101.573 26.2295 101.589 26.6976 101.621 27.3923C101.703 29.251 101.793 31.2664 101.89 33.4387C101.988 35.6109 102.069 37.295 102.134 38.491L102.255 40.3331L102.773 39.7271C102.935 39.5497 103.113 39.3437 103.308 39.1091C103.502 38.8745 103.675 38.6604 103.825 38.467C104.645 37.3755 105.309 36.1768 105.798 34.9048C105.928 34.5614 106.03 34.2627 106.104 33.9966C106.183 33.6831 106.228 33.3619 106.237 33.0387C106.244 32.661 106.251 32.1442 106.251 31.4816V31.4833ZM104.716 51.1589H104.692C104.788 50.762 104.838 50.3552 104.839 49.9469C104.816 49.2734 104.705 48.6056 104.509 47.9606C104.295 47.1775 103.85 46.4765 103.23 45.9486L102.498 45.3666L102.621 48.9546C102.653 49.9709 102.69 50.8688 102.731 51.643C102.773 52.4173 102.798 52.8877 102.816 53.049L102.938 53.5641L103.717 52.6903C104.237 52.1272 104.57 51.6167 104.716 51.1589Z" fill="#997B5F"/>
<path d="M132.664 48.2268C132.761 49.5842 132.839 50.707 132.895 51.5951C132.951 52.4832 132.988 53.1939 133.005 53.7273C133.021 53.9865 133.03 54.2217 133.03 54.4312C133.03 54.6406 133.021 54.826 133.005 55.0372C132.997 55.2064 132.964 55.3736 132.907 55.5333C132.872 55.6373 132.804 55.7267 132.712 55.7874C132.274 56.0953 131.698 56.2486 130.986 56.2475H130.352C129.962 56.2475 129.548 56.0758 129.11 55.7324C129.018 55.6576 128.939 55.5676 128.878 55.4664C128.808 55.3257 128.762 55.1742 128.744 55.0183C128.711 54.8157 128.68 54.517 128.647 54.1204C128.614 53.7239 128.581 53.1882 128.55 52.5101C128.485 51.5876 128.416 50.6223 128.343 49.614C128.271 48.6057 128.202 47.733 128.136 46.9959C128.07 46.2612 128.022 45.8697 127.989 45.8217L127.368 45.8577C126.969 45.8818 126.479 45.9144 125.894 45.9539C125.309 45.9933 124.727 46.0397 124.152 46.0878C123.577 46.1358 123.084 46.1839 122.678 46.232L121.532 46.3298L121.385 49.3101C121.304 51.1848 121.21 52.6269 121.106 53.6363C121.001 54.6457 120.843 55.3685 120.631 55.8046C120.459 56.2002 120.147 56.5196 119.754 56.7024C119.316 56.8958 118.665 57.0103 117.804 57.0458C117.608 57.0629 117.422 57.0698 117.244 57.0698C116.742 57.0841 116.24 57.0187 115.758 56.8758C114.847 56.521 114.262 55.9236 114.003 55.0835C113.824 54.3728 113.709 53.0967 113.657 51.2552C113.64 50.4632 113.632 49.6391 113.632 48.7831C113.632 47.6511 113.66 46.2457 113.718 44.5667C113.775 42.8877 113.901 41.2322 114.096 39.6002C114.479 36.409 115.164 33.2609 116.141 30.1975C117.068 27.3695 118.067 25.358 119.14 24.1632C120.153 23.1346 121.45 22.4264 122.866 22.1271C123.387 22.015 123.918 21.9574 124.451 21.9554C125.34 21.9547 126.22 22.1298 127.04 22.4705C128.111 22.8413 128.974 23.7741 129.629 25.2688C130.284 26.7635 130.836 29.3003 131.286 32.8791C131.733 36.4545 132.192 41.5704 132.664 48.2268ZM127.644 43.2826C127.666 43.2039 127.674 43.122 127.668 43.0405C127.668 42.735 127.616 42.0969 127.511 41.1264C127.406 40.1558 127.234 38.8757 126.993 37.286C126.763 35.694 126.516 34.1632 126.251 32.6937C125.986 31.2242 125.756 30.1094 125.561 29.3495C125.425 28.7397 125.246 28.1402 125.026 27.5555C124.96 27.3838 124.894 27.2894 124.831 27.2894C124.798 27.2894 124.765 27.322 124.732 27.3855C124.618 27.5795 124.449 28.0722 124.214 28.8877C123.98 29.7031 123.755 30.5649 123.524 31.4937C123.293 32.4225 123.122 33.1624 123.023 33.7117C122.829 34.7933 122.602 36.2914 122.341 38.2062C122.081 40.1209 121.909 41.587 121.824 42.6045L121.701 43.9624H122.676C122.953 43.9624 123.285 43.9458 123.674 43.9126C124.064 43.8817 124.415 43.8491 124.722 43.8165C126.493 43.5613 127.467 43.3833 127.644 43.2826Z" fill="#997B5F"/>
<path d="M168.613 53.4852C169.41 53.7141 169.808 54.0534 169.808 54.5032C169.807 54.5686 169.799 54.6337 169.784 54.6972C169.734 55.3118 168.491 55.6832 166.055 55.8114C165.404 55.844 164.716 55.8886 163.984 55.9453C163.252 56.0019 162.651 56.0551 162.182 56.1032C161.242 56.2 160.299 56.2481 159.354 56.2474H158.818C158.362 56.2617 157.906 56.2376 157.454 56.1753C156.56 55.8846 155.984 55.5533 155.728 55.1813C155.63 55.0531 155.549 54.7424 155.484 54.2491C155.42 53.7558 155.362 52.9925 155.312 51.959C154.888 44.2153 154.66 37.1229 154.628 30.6816L154.578 23.4112L154.992 23.097C155.383 22.7537 156.106 22.5248 157.162 22.4103C157.991 22.3314 159.225 22.2913 160.865 22.2902H162.375C163.741 22.305 164.769 22.3251 165.458 22.3502C165.947 22.3576 166.435 22.3943 166.92 22.4601C167.161 22.4944 167.394 22.5681 167.61 22.6781C168.099 22.9357 168.342 23.1932 168.342 23.4524C168.342 23.6458 168.204 23.8398 167.928 24.0344C167.69 24.1727 167.423 24.2555 167.148 24.2764C166.54 24.3376 165.93 24.3622 165.32 24.3503C164.704 24.3651 164.144 24.3772 163.639 24.3863C163.136 24.3863 162.794 24.3983 162.617 24.3983L162.08 24.4224V30.8687C162.08 32.6301 162.092 34.4276 162.116 36.261C162.14 38.0945 162.169 39.4719 162.202 40.3933L162.299 43.4697H164.37C165.199 43.4697 165.808 43.4903 166.198 43.5315C166.536 43.5573 166.865 43.6434 167.172 43.7855C167.632 44.0144 167.862 44.2325 167.862 44.4396C167.862 44.6989 167.578 44.9546 166.999 45.1916C166.692 45.3529 165.813 45.4336 164.369 45.4336H162.375L162.473 47.856C162.507 48.5507 162.543 49.278 162.582 50.0379C162.621 50.7979 162.658 51.4199 162.693 51.904L162.789 53.5023L165.323 53.4062C166.023 53.3741 166.616 53.3581 167.103 53.3581C167.85 53.365 168.353 53.4045 168.613 53.4852Z" fill="#997B5F"/>
<path d="M190.045 48.2267C190.144 49.584 190.221 50.7068 190.276 51.5949C190.331 52.483 190.369 53.1961 190.39 53.734C190.405 53.9932 190.414 54.2284 190.414 54.4378C190.414 54.6473 190.414 54.8327 190.39 55.0439C190.382 55.2131 190.349 55.3803 190.292 55.54C190.257 55.644 190.188 55.7334 190.096 55.7941C189.658 56.1019 189.083 56.2553 188.37 56.2542H187.737C187.347 56.2542 186.933 56.0825 186.494 55.7391C186.402 55.6643 186.324 55.5743 186.263 55.473C186.192 55.3324 186.147 55.1809 186.128 55.025C186.095 54.8224 186.064 54.5237 186.031 54.1271C185.999 53.7305 185.966 53.1949 185.935 52.5168C185.869 51.5943 185.8 50.629 185.726 49.6207C185.652 48.6124 185.583 47.7397 185.519 47.0026C185.454 46.2679 185.406 45.8764 185.374 45.8284L184.752 45.8644C184.354 45.8885 183.863 45.9211 183.278 45.9606C182.693 46 182.111 46.0464 181.537 46.0945C180.962 46.1425 180.468 46.1906 180.063 46.2387L178.916 46.3365L178.77 49.3168C178.689 51.1915 178.596 52.6335 178.49 53.643C178.384 54.6524 178.226 55.3752 178.015 55.8112C177.843 56.2069 177.531 56.5263 177.139 56.7091C176.698 56.9025 176.048 57.017 175.188 57.0524C174.993 57.0696 174.807 57.0765 174.629 57.0765C174.126 57.0908 173.624 57.0253 173.143 56.8825C172.231 56.5277 171.646 55.9303 171.387 55.0902C171.21 54.3795 171.095 53.1034 171.042 51.2619C171.025 50.4699 171.016 49.6458 171.016 48.7898C171.016 47.6578 171.045 46.2524 171.102 44.5734C171.16 42.8945 171.286 41.2384 171.48 39.6052C171.864 36.414 172.549 33.2659 173.526 30.2025C174.453 27.3745 175.453 25.363 176.524 24.1682C177.538 23.1393 178.834 22.431 180.251 22.1321C180.771 22.02 181.303 21.9624 181.835 21.9605C182.724 21.9599 183.604 22.135 184.424 22.4755C185.497 22.8463 186.36 23.7791 187.014 25.2738C187.667 26.7685 188.22 29.3053 188.671 32.8841C189.113 36.4561 189.571 41.5703 190.045 48.2267ZM185.025 43.2824C185.047 43.2037 185.055 43.1218 185.049 43.0404C185.049 42.7348 184.997 42.0967 184.892 41.1262C184.788 40.1557 184.615 38.8755 184.374 37.2858C184.144 35.6938 183.897 34.1631 183.632 32.6935C183.367 31.224 183.137 30.1093 182.942 29.3493C182.805 28.7398 182.626 28.1403 182.407 27.5553C182.341 27.3836 182.275 27.2892 182.212 27.2892C182.179 27.2892 182.146 27.3218 182.113 27.3854C181.999 27.5794 181.83 28.0721 181.595 28.8875C181.361 29.703 181.136 30.5648 180.905 31.4935C180.674 32.4223 180.503 33.1622 180.404 33.7116C180.209 34.7931 179.979 36.2913 179.714 38.206C179.449 40.1208 179.277 41.5869 179.196 42.6043L179.074 43.9623H180.049C180.325 43.9623 180.658 43.9457 181.046 43.9125C181.435 43.8793 181.785 43.8472 182.094 43.8163C183.869 43.5611 184.844 43.3831 185.022 43.2824H185.025Z" fill="#997B5F"/>
<path d="M220.424 22.2492L220.959 22.6852L220.838 39.1145C220.821 41.0212 220.813 42.7259 220.814 44.2287C220.797 46.6527 220.78 48.6315 220.764 50.1652C220.748 51.6988 220.716 52.8948 220.668 53.7532C220.654 54.3696 220.572 54.9827 220.424 55.5815C220.309 55.9455 220.163 56.1595 219.986 56.2236C219.859 56.2581 219.727 56.2749 219.596 56.2734C219.473 56.2728 219.351 56.2642 219.23 56.2476C219.02 56.2129 218.808 56.1968 218.596 56.1995C218.177 56.2094 217.758 56.1893 217.341 56.1395C217.137 56.1127 216.945 56.024 216.792 55.8854L216.428 55.5695L216.452 44.1806C216.467 42.5646 216.475 41.0859 216.477 39.7445C216.478 38.4032 216.474 36.9211 216.465 35.2982C216.455 33.6741 216.443 32.8157 216.428 32.723C216.395 32.723 216.297 32.9291 216.135 33.3411C215.973 33.7531 215.778 34.2733 215.551 34.9033C215.436 35.2467 215.321 35.57 215.206 35.8733C214.588 37.6347 214.081 39.0767 213.684 40.1995C213.287 41.3222 212.966 42.1983 212.721 42.8278C212.477 43.4584 212.282 43.9191 212.135 44.2098C212.042 44.423 211.914 44.6196 211.757 44.7918C211.651 44.8884 211.522 44.9553 211.381 44.9858C211.358 45.0047 211.334 45.0208 211.307 45.0338C210.83 45.2017 210.327 45.2836 209.821 45.2759L209.249 45.2639C208.84 45.2365 208.439 45.1335 208.067 44.96C208.058 44.9599 208.048 44.9576 208.04 44.9535C208.032 44.9493 208.024 44.9433 208.019 44.936C207.858 44.8737 207.709 44.7836 207.58 44.6699C207.388 44.4737 207.227 44.249 207.104 44.0038C206.917 43.6719 206.658 43.1385 206.325 42.4038C205.993 41.669 205.532 40.647 204.944 39.3377L204.798 39.0475C204.41 38.1754 204.007 37.2987 203.589 36.4175C203.172 35.5362 202.843 34.8541 202.602 34.3711L201.749 32.723V38.8776C201.732 42.3351 201.675 45.5826 201.577 48.6201C201.479 51.6576 201.374 53.6032 201.261 54.457C201.231 54.8565 201.078 55.2371 200.822 55.5472C200.521 55.8305 200.151 56.0311 199.749 56.1292C199.145 56.288 198.523 56.3693 197.898 56.3712H197.64C197.132 56.381 196.625 56.3321 196.129 56.2253C195.187 55.9678 194.634 55.661 194.472 55.3051C194.294 55.0304 194.168 53.7497 194.094 51.463C194.02 49.1763 193.984 45.4973 193.985 40.4261C193.985 29.6678 194.164 24.0214 194.52 23.4869C194.572 23.2683 194.682 23.0674 194.838 22.905C195.048 22.7167 195.287 22.5615 195.544 22.4449C196.261 22.148 197.034 22.0075 197.81 22.0329H197.957C198.746 22.0205 199.53 22.1514 200.272 22.4191C200.953 22.6751 201.557 23.1007 202.026 23.6552C202.578 24.2698 203.28 25.3845 204.133 26.9994C204.986 28.6143 206.168 31.0217 207.679 34.2218L208.714 36.4638C209.03 37.1505 209.245 37.6146 209.36 37.8561L209.705 38.6321L211.02 34.9239C212.011 32.1279 213.074 29.4252 214.21 26.8157C215.346 24.2063 216.126 22.6612 216.549 22.1805C216.988 21.8257 217.589 21.6483 218.353 21.6483L219.043 21.6603C219.462 21.6661 219.922 21.8623 220.424 22.2492Z" fill="#997B5F"/>
<path d="M42.7609 7.63783C42.8041 7.57088 42.9663 7.5726 43.2166 7.67903C43.5668 7.84571 43.8752 8.08792 44.1194 8.38805C44.499 8.84243 44.7531 9.38738 44.8564 9.96918C44.9824 10.6963 44.8868 11.4442 44.582 12.1168C44.5037 12.2958 44.4108 12.4681 44.3041 12.6319C44.2006 12.7881 44.0852 12.9362 43.9588 13.0748C43.7224 13.3374 43.4963 13.54 43.3116 13.7271C42.9422 14.0877 42.7385 14.4293 42.6988 14.7143C42.6768 14.8411 42.6893 14.9715 42.735 15.092C42.7725 15.1938 42.8274 15.2885 42.8973 15.3718C43.0147 15.516 43.1493 15.5761 43.1545 15.6602C43.1545 15.7014 43.1251 15.7443 43.044 15.7769C42.9255 15.8143 42.7983 15.8143 42.6798 15.7769C42.489 15.721 42.3179 15.6127 42.1861 15.4645C42.1015 15.3719 42.0306 15.2679 41.9755 15.1555L41.9341 15.061L41.8996 14.958C41.8789 14.8867 41.8639 14.8138 41.8547 14.74C41.8209 14.4295 41.866 14.1154 41.9859 13.8267C42.11 13.5279 42.2788 13.2496 42.4865 13.001C42.6833 12.7555 42.8938 12.534 43.0664 12.3143C43.1506 12.2103 43.2284 12.1013 43.2995 11.9881C43.3706 11.8727 43.434 11.7529 43.4893 11.6293C43.7031 11.1524 43.7967 10.6309 43.7621 10.1099C43.7286 9.67191 43.6114 9.24425 43.4168 8.84986C43.0734 8.15457 42.6677 7.78547 42.7609 7.63783Z" fill="#BFA084"/>
<path d="M48.3415 1.0522C48.395 0.993827 48.5831 1.0522 48.8593 1.24104C49.2454 1.52382 49.578 1.87259 49.8414 2.27109C50.0298 2.54691 50.19 2.8408 50.3196 3.14834C50.4772 3.50972 50.5891 3.88916 50.6527 4.27796C50.6883 4.50856 50.6958 4.74257 50.6752 4.97496C50.6518 5.23247 50.5871 5.4846 50.4836 5.72175C50.2748 6.14821 50.0038 6.54161 49.6792 6.88913C49.5394 7.05051 49.4099 7.20158 49.3012 7.34579C49.2528 7.41961 49.2028 7.49171 49.1527 7.56382C49.1027 7.63592 49.0681 7.71489 49.0233 7.78871C48.8689 8.08721 48.7529 8.40387 48.678 8.7312C48.6094 9.03506 48.5724 9.34514 48.5676 9.65653C48.5676 9.80417 48.5676 9.94838 48.5831 10.0857C48.5925 10.2186 48.6087 10.351 48.6314 10.4823C48.7021 10.8897 48.8178 11.2882 48.9767 11.6703C49.025 11.8179 49.0768 11.9261 49.0958 12.0136C49.1147 12.1012 49.1147 12.1595 49.0837 12.1853C49.0526 12.211 48.9939 12.2059 48.9111 12.163C48.7922 12.1021 48.6843 12.0221 48.5917 11.9261C48.2421 11.5835 47.9759 11.166 47.8133 10.7055C47.7569 10.5527 47.7097 10.3968 47.6717 10.2385C47.5329 9.68155 47.5059 9.10283 47.5923 8.53549C47.6603 8.09626 47.7929 7.66937 47.9859 7.26853C48.0411 7.16381 48.0894 7.05737 48.1585 6.95609L48.3535 6.65222C48.4934 6.45995 48.6418 6.28484 48.7816 6.12003C49.0329 5.85588 49.2503 5.56179 49.4289 5.24449C49.492 5.11928 49.5346 4.98481 49.5549 4.84621C49.5773 4.69909 49.5831 4.54996 49.5722 4.40157C49.5457 4.08988 49.4879 3.78161 49.3996 3.48139C49.3231 3.20822 49.2286 2.94039 49.1165 2.67967C48.9423 2.29362 48.7463 1.91763 48.5296 1.55349C48.3656 1.28567 48.2845 1.11572 48.3415 1.0522Z" fill="#BFA084"/>
<path d="M55.1596 10.0052C55.1268 10.1769 55.5463 10.3606 55.8846 10.8396C56.0698 11.0999 56.1775 11.4069 56.1953 11.7254C56.2051 11.9038 56.1847 12.0825 56.1349 12.2542C56.1088 12.3421 56.0753 12.4276 56.0348 12.51C55.9878 12.6004 55.9348 12.6876 55.876 12.7709C55.5761 13.1436 55.2533 13.4973 54.9093 13.8301L54.7833 13.9709C54.7402 14.0207 54.697 14.0688 54.6573 14.1186C54.5795 14.2154 54.5069 14.3162 54.4398 14.4207C54.3148 14.6122 54.2134 14.818 54.1378 15.0336C54.072 15.2181 54.0348 15.4114 54.0273 15.607C54.0221 15.7572 54.0437 15.9072 54.0912 16.0499C54.12 16.142 54.1703 16.2261 54.2379 16.2954C54.2897 16.3417 54.3346 16.3589 54.3743 16.3469C54.4554 16.3211 54.4934 16.1958 54.5555 16.0276C54.5919 15.9305 54.6334 15.8354 54.6798 15.7426C54.743 15.6229 54.8151 15.5082 54.8955 15.3992C54.9953 15.2649 55.1049 15.1381 55.2235 15.0198C55.2856 14.9546 55.3564 14.8894 55.4306 14.8224C55.4669 14.7881 55.5066 14.7572 55.5446 14.7228L55.6706 14.6164C55.8432 14.4705 56.0399 14.3125 56.2436 14.1254C56.4707 13.922 56.6755 13.6952 56.8547 13.449C56.9519 13.3101 57.0368 13.1631 57.1084 13.0095C57.1802 12.8568 57.2351 12.6968 57.2724 12.5323C57.3409 12.2182 57.345 11.8935 57.2845 11.5778C57.2309 11.2961 57.1243 11.027 56.9703 10.7846C56.8388 10.5776 56.6717 10.3951 56.4767 10.2456C56.2086 10.0328 55.8829 9.90434 55.5411 9.87647C55.3029 9.86274 55.1734 9.92797 55.1596 10.0052Z" fill="#BFA084"/>
<path d="M59.5802 48.2851C57.8964 48.3459 56.2106 48.2488 54.5451 47.995V49.4782C54.5313 50.4242 54.5192 51.2791 54.5106 51.8662C54.5106 52.3607 54.5106 52.668 54.5106 52.6731C54.3722 52.6989 54.2319 52.7127 54.0911 52.7143H53.8944C53.7079 52.7143 53.2557 52.7143 52.8432 52.7143L52.2166 52.6954H51.9611L51.8127 52.68L51.6228 52.6937C51.0963 52.7126 50.5871 52.7298 50.4888 52.7298H50.1884C50.1798 52.7298 50.1729 52.7195 50.1625 52.704C49.586 52.7195 49.0872 52.7298 48.9784 52.7298H48.5641C48.4675 52.7298 48.2327 51.9572 48.2189 51.013V49.801C48.2189 48.4036 48.2051 46.91 48.2017 45.6413C46.8422 44.8135 45.5311 43.9096 44.2748 42.934C42.2656 41.4095 40.3047 39.8267 38.3525 38.225C38.3525 42.1289 38.3686 45.5223 38.4008 48.4053C38.4319 51.3615 38.4635 53.0931 38.4957 53.6002C38.5613 54.5014 38.7167 55.1281 38.967 55.48C39.2173 55.8319 39.6695 56.0654 40.3289 56.1804C40.8433 56.3109 42.33 56.3761 44.7891 56.3761H45.6332C46.9347 56.359 47.9128 56.3424 48.5676 56.3263C48.8006 56.3263 49.0095 56.3126 49.1959 56.3023C49.5618 56.3263 50.0066 56.3429 50.5302 56.3521C51.5831 56.3681 52.407 56.3761 53.002 56.3761C53.9018 56.3761 54.7937 56.3595 55.6774 56.3263C57.1734 56.2783 58.1222 56.205 58.5238 56.1066C58.8597 56.0379 59.1615 55.856 59.3782 55.5916C59.5635 55.3467 59.6964 54.8843 59.7769 54.2044C59.8575 53.5246 59.9219 52.4723 59.9703 51.0474C60.0002 50.3195 60.0238 49.397 60.041 48.28L59.5802 48.2851Z" fill="#8A6A50"/>
<path d="M48.7506 53.0887C48.578 52.96 48.193 52.996 47.8875 53.166C47.582 53.336 47.4129 53.5797 47.4974 53.7068C47.5793 53.8223 47.633 53.9551 47.6545 54.0948C47.6545 54.1789 47.9687 54.2493 48.3536 54.2493C48.7293 54.2521 49.1011 54.173 49.4427 54.0175C49.4902 53.9995 49.5309 53.9677 49.5597 53.9261C49.5885 53.8846 49.6039 53.8353 49.6039 53.7849C49.6039 53.7344 49.5885 53.6852 49.5597 53.6436C49.5309 53.6021 49.4902 53.5702 49.4427 53.5523C49.2373 53.4252 48.9215 53.2192 48.7506 53.0887Z" fill="#BFA084"/>
<path d="M44.4094 52.9788C44.6666 52.9788 44.5958 53.3221 44.2541 53.753C43.9123 54.1839 43.4911 54.4912 43.3202 54.45C43.1494 54.4088 43.0078 54.3024 43.0078 54.2165C43.022 54.0347 43.0485 53.854 43.0872 53.6758C43.1198 53.5567 43.1785 53.4464 43.2591 53.3526C43.3397 53.2588 43.4402 53.1839 43.5533 53.1333C43.8288 53.0376 44.1177 52.9854 44.4094 52.9788Z" fill="#BFA084"/>
<path d="M57.1739 30.3864C57.4311 30.3864 57.5364 30.6645 57.4069 31.0061C57.2775 31.3477 56.9996 31.6928 56.7855 31.7786C56.5628 31.8649 56.3213 31.8921 56.0847 31.8576C55.9121 31.8147 55.774 31.71 55.774 31.6241C55.7874 31.4423 55.8134 31.2616 55.8517 31.0834C55.8844 30.9643 55.9431 30.854 56.0236 30.7602C56.1042 30.6664 56.2047 30.5915 56.3178 30.5409C56.5933 30.4452 56.8822 30.393 57.1739 30.3864Z" fill="#BFA084"/>
<path d="M40.9848 50.7348C41.0686 50.7549 41.1469 50.793 41.2143 50.8463C41.2817 50.8997 41.3365 50.9671 41.3749 51.0438C41.4181 51.1726 41.3128 51.3117 41.1419 51.3529C40.9567 51.3943 40.7627 51.3668 40.5964 51.2756C40.5658 51.2554 40.5395 51.2293 40.519 51.1989C40.4985 51.1685 40.4842 51.1344 40.477 51.0985C40.4698 51.0626 40.4697 51.0257 40.4769 50.9898C40.4841 50.9539 40.4983 50.9197 40.5188 50.8893C40.5738 50.8223 40.6468 50.7722 40.7293 50.7449C40.8118 50.7175 40.9004 50.714 40.9848 50.7348Z" fill="#BFA084"/>
<path d="M41.7719 48.335C41.8582 48.4208 42.0671 48.3865 42.2397 48.2578C42.3995 48.1489 42.5108 47.9828 42.5504 47.7942C42.5504 47.6655 42.3777 47.5968 42.162 47.6397C42.0658 47.6535 41.974 47.6883 41.8931 47.7418C41.8122 47.7952 41.7442 47.8659 41.6942 47.9487C41.6739 48.0145 41.6703 48.0842 41.6839 48.1517C41.6974 48.2191 41.7277 48.2821 41.7719 48.335Z" fill="#BFA084"/>
<path d="M56.0814 50.6577C56.1677 50.7419 56.3765 50.7075 56.5492 50.5805C56.7091 50.4709 56.8204 50.3043 56.8599 50.1152C56.8599 49.9882 56.6873 49.9178 56.4715 49.9607C56.3755 49.9748 56.2837 50.0098 56.2029 50.0632C56.122 50.1167 56.054 50.1872 56.0037 50.2697C55.9834 50.3358 55.9798 50.4058 55.9934 50.4735C56.0069 50.5412 56.0372 50.6045 56.0814 50.6577Z" fill="#BFA084"/>
<path d="M45.1878 47.6398C45.2724 47.7668 45.6936 47.6964 46.1216 47.4835C46.5497 47.2706 46.8639 46.9582 46.8207 46.7968C46.8074 46.7195 46.7704 46.6482 46.7148 46.5926C46.6592 46.537 46.5877 46.4998 46.51 46.4861H46.044C45.8538 46.5033 45.6687 46.5563 45.4985 46.6423C45.3143 46.7419 45.1754 46.9077 45.1101 47.1058C45.071 47.2873 45.0985 47.4767 45.1878 47.6398Z" fill="#BFA084"/>
<path d="M40.1286 28.8413C40.1717 28.9254 40.3478 28.8911 40.5187 28.7641L41.1418 28.2988C41.3144 28.1718 41.5578 27.9967 41.6855 27.9126C41.8133 27.8284 41.8495 27.583 41.7632 27.3701C41.6769 27.1572 41.3282 27.0542 40.9847 27.1383L40.674 27.4473L40.5635 27.5572C40.382 27.8094 40.2357 28.0848 40.1286 28.3761C40.0864 28.5283 40.0864 28.6891 40.1286 28.8413Z" fill="#BFA084"/>
<path d="M42.8524 30.9992C42.8524 30.9151 42.6798 30.9151 42.4641 30.9992C42.2483 31.0834 42.0757 31.2585 42.0757 31.3872C42.0757 31.516 42.1447 31.619 42.231 31.619C42.3633 31.61 42.4938 31.5841 42.6194 31.5417C42.7471 31.4988 42.8524 31.3941 42.8524 31.3083V30.9992Z" fill="#BFA084"/>
<path d="M45.1878 23.8027C45.0152 23.6739 44.8063 23.631 44.72 23.7254C44.5505 23.9206 44.3948 24.1271 44.254 24.3435C44.1021 24.5516 43.9957 24.789 43.9415 25.0405C43.9415 25.1675 44.1141 25.2036 44.3316 25.1177C44.5556 25.0299 44.7921 24.9777 45.0324 24.9632C45.2006 24.964 45.3644 24.9097 45.4985 24.8087C45.5455 24.7418 45.5768 24.6653 45.5903 24.5848C45.6037 24.5043 45.5989 24.4219 45.5762 24.3435C45.502 24.1297 45.3671 23.9418 45.1878 23.8027Z" fill="#BFA084"/>
<path d="M47.7546 24.3433C47.7132 24.1716 47.5716 24.103 47.4439 24.1888C47.2619 24.3579 47.128 24.5716 47.0555 24.8086V25.1176C46.8829 25.2034 46.7793 25.3064 46.8208 25.3493C46.8622 25.3923 47.04 25.3579 47.2109 25.2721C47.3927 25.1787 47.5518 25.0469 47.6769 24.8858C47.7683 24.7204 47.7959 24.5275 47.7546 24.3433Z" fill="#BFA084"/>
</g>
<defs>
<clipPath id="clip0_149_612">
<rect width="222" height="58.1016" fill="white"/>
</clipPath>
</defs>
</svg>
