<svg width="394" height="101" viewBox="0 0 394 101" fill="none" xmlns="http://www.w3.org/2000/svg">
<path d="M106.112 61.7609V60.5758C106.085 56.313 106.065 52.8077 106.051 50.0598C106.036 47.3119 105.993 45.1581 105.921 43.5983C105.847 42.0345 105.754 40.88 105.641 40.1349C105.595 39.5829 105.418 39.0496 105.124 38.5792C104.887 38.2802 104.595 38.0278 104.265 37.8351L104.179 37.7463C103.658 37.3815 103.075 37.1147 102.457 36.9593C101.454 36.7392 100.433 36.6141 99.4061 36.5857C98.0288 36.5142 96.0213 36.4632 93.3836 36.4326H89.1253C88.1092 36.4326 87.3118 36.4326 86.7298 36.4724C86.1479 36.4479 85.3504 36.4326 84.3344 36.4326H80.0761C77.4384 36.4632 75.4319 36.5142 74.0567 36.5857C73.029 36.6142 72.0063 36.7393 71.0023 36.9593C70.385 37.1147 69.8016 37.3815 69.2811 37.7463C69.2218 37.8079 69.1476 37.8532 69.0656 37.878C68.7549 38.0856 68.4873 38.3507 68.2774 38.6589C67.9933 39.1798 67.8243 39.7551 67.7816 40.3462C67.6667 41.1628 67.5815 42.4551 67.5261 44.2231C67.4707 45.991 67.4327 48.4235 67.4122 51.5205C67.3957 54.6196 67.3885 58.5934 67.3906 63.4421V66.1982C67.3906 73.3864 67.4193 79.6131 67.4768 84.8782C67.5343 90.1433 67.5907 93.2322 67.6462 94.1447C67.7632 95.7525 68.0403 96.8702 68.4867 97.498C68.9332 98.1257 69.7399 98.5422 70.9161 98.7474C71.8336 98.9801 74.4857 99.0965 78.8722 99.0965H80.3778C82.6994 99.0659 84.4442 99.0363 85.6122 99.0077C86.0278 99.0077 86.4004 98.9832 86.7329 98.9648C87.3857 99.0077 88.179 99.0373 89.113 99.0536C90.9912 99.0822 92.4609 99.0965 93.5221 99.0965C95.1273 99.0965 96.7181 99.0669 98.2946 99.0077C100.963 98.9219 102.655 98.7913 103.372 98.6157C103.971 98.4931 104.509 98.1686 104.896 97.697C105.226 97.2601 105.464 96.4353 105.607 95.2227C105.751 94.01 105.866 92.1328 105.952 89.5911C106.038 87.4863 106.095 84.477 106.121 80.5634C106.148 76.6498 106.162 73.2905 106.165 70.4854C106.154 67.6762 106.137 64.7681 106.112 61.7609ZM96.3333 70.8957C96.3333 74.0683 96.3333 77.841 96.3055 82.4314V86.8013C96.2809 88.4887 96.2594 90.0137 96.244 91.061C96.244 91.9429 96.244 92.4911 96.244 92.5003C95.9972 92.5463 95.7468 92.5709 95.4958 92.5738H95.1448C94.8122 92.5738 94.0055 92.5738 93.2697 92.5738L92.152 92.5401H91.6963L91.4315 92.5125L91.0928 92.537C90.1537 92.5707 89.2454 92.6013 89.0699 92.6013H88.5341C88.5187 92.6013 88.5064 92.583 88.488 92.5554C87.4596 92.583 86.5697 92.6013 86.3758 92.6013H85.6368C85.4644 92.6013 85.0456 91.2233 85.021 89.539V87.377C84.9871 81.4086 84.981 74.4296 84.981 74.4296C84.981 69.7688 84.981 65.2427 84.981 64.3669C84.981 63.4911 84.981 58.9619 84.981 54.3042C84.981 54.3042 84.981 52.5801 84.981 49.0982V46.7127C84.9964 44.6793 85.2458 43.0073 85.5352 42.9981C85.8246 42.9889 87.2533 42.9644 87.943 42.9644H89.5225H90.2091C90.711 42.9644 91.2837 42.9644 91.4807 42.9644H91.5023C91.9734 42.9644 92.814 42.9644 93.3189 42.9644H94.1195C94.6213 42.9644 95.2279 42.9645 95.465 42.9798C95.7021 42.9951 96.1362 43.972 96.2501 45.2397C96.2724 45.4114 96.2837 45.5842 96.284 45.7573V47.4385C96.284 50.5957 96.284 51.0642 96.284 51.0642C96.2994 55.7251 96.3117 59.8592 96.3117 60.2512C96.3117 60.6431 96.3117 64.0331 96.3394 67.7783L96.3333 70.8957Z" fill="#997B5F"/>
<path d="M60.2382 36.9659C60.2998 38.6297 60.3316 40.755 60.3337 43.3416V48.2811C60.3337 50.7105 60.2772 53.8106 60.1643 57.5813C60.0514 61.352 59.9149 64.1969 59.7548 66.116C58.5027 79.5411 56.6224 88.874 54.1141 94.1146C52.6361 97.4403 50.0488 99.1021 46.3519 99.1C45.9414 99.1 45.4918 99.0847 45.0033 99.0541C42.4026 98.9255 40.2822 97.7342 38.6421 95.4804C37.002 93.2265 35.5713 89.5752 34.3499 84.5265C34.1262 83.569 33.9209 82.7136 33.7341 81.9603C33.5402 81.21 33.4262 80.7538 33.3954 80.5945H33.3462C33.2826 80.5945 33.1378 80.9222 32.912 81.5775C32.6863 82.2329 32.4297 83.1515 32.1423 84.3336C30.6315 90.0887 29.2008 94.0697 27.8502 96.2766C27.1356 97.2656 26.194 98.0709 25.1037 98.6254C24.6454 98.8737 24.17 99.0896 23.6812 99.2715C23.1899 99.4326 22.6796 99.5293 22.1632 99.5594C21.5474 99.6084 20.6802 99.6482 19.5615 99.6788H18.453C16.4578 99.6788 15.0436 99.5349 14.2102 99.247C11.4452 98.4488 9.2191 96.5716 7.53181 93.6154C5.84451 90.6593 4.4682 86.2547 3.40286 80.4016C2.4689 75.163 1.76175 68.9149 1.28143 61.6572C0.992003 57.0209 0.84729 52.6898 0.84729 48.6639C0.84729 46.361 0.895528 44.1715 0.992003 42.0952C1.08848 40.0803 1.19111 38.5062 1.2999 37.3732C1.36118 36.4853 1.53074 35.6082 1.80486 34.761C2.00611 34.1941 2.32028 33.6733 2.72856 33.2299C3.564 32.3316 4.84897 31.7559 6.58348 31.5027C7.25457 31.4075 7.93157 31.3594 8.60946 31.3588C9.81949 31.3779 11.0236 31.5309 12.1996 31.8151C13.5338 32.1172 14.4904 32.7481 15.0692 33.7076C15.4202 34.3201 15.725 35.3214 15.9929 36.7301C16.2608 38.1388 16.5163 40.3559 16.7873 43.3937C17.0582 46.4315 17.4031 50.7126 17.7757 56.2553C18.1636 61.6225 18.6624 66.8723 19.2721 72.0048C19.8817 77.1372 20.4759 81.1406 21.0548 84.0151C21.1502 84.4285 21.2303 84.6276 21.295 84.6276C21.3424 84.6197 21.3852 84.5946 21.415 84.5571C21.6031 84.1133 21.7565 83.6556 21.8738 83.1883C22.5163 81.3346 23.2635 78.602 24.1153 74.9905C24.9672 71.379 25.7544 67.7277 26.4769 64.0367C27.2015 60.3435 27.6757 57.4741 27.8994 55.4285C27.9537 54.8102 28.0504 54.1963 28.1889 53.5911C28.2713 53.2001 28.3846 52.8161 28.5275 52.4428C28.8785 51.9324 29.5857 51.5486 30.649 51.2913C31.3802 51.1577 32.1224 51.0931 32.8659 51.0984C33.3462 51.0984 33.845 51.1168 34.3592 51.1474C37.2206 51.4353 38.8432 52.1549 39.2271 53.3063C39.2917 53.5605 39.4118 54.4088 39.5904 55.845C39.769 57.2812 39.9506 58.9777 40.1446 60.9284C40.5552 64.989 40.9482 68.2973 41.3239 70.8533C41.6995 73.4093 42.1737 76.1103 42.7464 78.9562C43.2596 81.4489 43.7984 83.7416 44.3629 85.8341C44.7709 87.4537 45.2778 89.047 45.8808 90.6052L46.4104 91.8056L47.0262 90.0295C48.7935 84.9256 50.1432 77.4945 51.0751 67.7359C51.3953 64.0611 51.6519 59.1074 51.8448 52.8746C51.9434 48.9732 51.9916 45.4566 51.9896 42.3249C51.9896 40.4406 51.9742 38.6992 51.9434 37.1006L51.7987 31.4905L53.0518 31.0097C53.9675 30.7058 54.9286 30.5597 55.8937 30.5779C55.9923 30.5779 56.3925 30.5963 57.1007 30.6269C57.8308 30.6628 58.5415 30.8729 59.1729 31.2394C59.3465 31.3502 59.5013 31.4877 59.6316 31.6467C59.7735 31.8714 59.8639 32.1244 59.8964 32.3877C59.9804 32.9204 60.0369 33.457 60.0658 33.9955C60.1151 34.7304 60.1725 35.7206 60.2382 36.9659Z" fill="#997B5F"/>
<path d="M274.685 30.541C276.121 30.8942 277.005 31.3739 277.336 31.9803C277.421 32.1079 277.471 32.2559 277.48 32.409C277.48 32.8581 277.111 33.2899 276.372 33.7043C276.005 33.9024 275.604 34.0322 275.19 34.0871C274.368 34.2096 273.539 34.2741 272.708 34.28C271.581 34.3148 269.957 34.3464 267.837 34.375L260.413 34.473L260.607 35.8633C260.737 37.1392 260.85 40.9426 260.946 47.2734C260.977 51.4933 260.992 55.8877 260.992 60.4566V71.0308C260.992 75.7773 260.929 79.988 260.801 83.6628C260.703 86.5719 260.606 88.9054 260.512 90.6632C260.418 92.421 260.315 93.7633 260.204 94.6901C260.147 95.3696 260.001 96.0388 259.77 96.6806C259.641 97.0177 259.415 97.3095 259.12 97.5197C258.158 98.1914 256.759 98.6548 254.924 98.91C254.285 99.0027 253.641 99.0508 252.996 99.0539C251.987 99.065 250.982 98.9351 250.009 98.668C248.144 98.1577 247.051 97.5503 246.73 96.846C246.32 96.2723 246.047 93.4142 245.911 88.2715C245.848 85.3317 245.815 81.2885 245.813 76.1417C245.813 72.3037 245.829 67.8449 245.862 62.7656C245.928 55.7999 246.001 49.8304 246.081 44.8572C246.161 39.8841 246.249 37.032 246.345 36.3012L246.586 34.4301H240.314C236.97 34.4301 234.535 34.3342 233.01 34.1422C231.485 33.9503 230.497 33.6145 230.045 33.1347C229.798 32.9311 229.642 32.6382 229.611 32.3202C229.611 31.8731 230.109 31.4576 231.104 31.0738C231.553 30.9034 232.024 30.8002 232.502 30.7676C233.18 30.688 234.264 30.6247 235.757 30.5777C237.249 30.5308 239.362 30.491 242.096 30.4583C244.829 30.4236 248.38 30.3756 252.75 30.3144C257.861 30.2797 261.991 30.2633 265.14 30.2654C266.714 30.2654 268.578 30.2735 270.731 30.2899C272.884 30.3062 274.202 30.3899 274.685 30.541Z" fill="#997B5F"/>
<path d="M158.671 38.2307L159.625 39.0085L159.41 68.3147C159.379 71.7159 159.364 74.7568 159.364 77.4373C159.335 81.7613 159.306 85.2911 159.277 88.0268C159.249 90.7624 159.191 92.8958 159.105 94.427C159.079 95.5265 158.933 96.6199 158.671 97.6884C158.466 98.3376 158.205 98.7193 157.889 98.8336C157.662 98.8953 157.428 98.9252 157.193 98.9225C156.975 98.9214 156.757 98.9061 156.54 98.8765C156.167 98.8146 155.789 98.7859 155.41 98.7908C154.662 98.8083 153.914 98.7725 153.172 98.6836C152.806 98.6367 152.464 98.4783 152.193 98.2304L151.543 97.6669L151.586 77.3516C151.615 74.469 151.629 71.8313 151.629 69.4386C151.629 67.0459 151.622 64.4021 151.608 61.5072C151.591 58.6103 151.57 57.0792 151.543 56.9138C151.485 56.9138 151.309 57.2813 151.02 58.0162C150.73 58.7512 150.382 59.679 149.976 60.8029C149.773 61.4154 149.572 61.985 149.36 62.5331C148.258 65.675 147.352 68.2474 146.644 70.2501C145.936 72.2529 145.37 73.8126 144.945 74.9293C144.51 76.0542 144.162 76.8759 143.901 77.3945C143.733 77.7741 143.506 78.1246 143.227 78.4326C143.038 78.6049 142.806 78.7243 142.555 78.7786C142.515 78.8124 142.47 78.8412 142.423 78.8644C141.572 79.1637 140.674 79.31 139.772 79.2962L138.75 79.2747C138.02 79.226 137.306 79.0421 136.644 78.7327C136.627 78.7325 136.611 78.7285 136.596 78.7211C136.581 78.7136 136.568 78.703 136.557 78.6898C136.271 78.5788 136.006 78.4181 135.775 78.2152C135.432 77.8653 135.145 77.4645 134.926 77.027C134.593 76.4349 134.13 75.4836 133.537 74.1729C132.944 72.8623 132.123 71.0392 131.074 68.7037L130.812 68.1861C130.116 66.6305 129.398 65.0667 128.657 63.4947C127.916 61.9227 127.329 60.7059 126.896 59.8444L125.375 56.9046V67.883C125.344 74.0504 125.241 79.8433 125.067 85.2615C124.892 90.6798 124.703 94.1504 124.5 95.6734C124.449 96.3866 124.175 97.0663 123.718 97.6179C123.182 98.1234 122.523 98.4813 121.806 98.656C120.728 98.9394 119.617 99.0845 118.502 99.0878H118.025C117.12 99.1053 116.216 99.018 115.331 98.8275C113.65 98.3682 112.664 97.821 112.375 97.1861C112.055 96.6962 111.83 94.4117 111.701 90.3327C111.571 86.2537 111.507 79.6912 111.507 70.6452C111.507 51.4547 111.825 41.3828 112.461 40.4294C112.554 40.0394 112.749 39.681 113.028 39.3913C113.403 39.0554 113.828 38.7787 114.287 38.5706C115.566 38.0409 116.945 37.7903 118.33 37.8356H118.592C119.998 37.8141 121.398 38.0476 122.72 38.5247C123.936 38.9812 125.013 39.7404 125.849 40.7295C126.834 41.8258 128.087 43.8143 129.608 46.6949C131.129 49.5755 133.237 53.8699 135.932 59.578L137.78 63.5774C138.344 64.8023 138.728 65.6301 138.931 66.0609L139.547 67.445L141.893 60.8305C143.661 55.8491 145.558 51.0311 147.586 46.3764C149.615 41.7217 151.005 38.9656 151.759 38.1082C152.541 37.4753 153.613 37.1589 154.976 37.1589L156.192 37.1803C156.948 37.1905 157.774 37.5406 158.671 38.2307Z" fill="#997B5F"/>
<path d="M197.309 61.0139C196.035 64.8744 193.412 68.7932 189.442 72.7701L186.791 75.4527L187.835 76.0651C189.019 76.7897 190.138 77.6144 191.179 78.5303C192.187 79.3505 193.106 80.2743 193.919 81.2863C195.223 83.2768 195.874 85.2796 195.874 87.2946C195.869 88.6162 195.604 89.924 195.092 91.1439C194.224 92.9302 192.833 94.5369 190.92 95.964C189.071 97.3591 186.956 98.3665 184.704 98.9252C183.667 99.0695 182.622 99.1412 181.576 99.1396H180.141C179.155 99.1396 178.047 99.1181 176.815 99.0753C175.784 99.0522 174.755 98.958 173.736 98.7935C171.938 98.4199 170.764 97.685 170.214 96.5887C169.635 95.6659 169.215 90.9836 168.955 82.5419C168.405 67.1814 167.999 57.7434 167.739 54.2278C167.622 52.4109 167.549 50.5082 167.52 48.5197C167.491 47.5398 167.477 46.6211 167.477 45.7636C167.477 44.9062 167.491 43.912 167.52 42.781C167.506 42.04 167.579 41.3 167.739 40.5761C168.172 39.6554 169.301 39.0072 171.125 38.6315C171.998 38.4571 172.886 38.3699 173.776 38.3712C174.755 38.3745 175.731 38.4771 176.689 38.6775C177.34 38.8469 178 38.9767 178.666 39.0664C179.393 39.1756 180.126 39.2471 180.861 39.2807C182.459 39.4231 184.041 39.708 185.588 40.1321C187.138 40.5291 188.645 41.079 190.086 41.7735C193.43 43.5086 196.002 46.4219 197.3 49.9437C197.762 51.3278 197.994 53.1295 197.996 55.3486C198.038 57.2598 197.806 59.1673 197.309 61.0139ZM188.528 54.7025V54.139C188.528 51.9811 188.355 50.3316 188.008 49.1903C187.661 48.0491 186.907 46.9467 185.748 45.8831C185.247 45.3741 184.702 44.9109 184.119 44.4989C183.618 44.1589 183.067 43.8966 182.487 43.7211C182.025 43.5771 181.603 43.4424 181.228 43.3107C180.977 43.2303 180.73 43.1372 180.489 43.0321H180.402C180.345 43.0321 180.287 43.1178 180.227 43.2893C180.193 43.5183 180.178 43.7499 180.184 43.9814V44.9001C180.184 45.3308 180.213 46.1658 180.27 47.405C180.416 50.7205 180.576 54.3156 180.75 58.1905C180.925 62.0653 181.07 65.0694 181.185 67.2028L181.4 70.4887L182.324 69.4077C182.613 69.0912 182.931 68.7238 183.278 68.3052C183.625 67.8867 183.933 67.505 184.202 67.1599C185.663 65.2129 186.848 63.0747 187.721 60.8057C187.952 60.1932 188.134 59.6604 188.266 59.1857C188.408 58.6265 188.488 58.0535 188.503 57.4769C188.516 56.8032 188.528 55.8815 188.528 54.6994V54.7025ZM185.791 89.7995H185.748C185.92 89.0916 186.008 88.3659 186.009 87.6376C185.969 86.4361 185.771 85.2451 185.421 84.0945C185.04 82.6976 184.245 81.4471 183.14 80.5054L181.834 79.4673L182.053 85.8675C182.111 87.6804 182.176 89.282 182.25 90.6631C182.324 92.0442 182.37 92.8833 182.401 93.1711L182.619 94.0898L184.008 92.5311C184.936 91.5267 185.53 90.6162 185.791 89.7995Z" fill="#997B5F"/>
<path d="M235.643 84.5691C235.818 86.9904 235.955 88.9931 236.056 90.5774C236.156 92.1616 236.222 93.4294 236.253 94.3808C236.281 94.8432 236.296 95.2627 236.296 95.6363C236.296 96.0099 236.281 96.3406 236.253 96.7173C236.238 97.0193 236.179 97.3175 236.077 97.6023C236.015 97.7878 235.893 97.9473 235.729 98.0555C234.947 98.6047 233.921 98.8783 232.65 98.8762H231.52C230.824 98.8762 230.086 98.57 229.303 97.9575C229.14 97.824 229 97.6634 228.891 97.4829C228.765 97.2321 228.684 96.9617 228.651 96.6836C228.592 96.3223 228.537 95.7894 228.478 95.082C228.42 94.3746 228.361 93.4192 228.306 92.2096C228.189 90.5641 228.066 88.8421 227.936 87.0435C227.807 85.2449 227.684 83.6882 227.567 82.3735C227.45 81.0628 227.363 80.3646 227.305 80.2788L226.197 80.3431C225.485 80.386 224.611 80.4442 223.567 80.5146C222.523 80.5851 221.486 80.6678 220.461 80.7535C219.435 80.8392 218.555 80.925 217.831 81.0107L215.787 81.1853L215.525 86.5014C215.379 89.8455 215.213 92.4178 215.026 94.2185C214.839 96.0191 214.557 97.3083 214.179 98.0861C213.872 98.792 213.316 99.3616 212.615 99.6877C211.833 100.033 210.673 100.237 209.136 100.3C208.788 100.331 208.455 100.343 208.138 100.343C207.242 100.369 206.347 100.252 205.487 99.997C203.862 99.3641 202.818 98.2985 202.356 96.8C202.038 95.5322 201.833 93.2559 201.74 89.971C201.709 88.5583 201.694 87.0884 201.694 85.5613C201.694 83.5422 201.745 81.0352 201.848 78.0403C201.951 75.0454 202.175 72.0923 202.522 69.181C203.206 63.4888 204.428 57.8732 206.171 52.4088C207.823 47.3642 209.606 43.7762 211.519 41.6448C213.327 39.8101 215.64 38.5467 218.167 38.0129C219.096 37.8128 220.043 37.7102 220.993 37.7067C222.579 37.7054 224.149 38.0177 225.612 38.6254C227.523 39.2868 229.062 40.9507 230.23 43.6169C231.398 46.2832 232.384 50.8082 233.186 57.1921C233.983 63.5699 234.802 72.6956 235.643 84.5691ZM226.689 75.7497C226.728 75.6092 226.743 75.4632 226.732 75.3179C226.732 74.7728 226.639 73.6347 226.452 71.9034C226.265 70.1722 225.958 67.8888 225.529 65.0531C225.118 62.2133 224.677 59.4827 224.205 56.8614C223.733 54.2401 223.322 52.2516 222.973 50.896C222.731 49.8083 222.412 48.739 222.019 47.6959C221.902 47.3897 221.785 47.2213 221.671 47.2213C221.612 47.2213 221.554 47.2794 221.495 47.3927C221.292 47.7388 220.99 48.6177 220.571 50.0723C220.153 51.5269 219.752 53.0641 219.34 54.7208C218.927 56.3775 218.622 57.6974 218.447 58.6773C218.1 60.6066 217.695 63.279 217.231 66.6945C216.767 70.1099 216.459 72.7252 216.307 74.5401L216.088 76.9624H217.828C218.321 76.9624 218.914 76.9328 219.608 76.8736C220.304 76.8184 220.929 76.7603 221.477 76.7021C224.636 76.2468 226.373 75.9293 226.689 75.7497Z" fill="#997B5F"/>
<path d="M299.769 93.9491C301.19 94.3574 301.9 94.9627 301.9 95.765C301.9 95.8817 301.885 95.9978 301.857 96.1111C301.769 97.2074 299.552 97.8699 295.206 98.0985C294.046 98.1567 292.817 98.2363 291.512 98.3374C290.206 98.4384 289.135 98.5334 288.297 98.6191C286.622 98.7917 284.938 98.8776 283.254 98.8763H282.296C281.483 98.9018 280.669 98.8588 279.864 98.7477C278.269 98.2292 277.242 97.6381 276.785 96.9746C276.61 96.746 276.465 96.1917 276.35 95.3118C276.236 94.4319 276.133 93.0702 276.043 91.2267C275.287 77.4137 274.881 64.7623 274.823 53.2725L274.734 40.3036L275.473 39.7432C276.169 39.1308 277.459 38.7225 279.343 38.5183C280.821 38.3774 283.023 38.306 285.948 38.304H288.642C291.078 38.3305 292.911 38.3662 294.141 38.4111C295.014 38.4243 295.884 38.4898 296.749 38.6071C297.178 38.6683 297.594 38.7997 297.981 38.996C298.852 39.4554 299.286 39.9147 299.286 40.3771C299.286 40.7222 299.04 41.0682 298.547 41.4153C298.122 41.662 297.646 41.8096 297.155 41.847C296.072 41.9561 294.983 42.0001 293.895 41.9787C292.797 42.0053 291.797 42.0267 290.896 42.043C290 42.043 289.39 42.0645 289.073 42.0645L288.115 42.1073V53.6063C288.115 56.7482 288.137 59.9544 288.18 63.225C288.223 66.4955 288.274 68.9525 288.334 70.596L288.506 76.0836H292.201C293.679 76.0836 294.766 76.1204 295.462 76.1938C296.063 76.24 296.652 76.3935 297.198 76.6471C298.02 77.0554 298.43 77.4443 298.43 77.8138C298.43 78.2762 297.922 78.7325 296.891 79.1551C296.343 79.4429 294.775 79.5869 292.198 79.5869H288.642L288.817 83.9078C288.877 85.147 288.942 86.4444 289.011 87.8C289.081 89.1556 289.147 90.2651 289.208 91.1287L289.381 93.9797L293.901 93.8082C295.149 93.7511 296.207 93.7225 297.075 93.7225C298.409 93.7347 299.305 93.8052 299.769 93.9491Z" fill="#997B5F"/>
<path d="M337.998 84.5692C338.175 86.9904 338.312 88.9932 338.411 90.5774C338.509 92.1617 338.577 93.4335 338.614 94.393C338.642 94.8555 338.657 95.275 338.657 95.6486C338.657 96.0222 338.657 96.3529 338.614 96.7296C338.6 97.0316 338.541 97.3298 338.439 97.6146C338.377 97.8 338.254 97.9596 338.091 98.0678C337.309 98.617 336.282 98.8905 335.012 98.8885H333.882C333.186 98.8885 332.447 98.5823 331.665 97.9698C331.501 97.8363 331.361 97.6757 331.252 97.4952C331.127 97.2444 331.046 96.974 331.012 96.6959C330.954 96.3345 330.898 95.8017 330.84 95.0943C330.781 94.3869 330.723 93.4315 330.667 92.2219C330.55 90.5764 330.426 88.8544 330.295 87.0558C330.163 85.2572 330.04 83.7005 329.925 82.3858C329.81 81.0751 329.724 80.3769 329.667 80.2911L328.558 80.3555C327.847 80.3983 326.972 80.4565 325.929 80.5269C324.885 80.5974 323.847 80.6801 322.822 80.7658C321.797 80.8515 320.916 80.9373 320.192 81.023L318.148 81.1976L317.886 86.5137C317.743 89.8578 317.576 92.4301 317.388 94.2307C317.199 96.0314 316.916 97.3206 316.541 98.0984C316.233 98.8043 315.677 99.3739 314.977 99.7C314.19 100.045 313.031 100.249 311.497 100.312C311.149 100.343 310.817 100.355 310.5 100.355C309.603 100.381 308.708 100.264 307.849 100.009C306.223 99.3764 305.179 98.3108 304.717 96.8123C304.401 95.5445 304.196 93.2682 304.102 89.9833C304.071 88.5706 304.055 87.1007 304.055 85.5736C304.055 83.5545 304.107 81.0475 304.209 78.0526C304.312 75.0577 304.537 72.1036 304.884 69.1903C305.568 63.498 306.789 57.8825 308.532 52.4181C310.187 47.3734 311.969 43.7854 313.881 41.6541C315.688 39.8188 318.001 38.5553 320.528 38.0222C321.457 37.8221 322.404 37.7195 323.355 37.7159C324.94 37.715 326.51 38.0272 327.973 38.6346C329.886 39.2961 331.426 40.9599 332.592 43.6262C333.758 46.2924 334.743 50.8175 335.547 57.2014C336.336 63.573 337.153 72.6956 337.998 84.5692ZM329.045 75.7497C329.084 75.6093 329.098 75.4633 329.088 75.318C329.088 74.7729 328.994 73.6347 328.808 71.9035C328.621 70.1723 328.313 67.8888 327.884 65.0531C327.473 62.2134 327.032 59.4828 326.56 56.8615C326.088 54.2401 325.677 52.2517 325.328 50.8961C325.085 49.8088 324.766 48.7395 324.374 47.696C324.257 47.3898 324.14 47.2213 324.026 47.2213C323.967 47.2213 323.909 47.2795 323.85 47.3928C323.647 47.7389 323.345 48.6177 322.927 50.0723C322.508 51.5269 322.108 53.0642 321.695 54.7209C321.282 56.3776 320.978 57.6975 320.802 58.6774C320.453 60.6067 320.043 63.279 319.571 66.6945C319.098 70.11 318.791 72.7252 318.647 74.5401L318.428 76.9624H320.168C320.66 76.9624 321.254 76.9328 321.948 76.8736C322.641 76.8144 323.264 76.7572 323.816 76.7021C326.982 76.2469 328.722 75.9294 329.038 75.7497H329.045Z" fill="#997B5F"/>
<path d="M392.189 38.2307L393.143 39.0085L392.928 68.3147C392.897 71.7159 392.883 74.7568 392.885 77.4373C392.854 81.7613 392.824 85.2911 392.795 88.0268C392.767 90.7624 392.709 92.8958 392.623 94.427C392.598 95.5266 392.453 96.6202 392.189 97.6884C391.984 98.3376 391.723 98.7193 391.407 98.8336C391.18 98.8953 390.946 98.9252 390.711 98.9225C390.493 98.9214 390.274 98.9061 390.058 98.8765C389.685 98.8146 389.307 98.7859 388.928 98.7908C388.18 98.8083 387.432 98.7725 386.69 98.6836C386.324 98.6359 385.983 98.4777 385.711 98.2304L385.061 97.6669L385.104 77.3516C385.131 74.469 385.145 71.8313 385.147 69.4386C385.149 67.0459 385.142 64.4021 385.126 61.5072C385.109 58.6103 385.088 57.0792 385.061 56.9138C385.002 56.9138 384.827 57.2813 384.537 58.0162C384.248 58.7512 383.9 59.679 383.497 60.8029C383.292 61.4154 383.086 61.9921 382.881 62.5331C381.779 65.675 380.873 68.2474 380.165 70.2501C379.457 72.2529 378.884 73.8157 378.447 74.9385C378.012 76.0634 377.664 76.8851 377.403 77.4037C377.237 77.7839 377.009 78.1346 376.729 78.4418C376.54 78.6141 376.308 78.7335 376.058 78.7878C376.017 78.8216 375.973 78.8504 375.926 78.8736C375.075 79.1729 374.177 79.3191 373.274 79.3053L372.255 79.2839C371.525 79.2352 370.809 79.0513 370.146 78.7419C370.13 78.7417 370.113 78.7377 370.098 78.7303C370.083 78.7228 370.07 78.7122 370.06 78.699C369.773 78.588 369.508 78.4273 369.278 78.2244C368.934 77.8745 368.648 77.4736 368.428 77.0362C368.096 76.4441 367.633 75.4928 367.039 74.1821C366.446 72.8714 365.625 71.0484 364.576 68.7128L364.315 68.1953C363.623 66.6397 362.904 65.0758 362.159 63.5039C361.414 61.9319 360.827 60.7151 360.398 59.8536L358.877 56.9138V67.8921C358.846 74.0596 358.744 79.8525 358.569 85.2707C358.395 90.6889 358.207 94.1596 358.006 95.6825C357.952 96.3951 357.679 97.074 357.224 97.6271C356.687 98.1325 356.027 98.4903 355.308 98.6652C354.231 98.9486 353.122 99.0937 352.008 99.097H351.546C350.641 99.1145 349.737 99.0272 348.852 98.8367C347.171 98.3774 346.185 97.8302 345.896 97.1953C345.578 96.7053 345.353 94.4209 345.222 90.3419C345.09 86.2629 345.026 79.7004 345.028 70.6543C345.028 51.4639 345.346 41.392 345.982 40.4386C346.075 40.0486 346.27 39.6902 346.549 39.4005C346.924 39.0646 347.349 38.7879 347.808 38.5798C349.087 38.0501 350.466 37.7995 351.851 37.8448H352.112C353.519 37.8228 354.919 38.0562 356.241 38.5338C357.457 38.9904 358.534 39.7496 359.37 40.7387C360.355 41.835 361.608 43.8235 363.129 46.7041C364.65 49.5847 366.758 53.879 369.453 59.5872L371.301 63.5865C371.863 64.8115 372.247 65.6393 372.452 66.0701L373.068 67.4542L375.414 60.8397C377.182 55.8522 379.078 51.0311 381.104 46.3764C383.13 41.7217 384.521 38.9656 385.276 38.1082C386.059 37.4753 387.131 37.1589 388.494 37.1589L389.726 37.1803C390.473 37.1905 391.294 37.5406 392.189 38.2307Z" fill="#997B5F"/>
<path d="M75.2761 12.1676C75.353 12.0481 75.6425 12.0512 76.0889 12.2411C76.7135 12.5384 77.2637 12.9704 77.6993 13.5058C78.3765 14.3163 78.8296 15.2884 79.014 16.3262C79.2387 17.6232 79.0682 18.9573 78.5244 20.1571C78.3849 20.4764 78.2191 20.7837 78.0287 21.0758C77.8442 21.3546 77.6383 21.6187 77.4129 21.8659C76.9911 22.3344 76.5877 22.6958 76.2583 23.0296C75.5994 23.6727 75.236 24.2821 75.1652 24.7904C75.1259 25.0167 75.1483 25.2493 75.2299 25.4641C75.2967 25.6459 75.3946 25.8148 75.5193 25.9633C75.7287 26.2205 75.9689 26.3277 75.9781 26.4777C75.9781 26.5512 75.9257 26.6278 75.781 26.686C75.5697 26.7526 75.3427 26.7526 75.1314 26.686C74.791 26.5862 74.4858 26.393 74.2508 26.1286C74.0999 25.9636 73.9734 25.778 73.8751 25.5774L73.8012 25.409L73.7397 25.2253C73.7027 25.0979 73.6759 24.9679 73.6596 24.8363C73.5993 24.2824 73.6797 23.7222 73.8936 23.2072C74.1149 22.6743 74.416 22.1777 74.7865 21.7342C75.1375 21.2963 75.5132 20.9013 75.8211 20.5093C75.9712 20.3238 76.11 20.1295 76.2367 19.9275C76.3636 19.7217 76.4767 19.5079 76.5754 19.2874C76.9567 18.4368 77.1237 17.5066 77.0619 16.5773C77.0021 15.7959 76.7931 15.0331 76.4461 14.3296C75.8334 13.0893 75.1098 12.4309 75.2761 12.1676Z" fill="#BFA084"/>
<path d="M85.2306 0.419895C85.326 0.315777 85.6616 0.419895 86.1543 0.756749C86.8431 1.26116 87.4363 1.88329 87.9062 2.59413C88.2423 3.08615 88.528 3.61037 88.7591 4.15897C89.0403 4.80358 89.2399 5.48043 89.3534 6.17397C89.4168 6.5853 89.4302 7.00273 89.3934 7.41726C89.3518 7.87661 89.2364 8.32635 89.0516 8.74936C88.6793 9.51009 88.1958 10.2118 87.6168 10.8317C87.3674 11.1196 87.1365 11.3891 86.9425 11.6463C86.8563 11.778 86.767 11.9066 86.6777 12.0352C86.5884 12.1638 86.5268 12.3047 86.4468 12.4364C86.1713 12.9688 85.9644 13.5337 85.831 14.1176C85.7086 14.6596 85.6425 15.2127 85.6339 15.7682C85.6339 16.0315 85.6339 16.2888 85.6616 16.5337C85.6784 16.7708 85.7072 17.0069 85.7478 17.2411C85.8738 17.968 86.0803 18.6787 86.3636 19.3603C86.4499 19.6236 86.5422 19.8165 86.5761 19.9727C86.61 20.1289 86.61 20.233 86.5545 20.2789C86.4991 20.3249 86.3944 20.3157 86.2466 20.2391C86.0346 20.1306 85.8421 19.9878 85.677 19.8165C85.0534 19.2055 84.5784 18.4607 84.2884 17.6392C84.1879 17.3667 84.1036 17.0886 84.0359 16.8063C83.7883 15.8128 83.7401 14.7805 83.8943 13.7685C84.0156 12.985 84.2521 12.2235 84.5963 11.5085C84.6948 11.3217 84.781 11.1318 84.9042 10.9512L85.2521 10.4091C85.5015 10.0662 85.7663 9.7538 86.0157 9.45982C86.4639 8.98862 86.8518 8.46404 87.1703 7.89804C87.283 7.6747 87.3589 7.43484 87.3951 7.18759C87.435 6.92517 87.4453 6.65915 87.4259 6.39445C87.3787 5.83846 87.2755 5.28858 87.118 4.75306C86.9817 4.26577 86.813 3.78802 86.613 3.32296C86.3023 2.63432 85.9528 1.96364 85.5662 1.31409C85.2737 0.836369 85.129 0.533201 85.2306 0.419895Z" fill="#BFA084"/>
<path d="M97.3925 16.3903C97.334 16.6965 98.0822 17.0242 98.6857 17.8786C99.0161 18.343 99.2082 18.8907 99.2399 19.4587C99.2575 19.7769 99.221 20.0958 99.1321 20.4019C99.0856 20.5587 99.0258 20.7114 98.9536 20.8582C98.8698 21.0196 98.7752 21.1751 98.6703 21.3237C98.1355 21.9884 97.5596 22.6194 96.946 23.2131L96.7213 23.4642C96.6443 23.553 96.5673 23.6388 96.4965 23.7276C96.3577 23.9003 96.2282 24.0802 96.1086 24.2665C95.8855 24.6081 95.7046 24.9752 95.5697 25.3598C95.4524 25.6888 95.386 26.0337 95.3727 26.3826C95.3634 26.6506 95.402 26.9181 95.4866 27.1727C95.5381 27.3371 95.6277 27.4871 95.7483 27.6106C95.8407 27.6933 95.9207 27.7239 95.9916 27.7025C96.1363 27.6565 96.204 27.433 96.3149 27.1329C96.3799 26.9597 96.4539 26.79 96.5365 26.6245C96.6493 26.4111 96.7779 26.2064 96.9214 26.0121C97.0994 25.7725 97.295 25.5463 97.5064 25.3353C97.6173 25.2189 97.7435 25.1026 97.8759 24.9831C97.9406 24.9219 98.0114 24.8668 98.0791 24.8055L98.3039 24.6156C98.6118 24.3554 98.9628 24.0736 99.3261 23.7398C99.7311 23.3769 100.096 22.9725 100.416 22.5333C100.59 22.2855 100.741 22.0232 100.869 21.7493C100.997 21.4768 101.095 21.1914 101.161 20.898C101.283 20.3377 101.291 19.7586 101.183 19.1954C101.087 18.6929 100.897 18.2129 100.622 17.7806C100.388 17.4112 100.09 17.0858 99.7418 16.819C99.2636 16.4396 98.6826 16.2103 98.073 16.1606C97.6481 16.1361 97.4171 16.2525 97.3925 16.3903Z" fill="#BFA084"/>
<path d="M105.278 84.6733C102.274 84.7817 99.2673 84.6085 96.2965 84.1557V86.8016C96.2719 88.4889 96.2503 90.0139 96.2349 91.0612C96.2349 91.9432 96.2349 92.4913 96.2349 92.5005C95.9881 92.5465 95.7378 92.5711 95.4867 92.574H95.1357C94.8032 92.574 93.9965 92.574 93.2606 92.574L92.1429 92.5403H91.6872L91.4224 92.5127L91.0838 92.5373C90.1447 92.5709 89.2363 92.6016 89.0608 92.6016H88.5251C88.5097 92.6016 88.4974 92.5832 88.4789 92.5556C87.4505 92.5832 86.5607 92.6016 86.3667 92.6016H85.6278C85.4553 92.6016 85.0366 91.2235 85.012 89.5393V87.3773C85.012 84.8846 84.9873 82.2203 84.9812 79.9573C82.5562 78.4807 80.2175 76.8684 77.9764 75.128C74.3925 72.4087 70.8947 69.5853 67.4124 66.7281C67.4124 73.6918 67.4411 79.745 67.4986 84.8876C67.554 90.1609 67.6104 93.2497 67.6679 94.1541C67.7849 95.7619 68.062 96.8796 68.5085 97.5074C68.9549 98.1351 69.7616 98.5516 70.9378 98.7568C71.8554 98.9895 74.5074 99.1059 78.894 99.1059H80.3996C82.7212 99.0753 84.4659 99.0457 85.6339 99.0171C86.0496 99.0171 86.4221 98.9926 86.7547 98.9742C87.4074 99.0171 88.2008 99.0467 89.1347 99.063C91.0129 99.0916 92.4826 99.1059 93.5439 99.1059C95.1491 99.1059 96.7399 99.0763 98.3163 99.0171C100.985 98.9313 102.677 98.8007 103.394 98.6251C103.993 98.5025 104.531 98.178 104.918 97.7064C105.248 97.2695 105.485 96.4447 105.629 95.2321C105.773 94.0194 105.888 92.1422 105.974 89.6005C106.027 88.3021 106.069 86.6566 106.1 84.6641L105.278 84.6733Z" fill="#8A6A50"/>
<path d="M85.9603 93.2421C85.6524 93.0124 84.9657 93.0768 84.4208 93.3799C83.8758 93.6831 83.574 94.1179 83.7249 94.3445C83.8709 94.5506 83.9668 94.7875 84.0051 95.0366C84.0051 95.1867 84.5655 95.3122 85.2521 95.3122C85.9223 95.3173 86.5855 95.1762 87.1949 94.8988C87.2795 94.8668 87.3523 94.8099 87.4036 94.7358C87.4549 94.6617 87.4824 94.5739 87.4824 94.4839C87.4824 94.3939 87.4549 94.306 87.4036 94.2319C87.3523 94.1578 87.2795 94.101 87.1949 94.0689C86.8285 93.8423 86.2651 93.4748 85.9603 93.2421Z" fill="#BFA084"/>
<path d="M78.2165 93.0455C78.6752 93.0455 78.549 93.658 77.9394 94.4266C77.3297 95.1953 76.5784 95.7434 76.2736 95.67C75.9688 95.5965 75.7163 95.4066 75.7163 95.2535C75.7416 94.9291 75.7889 94.6068 75.8579 94.2888C75.9161 94.0765 76.0209 93.8797 76.1646 93.7124C76.3083 93.545 76.4875 93.4114 76.6893 93.3211C77.1807 93.1504 77.696 93.0574 78.2165 93.0455Z" fill="#BFA084"/>
<path d="M100.986 52.7455C101.444 52.7455 101.632 53.2416 101.401 53.851C101.17 54.4604 100.675 55.0759 100.293 55.229C99.8955 55.3828 99.4648 55.4313 99.0429 55.3699C98.735 55.2933 98.4886 55.1065 98.4886 54.9534C98.5125 54.6291 98.5588 54.3068 98.6272 53.9888C98.6854 53.7765 98.7901 53.5796 98.9339 53.4123C99.0776 53.245 99.2568 53.1114 99.4585 53.0211C99.95 52.8504 100.465 52.7574 100.986 52.7455Z" fill="#BFA084"/>
<path d="M72.1077 89.0431C72.2571 89.0789 72.3968 89.1468 72.517 89.242C72.6372 89.3373 72.735 89.4575 72.8035 89.5943C72.8805 89.824 72.6927 90.0721 72.3879 90.1456C72.0575 90.2194 71.7114 90.1704 71.4149 90.0077C71.3602 89.9716 71.3133 89.9251 71.2767 89.8709C71.2401 89.8167 71.2147 89.7558 71.2018 89.6918C71.189 89.6278 71.1889 89.5619 71.2017 89.4979C71.2145 89.4339 71.2399 89.373 71.2763 89.3187C71.3744 89.1992 71.5047 89.1098 71.6518 89.061C71.799 89.0122 71.9571 89.006 72.1077 89.0431Z" fill="#BFA084"/>
<path d="M73.5119 84.7622C73.6658 84.9153 74.0384 84.8541 74.3463 84.6244C74.6313 84.4302 74.8299 84.134 74.9005 83.7976C74.9005 83.5679 74.5926 83.4454 74.2077 83.522C74.0362 83.5465 73.8724 83.6087 73.728 83.704C73.5837 83.7994 73.4625 83.9255 73.3733 84.0732C73.337 84.1905 73.3307 84.3149 73.3549 84.4352C73.3791 84.5555 73.433 84.6679 73.5119 84.7622Z" fill="#BFA084"/>
<path d="M99.0368 88.9056C99.1907 89.0556 99.5633 88.9944 99.8712 88.7678C100.156 88.5724 100.355 88.2751 100.425 87.9379C100.425 87.7113 100.118 87.5857 99.7326 87.6623C99.5613 87.6874 99.3977 87.7498 99.2535 87.8451C99.1092 87.9404 98.9879 88.0662 98.8982 88.2135C98.8619 88.3312 98.8556 88.4561 98.8798 88.5769C98.9039 88.6977 98.9579 88.8106 99.0368 88.9056Z" fill="#BFA084"/>
<path d="M79.6051 83.5217C79.7559 83.7483 80.5072 83.6228 81.2708 83.243C82.0344 82.8633 82.5948 82.3059 82.5178 82.0181C82.494 81.8802 82.428 81.753 82.3288 81.6538C82.2296 81.5546 82.1021 81.4883 81.9636 81.4638H81.1323C80.7931 81.4945 80.4629 81.5891 80.1593 81.7425C79.8308 81.9201 79.5829 82.2159 79.4665 82.5693C79.3967 82.893 79.4458 83.2309 79.6051 83.5217Z" fill="#BFA084"/>
<path d="M70.5806 49.9896C70.6576 50.1397 70.9716 50.0784 71.2765 49.8518L72.388 49.0219C72.6959 48.7953 73.1301 48.483 73.3579 48.3329C73.5857 48.1829 73.6504 47.7449 73.4965 47.3652C73.3425 46.9855 72.7205 46.8018 72.1078 46.9518L71.5536 47.503L71.3565 47.699C71.0327 48.1488 70.7717 48.6402 70.5806 49.1597C70.5054 49.4313 70.5054 49.7181 70.5806 49.9896Z" fill="#BFA084"/>
<path d="M75.4393 53.8392C75.4393 53.6892 75.1314 53.6892 74.7465 53.8392C74.3616 53.9893 74.0537 54.3016 74.0537 54.5313C74.0537 54.761 74.1769 54.9447 74.3308 54.9447C74.5668 54.9287 74.7996 54.8824 75.0236 54.8069C75.2514 54.7304 75.4393 54.5436 75.4393 54.3904V53.8392Z" fill="#BFA084"/>
<path d="M79.6051 41.002C79.2972 40.7723 78.9247 40.6958 78.7707 40.8642C78.4684 41.2122 78.1907 41.5806 77.9394 41.9666C77.6685 42.3379 77.4787 42.7614 77.3821 43.2099C77.3821 43.4365 77.69 43.5008 78.0779 43.3477C78.4774 43.191 78.8993 43.098 79.328 43.0721C79.628 43.0735 79.9201 42.9766 80.1593 42.7965C80.2431 42.6772 80.2991 42.5407 80.323 42.3972C80.347 42.2536 80.3384 42.1065 80.2979 41.9666C80.1657 41.5852 79.925 41.2501 79.6051 41.002Z" fill="#BFA084"/>
<path d="M84.1836 41.9663C84.1097 41.6601 83.8572 41.5376 83.6294 41.6907C83.3048 41.9922 83.0658 42.3735 82.9366 42.7962V43.3474C82.6287 43.5005 82.4439 43.6842 82.5178 43.7608C82.5917 43.8374 82.9089 43.7761 83.2137 43.623C83.5381 43.4564 83.8218 43.2213 84.045 42.934C84.208 42.6389 84.2573 42.2949 84.1836 41.9663Z" fill="#BFA084"/>
</svg>
