<svg width="147" height="141" viewBox="0 0 147 141" fill="none" xmlns="http://www.w3.org/2000/svg">
<path d="M70.1594 8.77274C85.6067 8.77274 100.428 14.4785 111.839 24.8462C112.048 25.055 112.465 25.055 112.674 24.7767C112.883 24.5679 112.883 24.1504 112.605 23.9417C100.984 13.3652 85.885 7.58984 70.1594 7.58984C35.2987 7.58984 6.97876 35.9794 6.97876 70.8401C6.97876 86.5657 12.8237 101.665 23.3306 113.285C23.4698 113.424 23.6089 113.494 23.7481 113.494C23.8872 113.494 24.0264 113.424 24.1656 113.355C24.3743 113.146 24.4439 112.729 24.2352 112.52C13.8674 101.108 8.16166 86.2874 8.16166 70.8401C8.16166 36.6056 35.9946 8.77274 70.1594 8.77274Z" fill="#37271B"/>
<path d="M120.676 32.8484C120.467 32.5701 120.119 32.5005 119.841 32.7093C119.563 32.918 119.493 33.2659 119.702 33.5443C127.843 44.3295 132.157 57.2718 132.157 70.8403C132.157 105.075 104.324 132.838 70.1594 132.838C56.5909 132.838 43.7182 128.524 32.8633 120.383C32.585 120.174 32.2371 120.244 32.0284 120.522C31.8196 120.8 31.8892 121.148 32.1675 121.357C43.2311 129.637 56.3126 134.021 70.1594 134.021C105.02 134.021 133.41 105.631 133.41 70.7708C133.41 56.9935 129.026 43.8424 120.676 32.8484Z" fill="#37271B"/>
<path d="M60.9051 104.311C65.7759 104.311 70.4379 103.128 75.2391 102.014C80.8752 100.692 86.7202 99.7181 92.4259 98.6744C95.3484 98.1177 98.2708 97.1436 101.263 97.0044C101.611 97.0044 101.959 97.0044 102.167 96.7957C102.376 96.5869 102.515 96.3086 102.585 96.0303C103.837 87.8196 103.698 80.7918 103.35 72.9986C103.072 67.919 103.629 62.7004 102.098 57.8992C101.959 57.5513 101.889 57.2034 101.611 56.9946C101.611 56.9946 101.541 56.925 101.472 56.925C101.68 56.7163 101.82 56.438 101.82 56.0901C101.75 55.603 101.472 55.3247 101.332 55.1159C98.8971 52.5414 96.4617 49.8972 93.748 47.4619C92.7738 46.6269 91.7301 45.7223 90.7559 44.8873C88.3205 42.8694 85.8156 40.782 83.8673 38.277L83.7977 38.2074C83.4498 37.7899 83.1019 37.3724 82.5452 37.0245C81.6407 36.5374 80.5969 36.6766 79.8315 36.8158L69.255 38.4162C67.0284 38.7641 64.7322 39.112 62.4359 39.5295C56.4519 40.6428 50.4678 42.3128 44.6229 43.9132C44.5533 43.9132 44.5533 43.9132 44.4837 43.9827C43.8575 44.3307 42.8138 44.4698 41.77 44.6786C39.8913 45.0265 37.7342 45.3744 36.7601 46.8356C36.6905 46.9052 36.6209 46.9052 36.5513 47.0444C36.4818 47.1835 36.4122 47.3227 36.4122 47.4619C35.9947 48.5056 36.2034 49.8277 36.4122 51.0106C36.4818 51.428 36.5513 51.776 36.5513 52.1239C36.7601 54.4201 36.8297 56.2988 36.8993 58.0384C36.9688 60.0563 36.8993 62.1437 36.8993 64.092L36.7601 76.756C36.7601 78.1476 36.7601 79.5393 37.0384 81.0005C37.3863 82.3922 38.0822 83.7838 39.1955 85.3146C40.0305 86.4279 41.0046 87.4717 41.9092 88.4458L42.1179 88.6546C42.8833 89.4896 43.6487 90.255 44.4141 91.0899C49.0066 95.8911 53.8773 100.484 58.8873 104.728C59.0264 104.798 59.1656 104.867 59.2352 104.867C59.3743 104.867 59.5831 104.798 59.6527 104.658C59.8614 104.38 59.8614 104.032 59.5831 103.824C54.5732 99.579 49.7024 94.9866 45.1795 90.255C44.4141 89.4896 43.6487 88.6546 42.8833 87.8196L42.6746 87.6108C41.77 86.6367 40.8654 85.6625 40.0305 84.6188C39.0563 83.2967 38.3605 81.9747 38.0822 80.7918C37.8038 79.5393 37.8038 78.1476 37.8038 76.8952L37.943 64.2312C37.943 62.2133 38.0126 60.1258 37.943 58.108C37.8734 56.3684 37.8038 54.4897 37.5951 52.1239C37.5951 51.776 37.5255 51.3585 37.4559 50.941C37.3168 50.1756 37.1776 49.2014 37.2472 48.5056C38.2909 49.271 39.2651 49.8972 40.1696 50.5235C42.605 52.1935 44.6925 53.5851 47.1974 56.0901C48.3803 57.273 49.3545 58.0384 50.4678 58.9429C52.1378 60.3346 54.2948 62.0741 58.261 66.1099C58.3306 66.1795 58.4002 66.2491 58.4698 66.2491C57.8435 68.6149 58.5393 72.7202 58.6785 73.8335C58.8177 74.7381 58.6785 75.6427 58.5393 76.5472C57.9131 81.4876 57.9131 86.5671 58.6785 91.5074C59.3048 95.8215 60.4876 100.066 59.931 104.38C60.3485 104.311 60.6268 104.311 60.9051 104.311ZM59.096 65.0662C55.1994 61.0304 53.0423 59.2908 51.3724 57.8992C50.2591 56.9946 49.3545 56.2292 48.2412 55.1159C45.6666 52.5414 43.5096 51.0801 41.0742 49.4102C40.1 48.7839 39.1259 48.0881 38.0126 47.2531C38.8476 46.4181 40.448 46.1398 42.0483 45.8615C43.1617 45.6527 44.2054 45.444 45.0404 45.0961C50.8157 43.4957 56.7302 41.8257 62.6447 40.7124C64.9409 40.2949 67.2371 39.947 69.3942 39.5991L79.9707 37.9987C80.7361 37.8595 81.4319 37.7899 81.919 38.0683C82.2669 38.277 82.4756 38.5553 82.754 38.9032L82.8236 38.9728C84.8414 41.5474 87.416 43.7044 89.9209 45.7223C90.8951 46.5573 91.9388 47.3923 92.913 48.2273C95.5571 50.5931 98.0621 53.2372 100.428 55.8117L100.497 55.8813C100.358 55.9509 100.289 56.0205 100.219 56.1596C100.15 56.2988 100.15 56.438 100.219 56.5771C100.15 56.5771 100.08 56.5771 100.01 56.5771C95.5571 57.2034 91.1038 57.8296 86.6506 58.4559C80.6665 59.2908 74.6824 60.1258 68.8375 61.5871C65.7759 62.3525 62.7143 63.257 59.7222 64.3704C59.4439 64.6487 59.2352 64.8574 59.096 65.0662ZM60.0006 91.2987C59.2352 86.4279 59.2352 81.4876 59.8614 76.6168V76.4081C60.0006 75.5035 60.1397 74.5294 59.931 73.5552C58.9568 67.432 59.7918 65.762 60.0702 65.6924C62.7839 64.6487 65.8455 63.7441 69.0463 62.9091C74.8216 61.4479 80.8752 60.6129 86.7202 59.8475L87.3464 59.7779L100.15 57.9688C100.289 57.9688 100.497 57.8992 100.637 57.8992C100.706 57.8992 100.776 57.8992 100.776 57.8992C100.845 57.9688 100.915 58.1775 100.915 58.2471C101.959 61.5871 102.028 65.1358 102.028 68.8932C102.028 70.2848 102.028 71.6765 102.098 73.0681C102.515 81.6268 102.585 88.0979 101.402 95.8215C101.332 95.8215 101.263 95.8215 101.193 95.8215C99.0362 95.8911 97.0183 96.3782 95.0005 96.8653C94.0959 97.074 93.1217 97.3523 92.1476 97.4915C90.6168 97.7698 89.086 98.0482 87.5551 98.3265C83.3802 99.0919 79.0661 99.8573 74.8912 100.831L74.1954 100.971C69.8117 102.014 65.6367 103.058 61.2531 103.128C61.4618 100.066 60.9051 97.074 60.4181 94.1516C60.3485 93.1774 60.1397 92.2033 60.0006 91.2987Z" fill="#37271B"/>
<path d="M77.0483 0.424805C74.6825 0.424805 72.3167 0.563969 69.9509 0.772716V1.32937C31.6807 1.46854 0.716553 32.5022 0.716553 70.842C0.716553 109.182 31.8198 140.285 70.1597 140.285C72.5254 140.285 74.8217 140.146 77.1179 139.937V140.494C115.666 140.424 146.978 108.973 146.978 70.4246C147.118 31.876 115.666 0.424805 77.0483 0.424805ZM144.195 85.7327H138.629C138.907 84.4106 139.185 83.0885 139.394 81.6969H144.961C144.752 83.0885 144.473 84.4106 144.195 85.7327ZM142.873 90.7426H137.376C137.794 89.4205 138.142 88.0984 138.42 86.7068H143.917C143.639 88.0984 143.221 89.4205 142.873 90.7426ZM141.064 95.7525H135.637C136.124 94.4304 136.611 93.1084 137.028 91.7167H142.525C142.108 93.1084 141.621 94.4304 141.064 95.7525ZM138.837 100.762H133.48C134.106 99.4404 134.662 98.1183 135.219 96.7266H140.646C140.09 98.1183 139.533 99.4404 138.837 100.762ZM136.124 105.772H130.905C131.67 104.45 132.366 103.128 133.062 101.737H138.35C137.654 103.128 136.889 104.45 136.124 105.772ZM132.853 110.782H127.774C128.678 109.46 129.513 108.138 130.348 106.746H135.567C134.662 108.138 133.758 109.46 132.853 110.782ZM128.817 115.792H123.877C124.99 114.47 125.965 113.148 127.008 111.756H132.088C131.044 113.148 129.931 114.47 128.817 115.792ZM117.963 125.812H113.579C115.179 124.56 116.71 123.237 118.241 121.776H122.903C121.303 123.237 119.633 124.56 117.963 125.812ZM110.169 130.822H108.987H108.639H106.342C108.36 129.569 110.378 128.247 112.257 126.786H116.571C114.553 128.247 112.396 129.569 110.169 130.822ZM98.7579 135.832H96.3922C99.245 134.649 102.028 133.327 104.742 131.796H108.36C105.229 133.396 102.028 134.719 98.7579 135.832ZM111.004 10.5838H109.056H108.708H105.925C103.42 9.12259 100.776 7.73094 98.1317 6.54804H102.794C105.577 7.73094 108.36 9.05301 111.004 10.5838ZM118.589 15.5937H113.231C111.422 14.2021 109.543 12.8104 107.525 11.558H108.639H108.987H112.674C114.692 12.8104 116.71 14.1325 118.589 15.5937ZM124.434 20.6037H118.937C117.476 19.212 116.014 17.89 114.414 16.5679H119.841C121.442 17.89 122.973 19.212 124.434 20.6037ZM133.132 30.6235H127.495C126.521 29.2319 125.478 27.9098 124.434 26.5877H130.07C131.183 27.9098 132.157 29.2319 133.132 30.6235ZM136.402 35.6334H130.696C129.931 34.2418 129.026 32.9197 128.191 31.5977H133.827C134.732 32.9197 135.637 34.2418 136.402 35.6334ZM139.116 40.6433H133.41C132.784 39.2517 132.018 37.9296 131.322 36.6076H137.028C137.724 37.9296 138.42 39.2517 139.116 40.6433ZM141.273 45.6533H135.567C135.01 44.2616 134.454 42.9396 133.897 41.6175H139.603C140.159 42.9396 140.716 44.2616 141.273 45.6533ZM143.012 50.6632H137.307C136.889 49.3411 136.472 47.9495 135.984 46.6274H141.69C142.108 47.9495 142.595 49.3411 143.012 50.6632ZM144.265 55.6731H138.559C138.281 54.3511 137.933 52.9594 137.515 51.6373H143.221C143.639 52.9594 143.986 54.3511 144.265 55.6731ZM145.865 70.4941C145.865 70.5637 145.865 70.6333 145.865 70.7029H140.229C140.229 69.3808 140.159 67.9892 140.09 66.6671H145.796C145.865 67.9196 145.865 69.2417 145.865 70.4941ZM140.02 65.693C139.951 64.3709 139.811 62.9793 139.603 61.6572H145.308C145.448 62.9793 145.587 64.3013 145.726 65.693H140.02ZM140.229 71.677H145.865C145.865 72.9991 145.796 74.3907 145.656 75.7128H140.02C140.159 74.3907 140.229 73.0687 140.229 71.677ZM145.169 60.683H139.464C139.255 59.361 139.046 57.9693 138.768 56.6473H144.474C144.752 57.9693 145.03 59.361 145.169 60.683ZM123.668 25.6136C122.486 24.2219 121.233 22.8999 119.981 21.5778H125.478C126.8 22.8303 128.052 24.2219 129.235 25.6136H123.668ZM139.533 80.7227C139.742 79.4007 139.881 78.0786 139.951 76.687H145.587C145.448 78.009 145.308 79.4007 145.1 80.7227H139.533ZM100.08 5.57389H95.6267C91.3127 3.90392 86.8594 2.58185 82.1974 1.81645C88.3902 2.23394 94.3743 3.55601 100.08 5.57389ZM1.89945 70.842C1.89945 33.198 32.5156 2.58185 70.1597 2.58185C107.804 2.58185 138.42 33.198 138.42 70.842C138.42 108.486 107.804 139.102 70.1597 139.102C32.5156 139.102 1.89945 108.486 1.89945 70.842ZM93.748 136.806H95.4876C93.4001 137.363 91.3127 137.85 89.1556 138.267C90.6864 137.85 92.2172 137.363 93.748 136.806ZM123.947 120.802H119.215C120.12 119.898 121.094 118.923 121.929 117.949C122.277 117.532 122.625 117.184 122.973 116.766H127.843C126.66 118.158 125.338 119.55 123.947 120.802Z" fill="#37271B"/>
</svg>
