<svg width="125" height="138" viewBox="0 0 125 138" fill="none" xmlns="http://www.w3.org/2000/svg">
<path d="M29.9047 57.2646C25.4656 57.2646 20.7654 59.9411 20.5696 65.8817C20.5696 66.7956 20.6349 67.7095 21.0265 68.5582C21.4182 69.4721 22.071 70.1902 22.8544 70.7777C24.3558 71.9528 26.3143 72.6056 28.2727 72.6056C28.9255 72.6056 29.513 72.5403 30.1658 72.4097C32.6465 71.8875 34.9313 70.1902 36.1716 67.9706C40.0884 61.1815 35.1924 57.2646 29.9047 57.2646ZM35.1924 67.3831C34.0826 69.3415 32.0589 70.843 29.9047 71.2999C29.3824 71.4305 28.7949 71.4958 28.2727 71.4958C26.5101 71.4958 24.8781 70.9083 23.5725 69.9291C22.8544 69.4068 22.3322 68.754 22.071 68.1012C21.8099 67.5137 21.6793 66.7956 21.6793 65.947C21.8752 60.7245 25.9226 58.4397 29.9047 58.4397C32.6465 58.4397 34.9313 59.5495 35.9758 61.2468C36.8244 62.8135 36.6286 64.9677 35.1924 67.3831Z" fill="#37271B"/>
<path d="M20.5041 88.2725C20.1124 88.2725 19.6554 88.3377 19.2637 88.403C13.3232 89.5128 13.5843 98.3257 18.154 101.067C18.9373 101.524 19.8513 101.786 20.8305 101.786C22.5278 101.786 24.2251 101.067 25.3348 99.8271C29.1864 95.4533 26.0529 88.2725 20.5041 88.2725ZM24.4862 99.0437C23.5723 100.023 22.2014 100.676 20.8305 100.676C20.0471 100.676 19.329 100.48 18.7415 100.154C16.7178 98.9132 15.4775 95.9756 15.9997 93.2991C16.1956 92.124 16.9789 90.035 19.4596 89.5128C19.786 89.4475 20.1777 89.3822 20.5041 89.3822C22.593 89.3822 24.4209 90.6226 25.3348 92.7115C26.1182 94.4741 26.314 97.02 24.4862 99.0437Z" fill="#37271B"/>
<path d="M102.627 68.3623C99.8851 68.3623 97.3391 68.9498 95.9682 70.1902C94.8585 71.1694 94.4015 72.7361 94.2057 74.2375C93.9445 76.7182 94.3362 79.5253 96.2294 81.2226C97.7961 82.5934 99.9503 82.9198 102.105 82.9198C102.431 82.9198 102.692 82.9198 103.019 82.9198C108.241 82.724 116.14 79.3947 113.072 72.7361C111.636 69.8638 106.935 68.3623 102.627 68.3623ZM111.962 77.6974C110.395 80.2434 106.217 81.6795 102.953 81.8101C102.692 81.8101 102.366 81.8101 102.105 81.8101C99.6892 81.8101 98.0572 81.3531 97.0127 80.3739C95.1196 78.6766 95.2502 75.6084 95.3807 74.3681C95.5766 72.7361 96.0335 71.6916 96.7516 71.0388C97.8614 70.0596 100.081 69.5374 102.692 69.5374C107.131 69.5374 111.048 71.1041 112.027 73.1931C112.745 74.8904 112.745 76.3918 111.962 77.6974Z" fill="#37271B"/>
<path d="M48.9664 41.2715C46.094 41.2715 43.6787 42.9035 43.1564 47.212C43.0911 47.8648 43.0911 48.5176 43.287 49.1051C43.4828 49.7579 43.8745 50.4107 44.3315 50.933C45.3759 52.2386 46.7468 53.2178 48.2483 53.9359C49.7497 54.654 51.447 55.0457 53.1443 55.0457C53.7318 55.0457 54.3194 54.9804 54.9069 54.9151C67.506 52.6956 56.6042 41.2715 48.9664 41.2715ZM54.6458 53.8053C54.1235 53.8706 53.6013 53.9359 53.0138 53.9359C51.5123 53.9359 50.0109 53.6095 48.64 52.9567C47.2691 52.3039 46.0288 51.39 45.1148 50.2802C44.6579 49.7579 44.3967 49.301 44.2662 48.844C44.1356 48.4523 44.1356 47.9301 44.2009 47.4078C44.5926 44.1438 46.2246 42.4465 48.9011 42.4465C53.2749 42.4465 59.1501 46.8203 59.4765 50.2802C59.6724 52.4344 56.9959 53.4137 54.6458 53.8053Z" fill="#37271B"/>
<path d="M117.641 54.6538C113.137 48.1258 107.001 43.5561 100.212 39.8352C100.407 38.4643 100.603 37.0934 100.864 35.7225C102.105 27.4319 103.41 18.8801 105.565 10.5895L105.76 9.80616C106.544 6.93382 107.197 4.45316 104.52 2.16834C102.562 0.53633 100.473 0.53633 98.7101 2.36418C96.9476 4.12676 95.7073 8.82695 94.728 12.6132C94.3364 13.9841 94.01 15.2897 93.7488 16.2036C92.1168 20.9038 90.5501 25.7999 88.9834 30.7612C88.657 31.8709 88.2653 32.9807 87.9389 34.0905C76.3842 29.325 63.7198 27.3013 51.186 27.3013C49.4234 27.3013 47.6608 27.3666 45.8982 27.4319C41.8509 27.6277 37.7382 28.0194 33.9519 29.5209C29.5128 31.2834 25.7919 34.6127 22.5278 38.0726C9.40647 52.1732 1.89921 71.2351 0.789444 90.4928C0.332481 98.2612 1.05057 106.617 5.88132 112.753C10.5162 118.694 18.2846 121.436 25.8571 121.827C26.5099 121.893 27.1628 121.893 27.8156 121.893C30.2962 121.893 32.7769 121.632 35.0617 120.783C38.0646 119.673 40.7411 117.715 43.0912 115.56C47.3997 111.709 51.0554 107.205 55.3639 103.353C59.6724 99.5015 64.699 96.1722 70.4437 95.3888C70.9007 95.3236 71.3576 95.2583 71.8799 95.2583C71.2271 98.2612 70.4437 101.786 70.9659 105.181C71.2923 107.27 72.2716 109.424 73.773 110.86C72.8591 110.599 71.8799 110.469 70.9659 110.403C67.7672 110.273 66.1352 113.015 65.6782 115.691L64.6337 121.501C64.3073 123.264 63.9809 125.026 63.3934 126.723C63.2628 127.115 63.1323 127.507 62.9364 127.898C62.61 128.747 62.2836 129.596 62.0878 130.575C61.6308 132.795 62.0878 135.145 63.3281 137.038C63.3934 137.168 63.5893 137.429 63.8504 137.56C63.9809 137.625 64.1115 137.625 64.2421 137.625C64.5032 137.625 64.7643 137.495 64.8949 137.495C70.3784 135.21 76.0578 132.599 79.9094 127.898C80.8886 126.723 81.6067 125.548 81.9983 124.439C83.2387 121.109 82.3247 117.062 79.7788 114.255C79.126 113.537 78.2774 112.949 77.4287 112.362C79.6482 112.362 82.0636 110.795 83.6956 108.184C85.1971 105.834 85.9805 102.961 86.6333 100.415C86.8291 99.5668 87.0902 98.7834 87.2861 97.9348C91.921 99.3709 96.5559 100.807 101.256 100.807C101.909 100.807 102.627 100.807 103.28 100.742C112.941 99.8279 121.101 91.7331 123.582 82.3327C125.932 72.9324 123.19 62.6833 117.641 54.6538ZM70.1826 94.2138C65.0254 94.9319 59.8683 97.6736 54.5805 102.439C52.4263 104.398 50.4026 106.552 48.3789 108.575C46.4205 110.599 44.3968 112.753 42.3078 114.647C39.4355 117.258 37.0854 118.759 34.6047 119.673C32.6463 120.391 30.3615 120.718 27.7503 120.718C27.1628 120.718 26.5099 120.718 25.8571 120.652C17.6971 120.195 10.7121 117.062 6.72997 112.035C2.87842 107.205 1.31169 100.154 1.89921 90.4928C3.07426 70.7128 10.7121 52.369 23.3765 38.7254C25.8571 36.0489 29.7087 32.3279 34.4089 30.4348C38.0646 28.9333 42.112 28.6069 45.9635 28.4111C47.7261 28.3458 49.4887 28.2805 51.186 28.2805C64.5685 28.2805 76.7759 30.5653 87.6125 35.0044C86.4374 38.7254 85.3276 42.5769 84.2179 46.4938C83.0428 46.0368 81.8678 45.7104 80.5622 45.7104C78.1468 45.7104 75.5356 46.6896 72.9896 49.0397C72.2063 49.7578 71.4882 50.6064 71.0965 51.6509C70.1826 54.0663 71.2271 56.9386 73.1855 58.7665C75.0133 60.4638 77.494 61.3777 79.9746 62.0305C77.2981 72.149 74.6869 82.5939 72.0757 93.9527C71.4229 94.0832 70.7701 94.1485 70.1826 94.2138ZM83.8915 47.6688C82.6511 51.9773 81.4761 56.2858 80.301 60.7249C80.301 60.8555 80.2358 60.9207 80.2358 61.0513C78.2121 60.5291 75.7314 59.7457 73.9036 58.0484C72.4674 56.6775 71.2923 54.3274 72.141 52.1732C72.4021 51.4551 72.9244 50.737 73.7077 50.0189C75.862 47.9952 78.2121 47.016 80.5622 47.016C81.7372 46.9507 82.847 47.2119 83.8915 47.6688ZM78.8649 114.973C81.1497 117.454 81.9983 121.044 80.8886 123.982C80.4969 124.961 79.9094 126.005 78.9302 127.115C75.2092 131.554 69.7256 134.1 64.3726 136.385C64.2421 136.45 64.1768 136.45 64.1768 136.45C64.1768 136.45 64.1115 136.385 64.1115 136.32C63.067 134.688 62.6753 132.599 63.067 130.64C63.2628 129.792 63.524 129.008 63.8504 128.16C63.9809 127.768 64.1768 127.376 64.3073 126.919C64.8949 125.157 65.2213 123.264 65.5477 121.501L66.5922 115.691C66.788 114.647 67.5714 111.317 70.5743 111.317C70.6395 111.317 70.7048 111.317 70.7701 111.317C73.8383 111.578 76.9717 112.949 78.8649 114.973ZM86.4374 96.5639C86.3721 96.8903 86.2416 97.282 86.1763 97.6084C85.9805 98.457 85.7193 99.2404 85.5235 100.089C84.8707 102.57 84.0873 105.311 82.7164 107.531C81.5414 109.359 79.4524 111.252 77.1676 111.187C74.3605 110.991 72.4674 107.857 72.0104 104.854C71.4882 101.59 72.2716 98.1306 72.9896 95.0624C72.9896 94.9319 73.0549 94.8666 73.0549 94.736C73.1202 94.4749 73.1855 94.2138 73.2508 93.9527C75.862 82.7244 78.4079 72.3448 81.0844 62.2916C81.1497 61.9652 81.2803 61.5736 81.3455 61.2472C81.3455 61.1819 81.4108 61.0513 81.4108 60.986C82.5859 56.6122 83.7609 52.369 84.936 48.1258C85.0665 47.7341 85.1318 47.4077 85.2624 47.016C86.3721 43.0992 87.5472 39.2476 88.657 35.4614C88.7875 35.135 88.8528 34.7433 88.9834 34.4169C89.3098 33.2418 89.7014 32.1321 90.0278 31.0223C91.5946 26.061 93.1613 21.165 94.7933 16.4648C95.1197 15.5508 95.4461 14.2452 95.8378 12.8091C96.7517 9.34919 97.9921 4.649 99.5588 3.08227C100.93 1.71138 102.366 1.6461 103.867 2.95171C106.022 4.77956 105.499 6.60741 104.781 9.41447L104.585 10.1978C102.366 18.5537 101.06 27.1055 99.8199 35.4614C99.6241 36.7017 99.4282 37.942 99.2324 39.1824C99.2324 39.3129 99.1671 39.4435 99.1671 39.574C99.1018 39.8352 99.1018 40.0963 99.0365 40.3574C96.1642 58.5707 91.921 76.1964 86.4374 96.5639ZM122.407 82.0716C119.992 91.472 111.897 98.8487 103.084 99.6321C102.431 99.6973 101.844 99.6973 101.191 99.6973C96.6212 99.6973 91.9863 98.2612 87.5472 96.8903C93.0308 76.5881 97.274 59.0276 100.081 41.0102C106.413 44.5354 112.419 48.9744 116.793 55.3066C122.472 63.5972 124.561 73.5852 122.407 82.0716Z" fill="#37271B"/>
</svg>
