<svg width="119" height="139" viewBox="0 0 119 139" fill="none" xmlns="http://www.w3.org/2000/svg">
<path d="M118.375 33.2266L61.6651 0.453371C61.6651 0.453371 61.5955 0.383789 61.526 0.383789C61.526 0.383789 61.526 0.383789 61.4564 0.383789C61.3868 0.383789 61.3172 0.383789 61.2476 0.383789C61.178 0.383789 61.1085 0.383789 61.1085 0.453371L4.39893 33.157L4.32935 33.2266L4.25976 33.2962L0.571904 39.6978V39.7673L0.432739 39.9065V105.383L57.1423 138.087L113.852 105.383V105.314L118.583 99.5385C118.583 99.5385 118.583 99.4689 118.653 99.4689C118.653 99.4689 118.723 99.3993 118.723 99.3298C118.723 99.2602 118.723 99.2602 118.723 99.1906V99.121V33.7137C118.723 33.5049 118.583 33.2962 118.375 33.2266ZM5.16433 34.1312L59.6472 2.68L56.5856 7.55076L2.52021 38.7236L5.16433 34.1312ZM112.669 104.757L57.1423 136.765L1.61564 104.757V40.6023L57.1423 8.52491L112.669 40.6023V104.757ZM113.156 39.489L57.9077 7.62034L61.5955 1.77543L117.261 33.9224L113.156 39.489ZM117.54 98.9818L113.852 103.505V40.5328L117.54 35.5228V98.9818Z" fill="#37271B"/>
<path d="M26.6654 74.4895L17.1326 43.8734L11.7748 47.0741V99.4L18.1068 103.157V68.4359L28.7529 109.281L34.0411 112.273V34.1318L26.5958 38.5155V74.4895H26.6654ZM27.8483 74.4895V39.2113L32.9278 36.2193V110.324L29.8662 108.585L19.3592 68.2271C19.2201 67.6705 18.733 67.3226 18.2459 67.3226C18.1763 67.3226 18.1763 67.3226 18.1068 67.3226C17.5501 67.3922 17.063 67.8792 17.063 68.5055V101.14L13.0968 98.7738V47.77L16.576 45.6825L25.4825 74.8375C25.6216 75.3245 26.1087 75.6724 26.5958 75.6724C26.6654 75.6724 26.735 75.6724 26.8045 75.6724C27.4308 75.6029 27.8483 75.0462 27.8483 74.4895Z" fill="#37271B"/>
<path d="M40.373 30.1656V115.96L47.4704 120.135V77.6903H73.0767V69.062H47.0529V35.1755L57.1424 30.1656L74.3292 39.8375L78.7129 33.0184L57.1424 20.9111L40.373 30.1656ZM73.9117 38.2371L57.699 29.1218C57.4903 29.0523 57.3511 28.9827 57.1424 28.9827C56.9336 28.9827 56.7945 29.0523 56.5857 29.1218L46.4963 34.1318C46.0788 34.3405 45.87 34.758 45.87 35.1755V69.1316C45.87 69.7579 46.4267 70.3145 47.0529 70.3145H71.8242V76.5769H47.4704C46.8442 76.5769 46.2875 77.1336 46.2875 77.7598V118.118L41.5559 115.334V30.8614L57.1424 22.3028L77.0429 33.4359L73.9117 38.2371Z" fill="#37271B"/>
<path d="M87.4107 47.7697V107.819L95.1343 103.435V52.2229L102.44 57.0937V47.1434L82.4008 35.5928L78.6433 42.1335L87.4107 47.7697ZM82.8878 37.1932L101.327 47.8392V54.9366L95.8301 51.2488C95.6214 51.1096 95.4126 51.04 95.2039 51.04C94.9951 51.04 94.7864 51.1096 94.6472 51.1792C94.2297 51.3879 94.021 51.8054 94.021 52.2229V102.67L88.6632 105.732V47.7697C88.6632 47.3522 88.4544 47.0043 88.1065 46.7955L80.3133 41.716L82.8878 37.1932Z" fill="#37271B"/>
</svg>
