<svg width="120" height="124" viewBox="0 0 120 124" fill="none" xmlns="http://www.w3.org/2000/svg">
<path d="M95.9485 5.10841C95.7398 4.89966 95.4614 4.83008 95.1831 4.83008C94.9048 4.83008 94.5569 4.96924 94.3481 5.17799C93.9306 5.59548 93.861 6.29131 94.2785 6.77838C104.507 18.6074 110.074 33.7067 110.074 49.3627C110.074 77.8219 92.0519 102.593 65.054 111.361C63.7319 104.75 64.9148 97.7224 65.889 91.46C66.2369 89.3725 66.5848 87.0763 67.8373 85.4063C68.881 84.0147 70.4118 83.1101 72.0122 82.136L72.3601 81.9272C76.9526 79.2135 81.2667 76.0127 85.3024 72.5336C88.1553 70.0982 91.2865 67.1062 93.1652 63.2792C95.8093 57.7822 95.3919 51.6589 94.9744 45.6749C94.7656 42.6132 94.5569 39.4125 94.7656 36.3508C94.7656 35.9333 94.5569 35.5159 94.2089 35.2375C94.0002 35.0984 93.7915 35.0288 93.5827 35.0288C93.374 35.0288 93.1652 35.0984 92.9565 35.1679C86.1374 39.1341 79.04 43.5874 73.1951 49.3627C67.4894 54.9989 65.2627 57.9213 63.9407 66.3408C63.7319 67.8716 63.8711 69.7503 64.0103 71.6986C64.0798 72.1161 64.0798 72.6032 64.0798 73.0207C64.0798 73.5078 64.4278 73.9253 64.9148 74.0644C65.054 74.0644 65.1236 74.134 65.2627 74.134C65.6107 74.134 66.0281 73.9253 66.2369 73.6469C67.4198 71.977 68.3939 70.2374 69.3681 68.5674C70.2727 66.967 71.2468 65.2275 72.3601 63.6967C73.3343 62.305 75.0738 60.2871 77.3005 58.9651C76.3959 60.4263 75.4913 62.1659 74.5868 63.975C72.6385 67.802 70.4814 72.1857 67.0023 74.8298C67.0023 74.8298 66.9327 74.8298 66.9327 74.8994C66.0977 75.6648 64.0798 77.474 63.6623 78.4481C62.6186 80.6747 62.1315 83.1101 61.714 85.128C61.4357 86.3109 61.227 87.4242 61.0182 87.9113C61.0182 87.9113 61.0182 87.9113 60.9486 87.9113C60.5311 87.9113 59.6962 87.5634 58.5828 86.6588C58.3741 86.4501 58.1654 86.1022 57.9566 85.7542C55.2429 80.6747 55.3125 74.7602 55.5212 69.1937C56.0083 62.9313 49.5372 54.8597 45.2926 49.5019L45.1535 49.3627C43.7618 47.6927 42.3006 46.0924 40.8394 44.492C38.5432 41.987 36.3165 39.6908 34.6465 36.9075C34.4378 36.5596 34.2291 36.2117 34.0203 35.8638C33.8116 35.5159 33.6028 35.0984 33.3245 34.7505C40.3523 37.2554 45.4318 40.9433 48.563 45.6749C50.1634 48.0407 50.8592 50.6152 51.6246 53.2593C51.9029 54.2335 52.1813 55.1381 52.4596 56.1818C52.5292 56.4601 52.5988 56.7384 52.7379 57.0864C52.8771 57.7822 53.0858 58.478 53.5033 59.4522C53.7817 60.148 54.3383 61.0525 55.2429 61.0525C56.7737 61.0525 56.9129 59.1042 56.9129 58.1301C57.2608 52.7723 56.8433 46.9273 55.6604 39.7604C55.3125 37.8121 54.895 35.5159 53.5729 33.6371C52.39 31.828 50.6505 30.5755 49.1197 29.6014C45.1535 26.9572 40.9785 24.7306 36.8732 22.5736C33.6028 20.834 30.1933 19.0944 26.9925 17.0766C23.2351 14.7108 19.6168 12.0666 16.2073 9.14418C15.9985 8.93543 15.7202 8.86585 15.4418 8.86585C15.3723 8.86585 15.2331 8.86585 15.1635 8.93543C14.8156 9.00501 14.4677 9.35292 14.3285 9.70084C11.6844 17.5636 10.7103 26.5397 11.4757 36.3508C11.754 39.83 12.2411 43.8657 14.0502 47.484C15.9985 51.4502 19.3385 54.5118 22.2609 57.2951C26.8533 61.6092 31.6545 66.132 37.2211 69.5416C37.9865 70.0287 38.8215 70.4462 39.5869 70.9332C40.909 71.6986 42.3006 72.464 43.5531 73.3686C48.0759 76.4998 51.6942 81.3706 53.9208 87.2155V94.6608C53.8513 95.3566 53.8513 96.957 53.7817 99.114C53.6425 103.011 53.4338 111.569 52.8771 114.074C50.1634 114.422 47.4497 114.561 44.8056 114.561C29.2191 114.561 14.0502 108.925 2.22122 98.7661C2.01247 98.5574 1.73414 98.4878 1.45581 98.4878C1.17749 98.4878 0.829574 98.627 0.620828 98.8357C0.203334 99.2532 0.133752 99.949 0.551245 100.436C13.424 115.327 32.072 123.955 51.7638 123.955C89.0599 123.955 119.328 93.617 119.328 56.3905C119.398 36.6292 110.839 17.9811 95.9485 5.10841ZM51.8334 122.702C31.7241 122.702 13.7023 113.726 1.5254 99.6011C13.1456 109.621 28.3146 115.744 44.8751 115.744C47.9368 115.744 50.8592 115.535 53.7817 115.118C54.895 112.961 54.895 96.7482 55.1037 94.5912V86.8676C52.9467 81.0922 49.3284 75.804 44.2489 72.3249C42.231 70.9332 39.9348 69.8199 37.8473 68.4978C32.4199 65.1579 27.6883 60.7742 23.0263 56.4601C20.0343 53.6072 16.9031 50.6848 15.0939 46.9969C13.4935 43.7266 12.9369 39.9691 12.6586 36.3508C11.9627 27.5835 12.6586 18.5378 15.5114 10.1879C18.921 13.1799 22.6088 15.8241 26.4358 18.1899C33.6724 22.6431 41.5352 25.9831 48.563 30.6451C50.0938 31.6888 51.6942 32.8021 52.7379 34.4025C53.8513 36.0725 54.2687 38.0904 54.6167 40.1083C55.6604 46.0924 56.2866 52.2156 55.8691 58.1997C55.7996 59.5913 55.5908 60.0088 55.3821 60.0088C55.1037 60.0088 54.7558 59.1738 54.7558 59.1738C54.1992 57.8518 54.06 56.8776 53.7817 55.973C52.5292 52.0764 51.9725 48.5973 49.7459 45.1878C45.1535 38.2991 37.2211 34.4721 29.3583 32.3847C31.4458 33.4284 32.4199 35.5854 33.6724 37.6033C36.5949 42.2653 40.8394 45.8836 44.3185 50.1281C48.4238 55.2772 54.8254 63.2096 54.5471 69.2633C54.2687 75.2473 54.3383 81.1618 57.1216 86.3805C57.3999 86.8676 57.6087 87.2851 58.0262 87.633C58.9308 88.3288 60.1832 89.0942 61.0878 89.0942C61.5749 89.0942 61.9228 88.8854 62.2011 88.3984C62.9665 86.9371 63.2449 82.5535 64.9148 78.9352C65.3323 78.1002 67.9069 75.804 67.9069 75.804C74.7259 70.5157 76.6742 59.4521 81.3362 56.4601C77.3005 56.808 73.8909 59.7305 71.5251 63.0008C69.2289 66.2016 67.6285 69.7503 65.4019 72.9511C65.2627 70.6549 64.9844 68.2195 65.2627 66.48C66.4456 58.7563 68.3939 56.0426 74.0997 50.3369C79.8054 44.7007 86.6245 40.317 93.5827 36.2813C92.9565 45.1878 96.0181 54.7206 92.1215 62.7921C90.4515 66.3408 87.5291 69.1241 84.6066 71.629C80.5708 75.0386 76.3263 78.1698 71.8035 80.8835C70.0639 81.9272 68.1852 82.971 66.9327 84.6409C65.5411 86.5196 65.1236 88.955 64.7757 91.2512C63.5928 98.4182 62.4795 105.794 64.219 112.822C91.4257 104.541 111.257 79.2135 111.257 49.2931C111.257 32.7326 105.203 17.5636 95.1135 5.94339C109.239 18.1203 118.215 36.1421 118.215 56.2514C118.215 92.9908 88.5032 122.702 51.8334 122.702Z" fill="#37271B"/>
<path d="M60.879 31.8293C61.2269 31.8293 61.5748 31.7597 61.9228 31.551C62.8969 30.9247 63.1057 29.6723 63.2448 28.4894C63.5231 25.9844 63.7319 23.1315 61.9923 21.3224C61.6444 20.9049 61.1573 20.6266 60.9486 20.1395C60.3919 19.0958 61.1573 17.4258 60.2528 17.4258C60.044 17.4258 59.7657 17.4954 59.3482 17.7041C58.2349 18.2608 57.3303 21.9486 57.052 23.0619C56.4953 25.4277 56.6345 28.0719 57.9566 30.0898C58.722 31.0639 59.8353 31.8293 60.879 31.8293ZM58.3045 23.3403C58.8611 21.1136 59.2786 19.9307 59.557 19.3741C59.557 19.7916 59.6961 20.2787 59.9049 20.6961C60.1832 21.1832 60.5311 21.6007 60.879 21.879C60.9486 21.9486 61.0878 22.0878 61.1573 22.1574C62.4794 23.6186 62.3402 26.1236 62.1315 28.3502C61.9923 29.3243 61.8532 30.2289 61.3661 30.5072C61.2269 30.5768 61.0878 30.6464 60.9486 30.6464C60.3919 30.6464 59.557 30.0898 59.0699 29.3939C58.0261 27.8631 57.7478 25.6365 58.3045 23.3403Z" fill="#37271B"/>
<path d="M46.3363 12.9027C46.6842 12.9723 47.1017 13.0419 47.5192 13.0419C48.215 13.0419 48.8413 12.8332 49.2587 12.3461C49.6067 11.9286 49.7458 11.4415 49.8154 10.8849C50.0242 8.86697 48.3542 1.07376 46.2667 0.169192C45.9884 0.0996094 45.8492 0.0996094 45.7101 0.0996094C43.553 0.0996094 42.7876 6.70992 42.7876 8.44948C42.7876 9.21488 42.8572 10.0499 43.2051 10.7457C43.7617 11.9286 45.0142 12.6244 46.3363 12.9027ZM45.7101 1.28251C46.9625 1.83917 48.8413 8.65823 48.5629 10.8153C48.4933 11.2328 48.4238 11.5111 48.2846 11.6503C48.0759 11.859 47.7279 11.9286 47.4496 11.9286C47.1713 11.9286 46.893 11.859 46.545 11.7894C45.8492 11.6503 44.6663 11.2328 44.1792 10.2586C43.9009 9.77154 43.9009 9.07572 43.9009 8.44948C43.9705 5.94452 44.8751 1.76958 45.7101 1.28251Z" fill="#37271B"/>
<path d="M66.7238 20.8349C67.4892 21.2524 68.3938 21.4612 69.2984 21.4612C70.2029 21.4612 71.0379 21.2524 71.8033 20.7653C73.3341 19.8608 74.1691 17.9125 73.682 16.1729C72.847 13.4592 69.1592 12.2067 68.8113 9.42343C68.6721 8.3797 69.02 7.26638 68.3242 6.50098C67.4892 7.75346 66.9326 9.28427 66.3063 10.6759C65.9584 11.5109 65.5409 12.2763 65.3322 13.1809C64.9843 14.4334 64.9843 15.825 64.9843 17.0775C64.9843 17.982 64.9843 18.9562 65.4713 19.7216C65.8192 20.2087 66.2367 20.5566 66.7238 20.8349ZM66.4455 13.5288C66.6542 12.7634 67.0021 11.998 67.3501 11.2326C67.4892 10.9542 67.6284 10.6759 67.7675 10.328C68.185 11.8588 69.3679 12.9721 70.4813 13.9463C71.3858 14.7813 72.2904 15.6163 72.5687 16.5904C72.9166 17.7037 72.2904 19.0954 71.2467 19.7912C70.69 20.1391 70.0638 20.2783 69.3679 20.2783C68.6721 20.2783 67.9763 20.0695 67.3501 19.7912C66.9326 19.5824 66.6542 19.3737 66.5151 19.0954C66.2367 18.6083 66.1671 17.982 66.1671 17.1471C66.1671 15.9642 66.1672 14.6421 66.4455 13.5288Z" fill="#37271B"/>
</svg>
