<svg width="147" height="141" viewBox="0 0 147 141" fill="none" xmlns="http://www.w3.org/2000/svg">
<path d="M70.1596 8.7747C85.6068 8.7747 100.428 14.4804 111.839 24.8482C112.048 25.0569 112.466 25.0569 112.674 24.7786C112.883 24.5699 112.883 24.1524 112.605 23.9436C100.985 13.3671 85.8852 7.5918 70.1596 7.5918C35.2989 7.5918 6.97888 35.9814 6.97888 70.8421C6.97888 86.5676 12.8238 101.667 23.3307 113.287C23.4699 113.426 23.609 113.496 23.7482 113.496C23.8874 113.496 24.0265 113.426 24.1657 113.357C24.3744 113.148 24.444 112.731 24.2353 112.522C13.8675 101.11 8.16178 86.2893 8.16178 70.8421C8.16178 36.6076 35.9947 8.7747 70.1596 8.7747Z" fill="#37271B"/>
<path d="M120.676 32.8504C120.467 32.5721 120.119 32.5025 119.841 32.7112C119.563 32.92 119.493 33.2679 119.702 33.5462C127.843 44.3315 132.157 57.2738 132.157 70.8423C132.157 105.077 104.324 132.84 70.1594 132.84C56.5909 132.84 43.7182 128.526 32.8633 120.385C32.585 120.176 32.2371 120.246 32.0284 120.524C31.8196 120.802 31.8892 121.15 32.1675 121.359C43.2311 129.639 56.3126 134.023 70.1594 134.023C105.02 134.023 133.41 105.633 133.41 70.7727C133.41 56.9954 129.026 43.8444 120.676 32.8504Z" fill="#37271B"/>
<path d="M77.0483 0.423828C74.6825 0.423828 72.3167 0.562993 69.9509 0.771739V1.3284C31.6807 1.46756 0.716553 32.5012 0.716553 70.8411C0.716553 109.181 31.8198 140.284 70.1597 140.284C72.5254 140.284 74.8217 140.145 77.1179 139.936V140.493C115.666 140.423 146.978 108.972 146.978 70.4236C147.118 31.875 115.666 0.423828 77.0483 0.423828ZM145.726 65.692H140.02C139.951 64.3699 139.811 62.9783 139.603 61.6562H145.308C145.517 62.9783 145.656 64.3699 145.726 65.692ZM145.169 60.6821H139.464C139.255 59.36 139.046 57.9684 138.768 56.6463H144.474C144.752 57.9684 145.03 59.36 145.169 60.6821ZM144.265 55.6721H138.559C138.281 54.3501 137.933 52.9584 137.515 51.6364H143.221C143.639 52.9584 143.986 54.3501 144.265 55.6721ZM143.012 50.6622H137.307C136.889 49.3402 136.472 47.9485 135.984 46.6264H141.69C142.108 47.9485 142.595 49.3402 143.012 50.6622ZM141.273 45.6523H135.567C135.01 44.2607 134.454 42.9386 133.897 41.6165H139.603C140.159 42.9386 140.716 44.2607 141.273 45.6523ZM139.116 40.6424H133.41C132.784 39.2507 132.018 37.9287 131.322 36.6066H137.028C137.724 37.9287 138.42 39.2507 139.116 40.6424ZM136.402 35.6325H130.696C129.931 34.2408 129.026 32.9187 128.191 31.5967H133.827C134.732 32.9187 135.637 34.2408 136.402 35.6325ZM133.132 30.6225H127.495C126.521 29.2309 125.478 27.9088 124.434 26.5868H130.07C131.183 27.9088 132.157 29.2309 133.132 30.6225ZM129.235 25.6126H123.668C122.486 24.221 121.233 22.8989 119.981 21.5768H125.478C126.8 22.8989 128.052 24.221 129.235 25.6126ZM124.434 20.6027H118.937C117.476 19.211 116.014 17.889 114.414 16.5669H119.841C121.442 17.889 122.973 19.211 124.434 20.6027ZM118.589 15.5928H113.231C111.422 14.2011 109.543 12.8095 107.525 11.557H108.639H108.987H112.674C114.692 12.8095 116.71 14.1315 118.589 15.5928ZM111.004 10.5828H109.056H108.708H105.925C103.42 9.12161 100.776 7.72997 98.1317 6.54707H102.794C105.577 7.72997 108.36 9.05203 111.004 10.5828ZM100.08 5.57292H95.6267C91.3127 3.90294 86.8594 2.58088 82.1974 1.81547C88.3902 2.23297 94.3743 3.55503 100.08 5.57292ZM70.1597 139.101C32.5156 139.101 1.89945 108.485 1.89945 70.8411C1.89945 33.1971 32.5156 2.58088 70.1597 2.58088C107.804 2.58088 138.42 33.1971 138.42 70.8411C138.42 108.485 107.804 139.101 70.1597 139.101ZM89.1556 138.266C90.6864 137.849 92.2172 137.362 93.6785 136.805H95.418C93.4001 137.431 91.3127 137.918 89.1556 138.266ZM98.7579 135.831H96.3922C99.245 134.648 102.028 133.326 104.742 131.795H108.36C105.229 133.396 102.028 134.718 98.7579 135.831ZM110.169 130.821H108.987H108.639H106.342C108.36 129.568 110.378 128.246 112.257 126.785H116.571C114.553 128.246 112.396 129.568 110.169 130.821ZM117.963 125.811H113.579C115.179 124.559 116.71 123.237 118.241 121.775H122.903C121.303 123.237 119.633 124.559 117.963 125.811ZM123.947 120.801H119.215C120.12 119.897 121.094 118.922 121.929 117.948C122.277 117.531 122.625 117.183 122.973 116.765H127.843C126.66 118.157 125.338 119.549 123.947 120.801ZM128.817 115.791H123.877C124.99 114.469 125.965 113.147 127.008 111.755H132.088C131.044 113.147 129.931 114.469 128.817 115.791ZM132.853 110.781H127.774C128.678 109.459 129.513 108.137 130.348 106.746H135.567C134.662 108.137 133.758 109.459 132.853 110.781ZM136.124 105.771H130.905C131.67 104.449 132.366 103.127 133.062 101.736H138.35C137.654 103.127 136.889 104.449 136.124 105.771ZM138.837 100.761H133.48C134.106 99.4394 134.662 98.1173 135.219 96.7257H140.646C140.09 98.1173 139.533 99.4394 138.837 100.761ZM141.064 95.7515H135.637C136.124 94.4295 136.611 93.1074 137.028 91.7158H142.525C142.108 93.1074 141.621 94.4295 141.064 95.7515ZM142.873 90.7416H137.376C137.794 89.4195 138.142 88.0975 138.42 86.7058H143.917C143.639 88.0975 143.221 89.4195 142.873 90.7416ZM144.195 85.7317H138.629C138.907 84.4096 139.185 83.0876 139.394 81.6959H144.961C144.752 83.0876 144.473 84.4096 144.195 85.7317ZM145.1 80.7218H139.533C139.742 79.3997 139.881 78.0776 139.951 76.686H145.587C145.517 78.0776 145.308 79.3997 145.1 80.7218ZM145.656 75.7118H140.02C140.09 74.3898 140.159 73.0677 140.159 71.6761H145.796C145.865 73.0677 145.796 74.3898 145.656 75.7118ZM140.229 70.7019C140.229 69.3798 140.159 67.9882 140.09 66.6661H145.796C145.865 67.9186 145.935 69.1711 145.935 70.4236C145.935 70.4932 145.935 70.5627 145.935 70.6323H140.229V70.7019Z" fill="#37271B"/>
<path d="M81.0145 72.9987C80.8057 72.8596 80.5274 72.7204 80.1099 72.79C78.1616 73.0683 74.5433 78.6349 73.8475 79.6786C73.6388 79.957 73.7779 80.3049 74.0563 80.5136C74.1258 80.5832 74.265 80.5832 74.4042 80.5832C74.6129 80.5832 74.8217 80.5136 74.8913 80.3049C75.0304 80.0961 75.1696 79.8178 75.3087 79.6091C77.0483 80.0961 81.5016 81.0007 83.102 80.0961C83.2411 80.0265 83.3107 79.957 83.3803 79.8874C84.3544 80.3745 85.259 80.3745 85.3286 80.3745C85.6765 80.3745 85.9548 80.0961 85.9548 79.7482C85.9548 79.4003 85.6765 79.122 85.3286 79.122C85.3286 79.122 84.5632 79.122 83.8674 78.7045C84.2153 75.9908 82.6845 74.3208 81.0145 72.9987ZM82.6149 78.9828C82.6149 79.0524 82.5453 79.0524 82.4757 79.122C81.5016 79.6786 77.8833 79.122 76.0046 78.6349C77.8833 75.9908 79.6924 73.9033 80.2491 73.9033C81.7799 75.0862 83.102 76.5474 82.6149 78.9828Z" fill="#37271B"/>
<path d="M54.0859 75.7136C54.1555 75.7136 54.2251 75.7136 54.2947 75.7136C54.573 75.7136 54.7817 75.5744 54.8513 75.2961C56.73 69.7295 56.8692 66.4592 55.1297 65.4154C54.0859 64.7892 53.0422 64.5804 51.9984 64.9283C50.0501 65.5546 48.8672 67.7812 48.4498 68.6858H47.4756C47.1277 68.6858 46.8494 68.9641 46.8494 69.312C46.8494 69.6599 47.1277 69.9383 47.4756 69.9383H48.7281L54.3642 72.9999C54.2251 73.6261 54.0163 74.2524 53.738 74.9482C53.5988 75.2961 53.8076 75.644 54.0859 75.7136ZM49.6327 69.1033C50.1197 68.1291 51.0939 66.5287 52.4159 66.1112C53.1118 65.9025 53.8076 65.9721 54.5034 66.4592C54.8513 66.6679 55.6863 67.6421 54.6426 71.817L49.6327 69.1033Z" fill="#37271B"/>
<path d="M60.2093 74.8781C60.2789 74.8781 65.428 73.3473 69.8812 78.0789C70.0204 78.218 70.1596 78.2876 70.2987 78.2876C70.4379 78.2876 70.5771 78.218 70.7162 78.1485C70.925 77.9397 70.9946 77.5222 70.7162 77.3135C65.7759 72.0252 60.0701 73.7648 59.8614 73.8344C59.5831 73.9039 59.3743 74.2519 59.4439 74.5998C59.5831 74.8085 59.931 74.9477 60.2093 74.8781Z" fill="#37271B"/>
<path d="M52.9728 100.206C53.2511 100.763 54.0165 100.902 54.7819 100.902C55.0602 100.902 55.3386 100.902 55.6169 100.902C55.7561 100.902 55.8952 100.902 55.8952 100.902C56.0344 100.902 56.2431 100.832 56.3823 100.763C56.4519 100.693 56.5911 100.554 56.6606 100.206C56.6606 100.971 56.7998 101.111 56.8694 101.25C57.0085 101.389 57.2173 101.528 57.426 101.528C57.4956 101.528 57.6348 101.528 57.8435 101.598C58.1914 101.667 58.6089 101.737 59.0264 101.737C59.7223 101.737 60.3485 101.598 60.4877 100.902C60.5572 100.623 60.6268 100.276 60.6964 99.9276C60.766 99.9972 60.8356 100.067 60.9051 100.136C61.601 100.832 62.5055 101.806 63.8276 101.806C63.8972 101.806 63.8972 101.806 63.9668 101.806C65.3584 101.737 69.1159 99.7189 70.4379 97.7706L71.2729 98.6056C71.4817 98.8143 71.8991 98.8839 72.1079 98.6056C72.3166 98.3968 72.3862 97.9793 72.1079 97.7706L70.7162 96.3094C70.5771 96.1702 70.2988 96.1006 70.09 96.1702C69.8813 96.2398 69.7421 96.3789 69.6725 96.6573C69.4638 97.9097 65.3584 100.554 63.8972 100.623C62.9926 100.623 62.3664 99.9972 61.7401 99.3014C61.4618 99.0231 61.1835 98.7447 60.9051 98.536C60.8356 98.4664 60.6964 98.3968 60.6268 98.3968C60.5572 98.3968 60.5572 98.3272 60.4877 98.3272C59.8614 98.0489 59.096 97.9097 58.4698 97.8402C58.0523 97.7706 57.6348 97.701 57.3565 97.6314C57.2173 97.3531 57.3565 96.3789 57.6348 95.4744C57.6348 95.4048 57.6348 95.3352 57.6348 95.2656C58.6089 95.4744 59.7222 95.6135 61.0443 95.6135C65.0105 95.6135 71.6208 85.9416 69.8117 84.202C66.3326 80.8621 62.7839 79.8184 59.8614 79.8184C55.6865 79.8184 52.6944 81.9754 52.6944 82.4625C52.2074 89.4903 52.764 93.4565 56.5911 94.9177C56.5215 94.9873 56.5215 95.0569 56.5215 95.1265C56.3823 95.6831 56.104 96.5877 56.104 97.4227C55.6169 97.4922 54.9211 97.6314 54.1557 97.4923C53.8078 97.4227 53.5294 97.2139 53.1119 96.7268C52.4857 96.1006 51.6507 95.2656 50.0503 95.2656C49.8416 95.2656 49.7024 95.196 49.5632 95.0569C48.7978 94.2219 48.6587 91.5082 48.7978 89.9774C48.7978 89.7686 48.7283 89.5599 48.5891 89.4903C48.4499 89.3511 48.2412 89.3511 48.0324 89.4207L45.1796 90.4644C44.9012 90.6036 44.6925 90.9515 44.8316 91.2298C44.9708 91.5082 45.3187 91.7169 45.5971 91.5778L47.6149 90.8124C47.6149 92.204 47.6845 94.7785 48.7283 95.8919C49.0762 96.3094 49.5632 96.5181 50.1199 96.5181C51.2332 96.5181 51.7899 97.0748 52.3465 97.6314C52.5553 97.8402 52.764 98.0489 52.9728 98.1881C52.8336 98.536 52.6944 99.6493 52.9728 100.206ZM58.0523 98.6751C58.1219 98.6751 58.261 98.6752 58.3306 98.7447C58.7481 98.8143 59.2352 98.8839 59.6527 99.0231C59.5831 99.4406 59.5135 99.9972 59.4439 100.415C59.1656 100.484 58.3306 100.345 58.1219 100.345C58.0523 100.345 57.9827 100.345 57.9827 100.345C57.9131 99.9276 57.9827 99.3014 58.0523 98.6751ZM55.4082 92.4823C53.8078 90.7428 53.6686 87.2637 53.9469 82.6016C54.5732 82.045 56.7998 80.7229 60.0006 80.7229C63.2014 80.7229 66.263 82.045 69.0463 84.6891C69.1159 85.1762 68.5592 87.1245 66.6805 89.6295C64.7322 92.2736 62.436 94.1523 61.1139 94.1523C58.3306 94.1523 56.5215 93.6652 55.4082 92.4823ZM54.0861 98.3968C54.3644 98.4664 54.6427 98.4664 54.9211 98.4664C55.1994 98.4664 55.4777 98.4664 55.6865 98.3968C55.6865 98.8839 55.6169 99.371 55.5473 99.6493H55.4777C54.7123 99.7189 54.1557 99.6493 54.0165 99.5797C54.0165 99.4406 54.0165 98.9535 54.0861 98.3968Z" fill="#37271B"/>
<path d="M103.629 65.1362C104.116 66.5974 103.907 67.2236 104.255 67.2236C104.603 67.2236 113.301 59.5 112.744 57.8996C112.257 56.3688 110.935 58.5954 110.309 58.5954C109.752 58.5259 108.5 57.2734 107.665 58.1084C106.83 58.9434 106.203 60.8917 104.742 60.1263C103.281 59.3609 103.072 60.5437 102.446 60.7525C101.82 60.9612 100.428 60.1263 99.6626 61.0308C99.8018 60.9612 103.142 63.6054 103.629 65.1362Z" fill="#37271B"/>
<path d="M79.8315 75.6436C78.9965 75.6436 78.3007 76.3394 78.3007 77.1744C78.3007 78.0094 78.9965 78.7052 79.8315 78.7052C80.6665 78.7052 81.3623 78.0094 81.3623 77.1744C81.3623 76.3394 80.6665 75.6436 79.8315 75.6436ZM80.8056 76.7569C80.5273 76.9656 79.7619 76.9656 79.414 77.1048C79.0661 77.2439 78.6486 77.0352 78.8573 76.7569C78.8573 76.7569 79.6227 75.9915 80.1794 76.2002C80.736 76.409 81.0839 76.5481 80.8056 76.7569Z" fill="#37271B"/>
<path d="M52.9728 67.0146C52.0682 67.0146 51.3028 67.7801 51.3028 68.6846C51.3028 69.5892 52.0682 70.3546 52.9728 70.3546C53.8773 70.3546 54.6427 69.5892 54.6427 68.6846C54.6427 67.7801 53.8773 67.0146 52.9728 67.0146ZM53.8078 68.0584C53.5294 68.2671 52.764 68.2671 52.4161 68.4063C52.0682 68.5455 51.6507 68.3367 51.8595 68.0584C51.8595 68.0584 52.6249 67.293 53.1815 67.5017C53.7382 67.7105 54.1557 67.8496 53.8078 68.0584Z" fill="#37271B"/>
<path d="M33.7679 87.4718C34.1854 87.7501 34.6029 88.0285 34.7421 88.3068C35.09 89.0026 34.8813 90.603 34.6725 91.3684C34.6029 91.5771 34.6725 91.7859 34.8117 91.9251C34.8813 91.9946 36.8992 94.2909 39.3345 94.43C39.8912 95.1954 41.9091 97.4221 46.0144 97.9091C46.3623 97.9787 46.6407 97.7004 46.6407 97.4221C46.7102 97.0741 46.4319 96.7958 46.1536 96.7958C41.8395 96.2392 40.2391 93.6646 40.1695 93.595C40.0304 93.3863 39.8912 93.3167 39.6824 93.3167C38.0125 93.3167 36.4817 91.9251 35.9946 91.3684C36.1337 90.603 36.4121 88.8634 35.8554 87.8197C35.5771 87.2631 35.0204 86.9151 34.4638 86.5672C33.4896 85.941 32.8634 85.4539 33.0025 84.4102C33.3505 81.8356 32.6546 79.609 31.3326 78.6349C30.9847 78.3565 31.0542 77.939 31.3326 77.104C31.5413 76.5474 31.6805 76.0603 31.4717 75.6428C31.263 75.2253 30.9151 75.0862 30.6367 75.0166C30.2193 74.8774 29.9409 74.8078 29.8018 73.7641C29.7322 73.0683 30.0105 72.7204 30.3584 72.3029C30.8455 71.7462 31.5413 70.9808 30.9151 69.5196C30.5672 68.7542 34.1854 66.0405 38.4995 63.8834C38.7083 63.8138 38.7779 63.6051 38.8475 63.3963C39.1258 59.0127 42.1178 56.2294 42.1178 56.2294C42.1874 56.1598 42.1874 56.1598 42.257 56.0902C42.257 56.0902 44.0661 52.6111 51.6506 45.2354C53.5989 45.1658 55.6864 45.0962 57.7042 45.0962C62.575 45.0962 65.8454 46.2791 68.2112 47.1837C69.3245 47.6012 70.229 47.9491 71.064 48.0187C73.0123 48.297 74.3344 47.1837 75.0302 46.4879C75.9348 47.1837 78.1614 48.8536 80.1793 49.967C82.8234 51.4282 96.8791 56.2294 97.4357 56.4381C97.5053 56.4381 97.5749 56.4381 97.6445 56.4381C107.108 55.8815 113.37 55.5335 114.275 56.7164C114.623 57.8993 109.543 65.4838 104.672 71.7462C104.603 71.8158 104.603 71.8854 104.533 72.0245L102.515 84.8277C102.515 85.0364 102.585 85.2452 102.724 85.3843C106.342 88.2372 104.394 91.7859 104.324 91.9251C104.255 92.0642 104.255 92.273 104.255 92.4121C104.881 94.3604 104.881 95.8913 104.255 96.8654C103.559 97.9787 102.167 98.0483 102.167 98.0483C101.959 98.0483 101.75 98.257 101.611 98.4658L100.636 101.458L97.9924 100.762C97.8532 100.692 97.6444 100.762 97.5749 100.832C97.5053 100.901 97.3661 101.04 97.2965 101.18C97.0182 102.223 96.4616 102.919 95.6962 103.406C94.0958 104.311 91.9387 103.684 91.8691 103.684C91.5908 103.615 91.3821 103.684 91.2429 103.893C89.225 106.955 85.8155 105.633 85.6763 105.563C85.4676 105.494 85.2588 105.494 85.0501 105.702C84.4238 106.259 83.728 106.537 83.0322 106.468C81.4318 106.329 80.1097 104.659 80.1097 104.589C80.0401 104.45 79.901 104.38 79.6922 104.38C79.5531 104.38 79.3443 104.38 79.2747 104.519C78.1614 105.424 76.4915 104.519 76.4219 104.45C76.1435 104.311 75.7956 104.38 75.5869 104.659C75.4477 104.937 75.5173 105.285 75.7956 105.494C75.8652 105.563 77.8135 106.607 79.4835 105.772C80.0401 106.398 81.3622 107.511 82.893 107.651C83.0322 107.651 83.1018 107.651 83.2409 107.651C84.0759 107.651 84.8413 107.372 85.5371 106.816C87.1375 107.303 89.9904 107.442 91.9387 104.937C92.7737 105.076 94.6524 105.354 96.2528 104.45C97.1574 103.963 97.8532 103.128 98.2011 102.084L100.845 102.78C101.124 102.849 101.471 102.71 101.541 102.362L102.585 99.2312C103.211 99.092 104.394 98.7441 105.159 97.5612C105.994 96.3087 106.064 94.5692 105.368 92.3426C105.786 91.3684 107.108 87.7501 103.629 84.7581L105.577 72.442C106.064 71.8158 108.499 68.615 110.795 65.2751C116.153 57.4818 115.458 56.5773 115.11 56.0902C113.718 54.4202 108.638 54.6986 97.5749 55.2552C96.2528 54.7681 83.0322 50.2453 80.5968 48.9232C78.0223 47.5316 75.1694 45.2354 75.1694 45.1658C75.0302 45.0962 74.8911 45.0266 74.7519 45.0266C74.6127 45.0266 74.4736 45.1658 74.3344 45.2354C74.3344 45.2354 73.0819 46.9749 71.1336 46.7662C70.4378 46.6966 69.6028 46.3487 68.5591 46.0008C66.1237 45.0962 62.7837 43.8437 57.6347 43.8437C54.5035 43.8437 51.4418 43.9829 48.7281 44.1221C45.249 44.3308 42.257 44.47 41.1437 44.1221C39.1258 43.5654 37.3862 42.9392 37.3862 42.9392C37.1079 42.8696 36.8296 42.9392 36.6904 43.2175C36.6208 43.2871 35.6467 44.957 36.3425 46.4183C36.6904 47.0445 37.0383 47.462 37.3166 47.6708C37.0383 48.9928 36.6904 52.4719 40.6566 55.8119C39.752 56.8556 37.8037 59.3606 37.4558 62.9788C34.5334 64.4401 28.6884 67.78 29.593 70.0067C29.9409 70.7721 29.6626 70.9808 29.2451 71.5375C28.8276 72.0245 28.2014 72.7204 28.4101 73.9728C28.6189 75.5732 29.3843 75.9211 30.0105 76.1299C30.0801 76.1299 30.1497 76.1995 30.1497 76.1995C30.1497 76.3386 30.0105 76.5474 30.0105 76.7561C29.7322 77.5215 29.3147 78.774 30.3584 79.609C31.3326 80.3744 31.8196 82.2531 31.6109 84.271C31.5413 86.0106 32.8634 86.8456 33.7679 87.4718ZM38.7779 47.462C38.8475 47.2533 38.8475 47.0445 38.7779 46.9054C38.6387 46.7662 38.4995 46.627 38.2908 46.627C38.2908 46.627 37.9429 46.5574 37.595 45.792C37.3166 45.305 37.4558 44.6091 37.6646 44.1916C38.3604 44.4004 39.6129 44.8179 41.0045 45.2354C42.257 45.5833 45.0403 45.4441 48.9369 45.2354C49.2152 45.2354 49.5631 45.2354 49.911 45.1658C48.1715 46.9054 46.7798 48.3666 45.5969 49.6886C45.4578 49.6191 45.249 49.4799 45.1099 49.2711C44.6924 48.6449 43.3007 48.6449 42.6745 48.297C42.0482 47.9491 40.9349 48.0882 40.3783 47.3924C39.8216 46.6966 39.2649 46.7662 39.2649 46.7662C39.2649 46.7662 40.4478 52.5415 42.257 53.794C41.9787 54.2115 41.7699 54.5594 41.5612 54.7681C37.3862 51.2194 38.7083 47.6708 38.7779 47.462Z" fill="#37271B"/>
</svg>
