<svg width="140" height="104" viewBox="0 0 140 104" fill="none" xmlns="http://www.w3.org/2000/svg">
<path d="M51.7138 20.9125C51.7138 20.9707 51.6555 21.029 51.6555 21.0872C51.4807 21.5533 51.1894 22.4271 51.9468 22.9514C52.4711 23.3592 52.7624 24.4078 52.6458 25.6312C52.4711 26.8546 53.3449 27.3789 53.8692 27.7284C54.1022 27.9032 54.3353 28.0197 54.3935 28.1362C54.5683 28.4857 54.51 29.3596 54.3353 29.8839C54.277 30.0587 54.3353 30.2334 54.4518 30.3499C54.51 30.4082 55.6752 31.7481 57.1898 31.8646C57.5976 32.3889 58.821 33.6705 61.2095 33.9618C61.5007 34.0201 61.7338 33.787 61.7338 33.554C61.7338 33.321 61.559 33.0297 61.326 33.0297C58.821 32.7384 57.8889 31.2238 57.8889 31.1655C57.7724 30.9907 57.6559 30.9325 57.4811 30.9325C56.6072 30.9325 55.7917 30.2334 55.4421 29.8839C55.5586 29.4178 55.6752 28.3692 55.3256 27.7284C55.1509 27.3789 54.8013 27.1459 54.4518 26.9128C53.8692 26.5633 53.5779 26.3303 53.6362 25.7477C53.811 24.1748 53.4032 22.8349 52.5876 22.1941C52.4711 22.0776 52.4711 21.9611 52.6458 21.4368C52.7624 21.0872 52.8789 20.7377 52.7041 20.4464C52.5293 20.1552 52.2963 20.0386 52.1215 19.9804C51.9468 19.9221 51.772 19.8639 51.7138 19.3396C51.6555 18.99 51.772 18.8735 52.005 18.5822C52.2963 18.2327 52.7624 17.7084 52.3546 16.7763C52.3546 16.3103 54.4518 14.7374 56.782 13.5722C56.9568 13.514 57.015 13.3392 57.0733 13.1644C57.2481 10.6594 58.9957 9.02828 58.9957 8.97003C59.054 8.91177 59.054 8.91177 59.1122 8.85352C59.1122 8.85352 60.2191 6.75631 64.6466 2.44537C65.8117 2.38712 66.9768 2.32886 68.2002 2.32886C71.0547 2.32886 72.9771 3.02793 74.3753 3.55223C75.0744 3.78526 75.5987 4.01828 76.0647 4.07654C77.1716 4.19305 77.9872 3.61049 78.4532 3.2027C79.0358 3.66874 80.2591 4.54258 81.4242 5.24165C82.9972 6.11549 91.386 8.97003 91.7355 9.08654C91.7938 9.08654 91.852 9.08654 91.9103 9.08654C96.9786 8.79526 100.998 8.56224 101.697 9.20305C101.697 10.1351 98.7845 14.4461 95.9882 17.9997C95.93 18.0579 95.93 18.1162 95.8717 18.2327L95.6387 19.8639C95.4639 19.9804 95.4057 20.2134 95.4639 20.4464C95.4639 20.5047 95.5222 20.5047 95.5222 20.5047L94.6483 25.8642C94.6483 26.039 94.7066 26.2138 94.8231 26.3303C96.862 27.9614 95.8134 29.9421 95.7552 30.0587C95.6969 30.1752 95.6969 30.3499 95.6969 30.4664C95.9882 31.3403 96.0465 32.0976 95.8717 32.6219C95.8134 32.7384 95.6969 32.9132 95.6387 33.088C95.2309 33.6123 94.5318 33.6705 94.5318 33.6705C94.357 33.6705 94.1823 33.8453 94.0658 34.0201L93.5415 35.6512L92.0851 35.2434C91.9686 35.1852 91.7938 35.2434 91.7355 35.3017C91.619 35.3599 91.5608 35.4764 91.5025 35.593C91.3277 36.1755 91.0365 36.5833 90.6287 36.8163C89.7548 37.3406 88.4732 36.9911 88.4732 36.9911C88.2402 36.9328 88.0654 36.9911 87.9489 37.1659C86.7838 38.8553 84.9196 38.1562 84.8031 38.098C84.6283 38.0397 84.4536 38.0397 84.2788 38.2145C83.9292 38.5058 83.5797 38.6805 83.1719 38.6223C82.2981 38.564 81.5408 37.5737 81.5408 37.5737C81.4825 37.4571 81.366 37.3989 81.1912 37.3989C81.0747 37.3989 80.8999 37.3989 80.8417 37.5154C80.2591 37.9814 79.327 37.4571 79.327 37.4571C79.094 37.3406 78.8027 37.3989 78.628 37.6319C78.5114 37.8649 78.5697 38.1562 78.8027 38.331C78.861 38.3892 79.9678 39.0301 81.0165 38.564C81.4242 38.9718 82.1816 39.5544 83.0554 39.6709C83.1137 39.6709 83.1719 39.6709 83.2884 39.6709C83.8127 39.6709 84.2788 39.4961 84.6866 39.2048C85.6769 39.4961 87.3663 39.5544 88.5315 38.098C89.0558 38.2145 90.1626 38.2727 91.0947 37.7484C91.619 37.4571 92.0268 36.9911 92.2598 36.4085L93.7162 36.8163C93.9493 36.8746 94.2405 36.7581 94.2988 36.4668L94.8813 34.6609C94.9979 34.6026 95.1726 34.6026 95.3474 34.4861C95.3474 34.6026 95.3474 34.7191 95.4056 34.8356C95.4639 35.0104 95.5222 35.2434 95.8717 35.4182C96.7455 35.9425 98.901 35.4764 99.8331 35.2434C99.8914 35.3017 99.9496 35.4182 100.008 35.4764C100.124 35.6512 100.241 35.7095 100.416 35.7095C100.532 35.7095 100.59 35.7095 100.707 35.6512C100.94 35.4764 100.998 35.1852 100.882 34.9521C100.241 33.9035 98.6097 31.515 97.5611 31.3403C97.3281 31.282 97.0951 31.3403 96.9203 31.515C96.9203 31.515 96.9203 31.515 96.862 31.5733C96.8038 31.2238 96.7455 30.8742 96.629 30.4664C97.0951 29.4761 97.3863 27.4371 95.5804 25.8642L96.396 20.6212C96.9203 20.3882 97.3281 20.2134 97.5611 20.0969C98.4932 19.5726 99.5418 18.8153 100.066 18.4075C100.474 18.757 101.173 19.2231 102.105 19.1065C102.513 19.0483 102.979 18.8735 103.561 18.6405C104.727 18.2327 106.358 17.5919 108.804 17.5919C109.853 17.5919 110.843 17.6502 111.776 17.6502C115.504 21.262 116.436 23.0097 116.436 23.0679C116.436 23.1262 116.494 23.1845 116.553 23.1845C116.553 23.1845 118.009 24.5243 118.184 26.6798C118.184 26.8546 118.3 27.0293 118.475 27.0876C120.397 28.078 122.145 29.3013 122.203 29.7091C121.854 30.5247 122.262 31.049 122.495 31.282C122.669 31.515 122.786 31.6316 122.728 31.8646C122.669 32.2724 122.611 32.2724 122.436 32.3306C122.262 32.3889 122.029 32.4471 121.912 32.7384C121.737 33.0297 121.854 33.321 121.97 33.6123C122.087 33.9035 122.145 34.1366 122.029 34.1366C121.271 34.7191 120.922 35.8842 121.096 37.2241C121.155 37.6319 120.922 37.8067 120.456 38.1562C120.164 38.331 119.873 38.564 119.698 38.8553C119.407 39.4378 119.524 40.2534 119.582 40.6612C119.291 40.9525 118.591 41.4768 117.892 41.4768C117.718 41.4768 117.543 41.5933 117.485 41.7098C117.426 41.7681 116.669 42.9915 114.63 43.2245C114.339 43.2827 114.164 43.5158 114.222 43.7488C114.281 43.9818 114.455 44.1566 114.688 44.1566H114.747C116.786 43.9235 117.834 42.8749 118.184 42.3506C119.465 42.1759 120.456 41.069 120.514 41.0108C120.63 40.8942 120.689 40.7195 120.63 40.5447C120.514 40.1369 120.456 39.3796 120.572 39.0883C120.63 38.9718 120.805 38.8553 120.98 38.7388C121.446 38.4475 122.203 37.9232 122.087 36.8746C121.97 35.7677 122.262 34.9521 122.611 34.6609C123.252 34.1366 123.019 33.3792 122.844 32.9714V32.9132C123.135 32.7967 123.543 32.5637 123.718 31.6898C123.835 30.9907 123.485 30.583 123.252 30.2917C123.019 30.0587 123.019 30.0004 123.077 29.7091C123.601 28.544 121.271 27.0293 119.116 25.9807C118.941 24.2913 118.125 23.1262 117.601 22.4854C119.407 20.8542 119.349 19.1648 119.232 18.4075C119.407 18.291 119.524 18.0579 119.698 17.7667C120.106 16.9511 119.582 16.0772 119.524 15.9607C119.407 15.786 119.174 15.6695 118.941 15.7277C118.941 15.7277 118.067 16.019 117.019 16.3103C116.494 16.485 114.921 16.3685 113.232 16.3103C111.834 16.252 110.319 16.1355 108.746 16.1355C106.125 16.1355 104.319 16.7763 103.154 17.2424C102.629 17.4171 102.222 17.5919 101.872 17.6502C100.998 17.7667 100.416 17.0093 100.416 16.9511C100.357 16.8346 100.241 16.7763 100.066 16.7763C99.9496 16.7763 99.7748 16.7763 99.7166 16.8928C99.7166 16.8928 98.2602 18.0579 96.9786 18.757C96.862 18.8153 96.7455 18.8735 96.4543 18.99L96.5708 18.1162C100.998 12.4071 102.862 9.08654 102.222 8.2127C101.406 7.1641 98.8427 7.28061 91.6773 7.6884C90.7452 7.39712 83.0554 4.71735 81.599 3.96002C80.0844 3.14444 78.3949 1.7463 78.3949 1.7463C78.2784 1.68805 78.1619 1.62979 78.0454 1.62979C77.9289 1.62979 77.8124 1.7463 77.6959 1.80456C77.6959 1.80456 76.9968 2.79491 75.8899 2.62014C75.4821 2.56188 75.0161 2.38712 74.3753 2.15409C72.9771 1.62979 70.8799 0.872463 67.8506 0.872463C65.9864 0.872463 64.1805 0.988975 62.5493 1.04723C60.5104 1.16374 58.7045 1.222 58.1219 1.04723C56.9568 0.697695 55.9082 0.34816 55.9082 0.34816C55.6752 0.289904 55.4421 0.34816 55.3256 0.581184C55.2674 0.697695 54.6848 1.68805 55.1508 2.62014C55.3256 2.96967 55.5004 3.2027 55.6752 3.37747C55.5004 4.2513 55.3839 6.232 57.5976 8.2127C57.015 8.91177 55.9664 10.3682 55.7917 12.3489C53.6945 13.3975 50.5486 15.3199 51.1312 16.6598C51.306 17.0093 51.1895 17.1258 50.9564 17.4171C50.7234 17.7084 50.3156 18.1745 50.4321 18.99C50.8399 20.5047 51.2477 20.796 51.7138 20.9125ZM97.6194 32.3306C97.9689 32.5054 98.668 33.321 99.4253 34.3696C98.3767 34.6026 96.9203 34.7774 96.5708 34.6026C96.5125 34.1948 96.5708 33.9035 96.629 33.6123C96.7455 33.4957 96.8038 33.321 96.862 33.1462C97.0951 32.8549 97.3281 32.5637 97.6194 32.3306ZM117.543 17.7667C118.125 17.5919 118.708 17.4171 119.058 17.3006C119.116 17.4754 119.116 17.6502 119.058 17.7667C118.941 17.9997 118.825 18.0579 118.825 18.1162C118.708 18.1162 118.591 18.2327 118.475 18.3492C118.358 18.4657 118.358 18.6405 118.417 18.8153C118.417 18.8153 119.058 20.4464 117.252 22.1359C117.193 22.0193 117.135 21.9028 117.019 21.7863C117.834 20.9707 118.417 18.3492 118.417 18.3492C118.417 18.3492 118.125 18.3492 117.834 18.6988C117.543 19.0483 116.96 18.99 116.669 19.1648C116.378 19.3396 115.62 19.3396 115.446 19.6308C115.446 19.6891 115.387 19.6891 115.387 19.7474C114.863 19.1648 114.281 18.524 113.523 17.8249C115.446 17.9414 116.902 17.9997 117.543 17.7667ZM57.015 3.84351C57.0733 3.66874 57.0733 3.49398 56.9568 3.37747C56.8985 3.26095 56.782 3.2027 56.6072 3.14444C56.549 3.14444 56.4325 3.02793 56.2577 2.73665C56.1412 2.50363 56.1995 2.21235 56.2577 1.97932C56.6655 2.09584 57.3646 2.32886 58.1219 2.56188C58.8792 2.79491 60.5686 2.67839 62.8989 2.56188C62.9571 2.56188 63.0154 2.56188 63.0736 2.56188C62.1416 3.49398 61.3842 4.30956 60.7434 5.00863C60.6852 4.95037 60.6269 4.89212 60.5686 4.83386C60.3356 4.48433 59.4618 4.48433 59.1122 4.2513C58.7627 4.07654 58.0636 4.13479 57.7724 3.727C57.4811 3.37747 57.1315 3.37747 57.1315 3.37747C57.1315 3.37747 57.7724 6.58154 58.821 7.45538C58.7045 7.63014 58.5879 7.80491 58.4714 7.92142C56.2577 5.94072 56.9568 3.96002 57.015 3.84351Z" fill="#37271B"/>
<path d="M82.1818 18.8724C82.007 18.6976 81.774 18.6394 81.541 18.6976C80.3759 18.8724 78.3369 21.96 77.6961 22.8921C77.5213 23.1251 77.6378 23.4164 77.8709 23.5911C77.9291 23.6494 78.0456 23.6494 78.1621 23.6494C78.3369 23.6494 78.5117 23.5911 78.5699 23.4164C78.6282 23.2998 78.6864 23.1833 78.8029 23.1251C79.7933 23.4164 82.4148 23.9407 83.4634 23.3581C83.5217 23.2998 83.5217 23.2998 83.5799 23.2416C84.1042 23.4746 84.6285 23.4746 84.6868 23.4746C84.9781 23.4746 85.2111 23.2416 85.2111 22.9503C85.2111 22.659 84.9781 22.426 84.6868 22.426C84.6868 22.426 84.3373 22.426 83.9295 22.2512C84.1042 20.4453 82.7643 19.3384 82.1818 18.8724ZM79.3273 22.2512C80.2593 20.9113 81.2497 19.8627 81.5992 19.688C82.3566 20.3288 83.1139 21.1444 82.8809 22.4843C82.5896 22.7755 80.6089 22.6008 79.3273 22.2512Z" fill="#37271B"/>
<path d="M65.9866 20.7948C66.0449 20.7948 66.1032 20.7948 66.1614 20.7948C66.3944 20.7948 66.5692 20.6782 66.6275 20.4452C67.7926 17.0664 67.8508 15.0857 66.744 14.3866C66.1032 13.9788 65.4041 13.8623 64.7633 14.0953C63.5982 14.4449 62.8991 15.7265 62.6078 16.309H62.0835C61.7922 16.309 61.5592 16.5421 61.5592 16.8334C61.5592 17.1246 61.7922 17.3577 62.0835 17.3577H62.7826L65.9866 19.1053C65.8701 19.4549 65.8119 19.7461 65.6371 20.1539C65.5789 20.387 65.6954 20.6782 65.9866 20.7948ZM63.5399 16.6003C63.8312 16.0178 64.3555 15.2604 65.0546 15.0274C65.4041 14.9109 65.8119 14.9692 66.2197 15.2022C66.3362 15.2604 66.8022 15.7265 66.2779 18.0567L63.5399 16.6003Z" fill="#37271B"/>
<path d="M69.7151 20.271C69.8316 20.2128 72.7444 19.3972 75.3077 22.1352C75.4242 22.2517 75.5407 22.31 75.6572 22.31C75.7737 22.31 75.8902 22.2517 76.0067 22.1935C76.1815 22.0187 76.2398 21.6691 76.0067 21.4944C72.9774 18.2903 69.5404 19.3389 69.3656 19.3389C69.1326 19.3972 68.9578 19.6885 69.0161 19.9797C69.1908 20.2128 69.4238 20.3293 69.7151 20.271Z" fill="#37271B"/>
<path d="M65.2293 35.2438C65.4623 35.6515 65.9284 35.7098 66.4527 35.7098C66.6275 35.7098 66.8022 35.7098 66.9187 35.7098C66.977 35.7098 67.0352 35.7098 67.0935 35.7098C67.21 35.7098 67.3848 35.6515 67.5013 35.5933C67.5595 35.7098 67.6178 35.7681 67.6178 35.8263C67.7343 35.9428 67.9091 36.0593 68.0256 36.0593C68.0838 36.0593 68.1421 36.0593 68.2586 36.0593C68.4916 36.0593 68.7247 36.1176 68.9577 36.1176C69.4237 36.1176 69.8898 36.0011 69.948 35.4768C69.948 35.3603 70.0063 35.2438 70.0063 35.1272C70.4141 35.535 70.9384 36.0593 71.754 36.0593H71.8122C72.6861 36.0011 74.7833 34.8942 75.6571 33.7291L76.0066 34.1369C76.1814 34.3117 76.5309 34.3699 76.7057 34.1369C76.8805 33.9621 76.9387 33.6126 76.7057 33.4378L75.8901 32.564C75.7736 32.4475 75.5406 32.3892 75.3658 32.4475C75.1911 32.5057 75.0745 32.6222 75.0163 32.8553C74.8998 33.5543 72.5113 35.069 71.6957 35.069C71.6957 35.069 71.6957 35.069 71.6375 35.069C71.2297 35.069 70.8801 34.7195 70.5306 34.3117C70.3558 34.1369 70.1811 33.9621 70.0063 33.8456C69.5985 33.5543 69.0159 33.4378 68.4916 33.3796C68.3169 33.3796 68.0838 33.3213 67.9673 33.2631C67.9673 33.03 68.0256 32.564 68.1421 32.1562C68.1421 32.0979 68.1421 32.0397 68.1421 31.9814C68.6664 32.0979 69.3072 32.1562 70.0645 32.1562C72.453 32.1562 76.3562 26.3889 75.3076 25.3403C73.2104 23.3596 71.1132 22.7188 69.3655 22.7188C66.8605 22.7188 65.1128 24.0004 65.0545 24.2917C64.7633 28.4278 65.0545 30.7581 67.21 31.6319C67.21 31.6901 67.1518 31.6902 67.1518 31.7484C67.0352 32.0979 66.9187 32.564 66.9187 33.03C66.6275 33.0883 66.2779 33.0883 65.9284 33.03C65.7536 33.03 65.6371 32.8553 65.4041 32.6222C64.9963 32.2145 64.472 31.6901 63.4816 31.6901C63.4234 31.6901 63.3651 31.6901 63.3069 31.5736C62.8991 31.1076 62.7826 29.5929 62.8991 28.6608C62.8991 28.4861 62.8408 28.3113 62.7243 28.2531C62.6078 28.1365 62.433 28.1365 62.2583 28.1948L60.5688 28.8356C60.3358 28.9521 60.1611 29.2434 60.2776 29.4764C60.3941 29.7095 60.6854 29.8842 60.9184 29.7677L61.9087 29.4182C61.9087 30.292 62.0252 31.6902 62.6078 32.331C62.8408 32.6222 63.1904 32.7388 63.5399 32.7388C64.1224 32.7388 64.4137 33.03 64.7633 33.3796C64.8798 33.4961 64.9963 33.6126 65.0545 33.6708C65.1128 34.3117 65.0545 34.8942 65.2293 35.2438ZM66.2197 24.8742C66.6274 24.5829 67.8508 23.8839 69.5402 23.8839C71.3462 23.8839 73.0356 24.6412 74.6668 26.0976C74.6085 26.6219 73.9677 28.0783 72.6861 29.5347C71.6375 30.7581 70.7054 31.2824 70.2976 31.2824C68.6664 31.2824 67.6761 30.9911 67.0935 30.4085C66.1614 29.4764 66.0449 27.554 66.2197 24.8742ZM67.1518 34.7777H67.21C67.1518 34.7777 67.1518 34.7777 67.1518 34.7777ZM69.1325 34.6029C69.0742 34.7777 69.0742 35.0107 69.0159 35.1855C68.8412 35.1855 68.5499 35.1272 68.3751 35.1272C68.3751 34.9525 68.4334 34.7195 68.4334 34.4864C68.4334 34.4864 68.4334 34.4864 68.4916 34.4864C68.7247 34.4864 68.9577 34.5447 69.1325 34.6029ZM66.8022 34.3117C66.8022 34.4864 66.8022 34.6612 66.744 34.7777C66.5692 34.7777 66.2197 34.7777 66.0449 34.7777C66.0449 34.6612 66.0449 34.4864 66.1031 34.3117C66.2197 34.3117 66.3362 34.3117 66.4527 34.3117C66.6275 34.3117 66.744 34.3117 66.8022 34.3117Z" fill="#37271B"/>
<path d="M95.5223 14.3292C95.8136 15.203 95.6971 15.5526 95.9301 15.5526C96.1632 15.5526 101.29 10.9503 100.998 10.0182C100.707 9.08616 99.8915 10.426 99.542 10.426C99.1925 10.426 98.4351 9.66871 97.9691 10.1348C97.5031 10.6008 97.0953 11.7659 96.2214 11.3581C95.3476 10.9503 95.2311 11.5912 94.8815 11.7077C94.4737 11.8242 93.6582 11.3581 93.2504 11.8824C93.2504 11.8242 95.2311 13.3971 95.5223 14.3292Z" fill="#37271B"/>
<path d="M81.3662 20.5625C80.8419 20.5625 80.4341 20.9703 80.4341 21.4946C80.4341 22.0189 80.8419 22.4267 81.3662 22.4267C81.8905 22.4267 82.2983 22.0189 82.2983 21.4946C82.2983 20.9703 81.8322 20.5625 81.3662 20.5625ZM81.8905 21.2616C81.7157 21.3781 81.3079 21.3781 81.0749 21.4363C80.8419 21.4946 80.6088 21.3781 80.7254 21.2616C80.7254 21.2616 81.1914 20.7955 81.5409 20.9703C81.8905 21.0285 82.0652 21.1451 81.8905 21.2616Z" fill="#37271B"/>
<path d="M65.3458 15.4365C64.8215 15.4365 64.3555 15.9026 64.3555 16.4269C64.3555 16.9512 64.8215 17.4172 65.3458 17.4172C65.8701 17.4172 66.3362 16.9512 66.3362 16.4269C66.3362 15.9026 65.8701 15.4365 65.3458 15.4365ZM65.8701 16.0773C65.6953 16.1938 65.2876 16.1938 65.0545 16.2521C64.8215 16.3104 64.5885 16.1938 64.705 16.0773C64.705 16.0773 65.171 15.6113 65.5206 15.7861C65.8119 15.8443 66.0449 15.9608 65.8701 16.0773Z" fill="#37271B"/>
<path d="M19.1488 35.0686C19.1488 35.3599 19.3818 35.5929 19.6731 35.5929C19.7314 35.5929 20.1392 35.5929 20.6052 35.3599L20.6635 35.4181C21.5373 35.9424 23.6928 35.4764 24.6249 35.2433C24.6831 35.3016 24.7414 35.4181 24.7996 35.4764C24.9161 35.6511 25.0326 35.7094 25.2074 35.7094C25.3239 35.7094 25.3822 35.7094 25.4987 35.6511C25.7317 35.4764 25.79 35.1851 25.6735 34.9521C25.0326 33.9035 23.4015 31.515 22.3529 31.3402C22.1199 31.2819 21.8868 31.3402 21.7121 31.515C21.1878 31.9228 20.0809 32.8549 20.1974 34.486C19.9061 34.6025 19.6731 34.6025 19.6731 34.6025C19.3236 34.6025 19.1488 34.8356 19.1488 35.0686ZM22.2364 32.3306C22.5859 32.5053 23.285 33.3209 24.0423 34.3695C22.9937 34.6025 21.5373 34.7773 21.1878 34.6025C21.013 33.4957 21.5956 32.8549 22.2364 32.3306Z" fill="#37271B"/>
<path d="M38.7811 30.3487C39.0724 30.3487 39.3054 30.1157 39.3054 29.8244C39.3054 29.5331 39.0724 29.3001 38.7811 29.3001H38.3734C38.0821 28.7758 37.4995 27.7272 36.5092 27.3777C35.9266 27.2029 35.344 27.2611 34.7615 27.6107C33.9459 28.135 33.8294 29.4166 34.412 31.5138C34.5285 31.9216 34.645 32.3877 34.8197 32.8537C34.878 33.0867 35.111 33.2032 35.2858 33.2032C35.344 33.2032 35.4023 33.2032 35.4606 33.2032C35.6936 33.0867 35.8683 32.8537 35.7518 32.5624C35.6353 32.2712 35.5771 31.9799 35.4606 31.7468L38.1403 30.2905H38.7811V30.3487ZM35.344 28.5428C35.6936 28.368 35.9849 28.3098 36.2761 28.368C36.8004 28.5428 37.2082 29.1253 37.4995 29.5914L36.5674 30.1157C36.7422 29.9409 36.917 29.7079 36.917 29.4749C36.917 29.0088 36.5674 28.6593 36.1014 28.6593C35.6353 28.6593 35.2858 29.0088 35.2858 29.4749C35.2858 29.9409 35.6353 30.2905 36.1014 30.2905C36.2179 30.2905 36.2761 30.2905 36.3927 30.2322L35.4023 30.7565C34.9363 29.3001 35.111 28.6593 35.344 28.5428ZM36.2761 29.3001C36.1014 29.2418 35.7518 29.2418 35.5771 29.1253C35.4023 29.0088 35.6353 28.9506 35.8683 28.8341C36.1014 28.7175 36.5674 29.1253 36.5674 29.1253C36.6839 29.3001 36.4509 29.4166 36.2761 29.3001Z" fill="#37271B"/>
<path d="M27.596 34.3692C29.7515 32.0972 32.1982 32.7963 32.3147 32.7963C32.5478 32.8546 32.839 32.7381 32.9556 32.4468C33.0138 32.2138 32.8973 31.9225 32.606 31.806C32.4895 31.7477 29.5185 30.8739 26.8969 33.6119C26.7222 33.7867 26.7222 34.1362 26.8969 34.311C27.0135 34.4275 27.13 34.4275 27.2465 34.4275C27.363 34.544 27.4795 34.4857 27.596 34.3692Z" fill="#37271B"/>
<path d="M26.1977 44.6793C26.3725 44.854 26.722 44.854 26.8968 44.6793L27.1298 44.388C27.9454 45.3783 29.6931 46.2522 30.3921 46.3104H30.4504C31.0912 46.3104 31.5573 45.9026 31.9068 45.5531C31.9068 45.6114 31.9068 45.6696 31.9068 45.6696C32.0233 46.1357 32.4311 46.2522 32.8389 46.2522C33.0719 46.2522 33.3049 46.1939 33.4797 46.1939C33.538 46.1939 33.5962 46.1939 33.6545 46.1939C33.8292 46.1939 34.004 46.0774 34.0623 46.0191C34.0623 45.9609 34.1205 45.9609 34.1788 45.8444C34.2953 45.9026 34.3535 45.9026 34.4701 45.9026C34.5283 45.9026 34.5283 45.9026 34.5866 45.9026C34.7031 45.9026 34.8778 45.9026 34.9944 45.9026C35.4022 45.9026 35.8682 45.8444 36.1012 45.4366C36.276 45.1453 36.2177 44.6793 36.1595 44.2715C36.2177 44.2132 36.3342 44.0967 36.3925 44.0384C36.6838 43.7472 36.9168 43.5141 37.3829 43.5141C37.6741 43.5141 37.9654 43.3976 38.1984 43.1646C38.7227 42.6403 38.8392 41.5334 38.8392 40.7179L39.5966 41.0091C39.8296 41.1257 40.1209 40.9509 40.2374 40.7179C40.3539 40.4848 40.1791 40.1936 39.9461 40.077L38.4897 39.5527C38.3149 39.4945 38.1402 39.4945 38.0237 39.611C37.9654 39.7858 37.9072 39.9605 37.9072 40.1353C37.9654 40.9509 37.9072 42.2325 37.5576 42.582C37.4994 42.6403 37.4994 42.6403 37.4411 42.6403C36.5673 42.6403 36.1012 43.1064 35.7517 43.4559C35.5769 43.6307 35.4604 43.7472 35.3439 43.7472C35.0526 43.8054 34.7613 43.7472 34.5866 43.7472C34.5866 43.3976 34.4701 42.9898 34.4118 42.6986C34.4118 42.6403 34.3535 42.6403 34.3535 42.582C36.1012 41.7665 36.3925 39.844 36.1595 36.3487C36.1595 36.0574 34.6448 35.0088 32.4894 35.0088C31.033 35.0088 29.227 35.5331 27.4794 37.2225C26.5473 38.0963 29.8678 42.9898 31.9068 42.9898C32.4894 42.9898 33.0137 42.9316 33.4797 42.8733C33.4797 42.9316 33.4797 42.9898 33.4797 42.9898C33.5962 43.2811 33.6545 43.6889 33.6545 43.8637C33.538 43.8637 33.4215 43.9219 33.2467 43.9219C32.7806 43.9802 32.3146 44.0384 31.9068 44.3297C31.732 44.4462 31.6155 44.621 31.4408 44.7375C31.0912 45.087 30.8582 45.3201 30.5087 45.3201C29.8678 45.3201 27.8871 44.0384 27.7706 43.4559C27.7124 43.2811 27.5959 43.1064 27.4211 43.0481C27.2463 42.9898 27.0716 43.0481 26.8968 43.1646L26.1977 43.9219C26.023 44.2132 26.023 44.5045 26.1977 44.6793ZM31.8485 41.9995C31.6155 41.9995 31.033 41.7665 30.1009 40.7761C28.994 39.611 28.3532 38.2711 28.2367 37.7468C29.5183 36.5817 30.9747 35.9409 32.4311 35.9409C33.771 35.9409 34.7613 36.4652 35.1109 36.6982C35.2856 39.2615 35.0526 40.6013 34.4701 41.2422C34.1788 41.5917 33.5962 41.9995 31.8485 41.9995ZM34.4701 44.9705C34.5283 44.9705 34.5283 44.9705 34.5283 44.9705C34.4701 44.9705 34.4701 44.9705 34.4701 44.9705ZM35.0526 44.7375C35.1109 44.7375 35.2274 44.7375 35.2856 44.7375C35.2856 44.854 35.2856 44.9123 35.2856 44.9705C35.1691 44.9705 34.9944 44.9705 34.8196 44.9705C34.8196 44.9123 34.8196 44.7958 34.8196 44.7375C34.8779 44.7375 34.9361 44.7375 35.0526 44.7375ZM33.3049 44.9123C33.3049 45.0288 33.3632 45.2036 33.3632 45.3201C33.2467 45.3201 33.0719 45.3783 32.9554 45.3783C32.9554 45.2618 32.8972 45.1453 32.8972 45.0288C33.0137 44.9123 33.1302 44.9123 33.3049 44.9123Z" fill="#37271B"/>
<path d="M10.8765 25.4561C10.527 25.3396 10.4687 24.757 9.71139 25.1648C8.95407 25.5144 8.66279 24.524 8.255 24.1162C7.8472 23.7084 7.20639 24.3493 6.91511 24.3493C6.62383 24.3493 5.98302 23.1841 5.69174 23.9997C5.45871 24.8153 9.8279 28.7184 10.0027 28.7184C10.1774 28.7184 10.1192 28.4272 10.3522 27.6698C10.5852 26.9125 12.2747 25.5726 12.2747 25.5726C11.9251 25.1066 11.226 25.5144 10.8765 25.4561Z" fill="#37271B"/>
<path d="M22.4114 34.6016C22.8192 34.6016 23.1687 34.252 23.1687 33.8442C23.1687 33.4364 22.8192 33.0869 22.4114 33.0869C22.0036 33.0869 21.6541 33.4364 21.6541 33.8442C21.6541 34.252 22.0036 34.6016 22.4114 34.6016ZM22.2366 33.3199C22.5279 33.2034 22.9357 33.6112 22.9357 33.6112C23.0522 33.7277 22.8192 33.8442 22.6444 33.786C22.4696 33.7277 22.1201 33.7277 21.9453 33.6112C21.7706 33.4947 21.9453 33.3782 22.2366 33.3199Z" fill="#37271B"/>
<path d="M114.164 30.3487C114.456 30.3487 114.689 30.1157 114.689 29.8244C114.689 29.5331 114.456 29.3001 114.164 29.3001H113.756C113.465 28.7758 112.883 27.7272 111.892 27.3777C111.31 27.2029 110.727 27.2611 110.145 27.6107C109.212 28.1932 109.212 29.9409 110.203 32.8537C110.261 33.0867 110.494 33.2032 110.669 33.2032C110.727 33.2032 110.785 33.2032 110.844 33.2032C111.077 33.0867 111.251 32.8537 111.135 32.5624C111.018 32.2712 110.96 31.9799 110.844 31.7468L113.523 30.2905H114.164V30.3487ZM110.727 28.5428C111.077 28.368 111.368 28.3098 111.659 28.368C112.184 28.5428 112.591 29.1253 112.883 29.5914L111.951 30.1157C112.125 29.9409 112.3 29.7079 112.3 29.4749C112.3 29.0088 111.951 28.6593 111.484 28.6593C111.018 28.6593 110.669 29.0088 110.669 29.4749C110.669 29.9409 111.018 30.2905 111.484 30.2905C111.601 30.2905 111.659 30.2905 111.776 30.2322L110.785 30.7565C110.319 29.3001 110.494 28.6593 110.727 28.5428ZM111.659 29.3001C111.484 29.2418 111.135 29.2418 110.96 29.1253C110.785 29.0088 111.018 28.9506 111.251 28.8341C111.543 28.7175 111.951 29.1253 111.951 29.1253C112.067 29.3001 111.834 29.4166 111.659 29.3001Z" fill="#37271B"/>
<path d="M102.979 34.3692C105.134 32.0972 107.581 32.7963 107.698 32.7963C107.931 32.8546 108.222 32.7381 108.338 32.4468C108.397 32.2138 108.28 31.9225 107.989 31.806C107.872 31.7477 104.901 30.8739 102.28 33.6119C102.105 33.7867 102.105 34.1362 102.28 34.311C102.396 34.4275 102.513 34.4275 102.629 34.4275C102.746 34.544 102.921 34.4857 102.979 34.3692Z" fill="#37271B"/>
<path d="M112.824 43.6307C113.116 43.6307 113.407 43.5141 113.64 43.2811C114.164 42.7568 114.281 41.65 114.281 40.8344L115.038 41.1257C115.271 41.2422 115.562 41.0674 115.679 40.8344C115.795 40.6014 115.621 40.3101 115.388 40.1936L113.931 39.6693C113.756 39.611 113.582 39.611 113.465 39.7275C113.349 39.844 113.232 40.0188 113.29 40.1353C113.349 40.9509 113.29 42.2325 112.941 42.582C112.883 42.6403 112.883 42.6403 112.824 42.6403C111.951 42.6403 111.485 43.1064 111.135 43.4559C110.96 43.6307 110.844 43.7472 110.727 43.7472C110.436 43.8054 110.145 43.7472 109.97 43.7472C109.97 43.3976 109.853 42.9898 109.795 42.6986C109.795 42.6403 109.737 42.6403 109.737 42.582C111.485 41.7665 111.776 39.844 111.543 36.3487C111.543 36.0574 110.028 35.0088 107.873 35.0088C106.416 35.0088 104.61 35.5331 102.863 37.2225C101.931 38.0963 105.251 42.9898 107.29 42.9898C107.873 42.9898 108.397 42.9316 108.863 42.8733C108.863 42.9316 108.863 42.9898 108.863 42.9898C108.98 43.2811 109.038 43.6889 109.038 43.8637C108.921 43.8637 108.805 43.9219 108.63 43.9219C108.164 43.9802 107.698 44.0384 107.29 44.3297C107.115 44.4462 106.999 44.621 106.824 44.7375C106.475 45.087 106.241 45.3783 105.892 45.3201C105.251 45.3201 103.27 44.0384 103.154 43.4559C103.096 43.2811 102.979 43.1064 102.804 43.0481C102.63 42.9898 102.455 43.0481 102.28 43.1646L101.581 43.9219C101.406 44.0967 101.406 44.4462 101.581 44.621C101.756 44.7958 102.105 44.7958 102.28 44.621L102.513 44.3297C103.329 45.3201 105.076 46.1939 105.775 46.2522H105.834C106.475 46.2522 106.941 45.8444 107.29 45.4948C107.29 45.5531 107.29 45.6114 107.29 45.6114C107.407 46.0774 107.814 46.1939 108.222 46.1939C108.455 46.1939 108.688 46.1357 108.863 46.1357C108.921 46.1357 108.98 46.1357 109.038 46.1357C109.213 46.1357 109.387 46.0191 109.446 45.9609C109.446 45.9026 109.504 45.9026 109.562 45.7861C109.679 45.8444 109.737 45.8444 109.853 45.8444C109.912 45.8444 109.912 45.8444 109.97 45.8444C110.086 45.8444 110.261 45.8444 110.378 45.8444C110.785 45.8444 111.251 45.7861 111.485 45.3783C111.659 45.0871 111.601 44.621 111.543 44.2132C111.601 44.155 111.718 44.0384 111.776 43.9802C112.125 43.8637 112.358 43.6307 112.824 43.6307ZM107.232 41.9995C106.999 41.9995 106.416 41.7665 105.484 40.7761C104.377 39.611 103.736 38.2711 103.62 37.7468C104.902 36.5817 106.358 35.9409 107.814 35.9409C109.154 35.9409 110.145 36.4652 110.494 36.6982C110.669 39.2615 110.436 40.6013 109.853 41.2422C109.562 41.5917 108.98 41.9995 107.232 41.9995ZM108.339 45.3201C108.339 45.2036 108.28 45.0871 108.28 44.9705C108.397 44.9705 108.572 44.9123 108.688 44.9123C108.688 45.0288 108.746 45.2036 108.746 45.3201C108.572 45.3201 108.455 45.3201 108.339 45.3201ZM109.853 44.9705C109.912 44.9705 109.912 44.9705 109.912 44.9705C109.853 44.9705 109.853 44.9705 109.853 44.9705ZM110.261 44.9705C110.261 44.9123 110.261 44.7958 110.261 44.7375C110.319 44.7375 110.378 44.7375 110.436 44.7375C110.494 44.7375 110.611 44.7375 110.669 44.7375C110.669 44.854 110.669 44.9123 110.669 44.9705C110.552 45.0288 110.378 44.9705 110.261 44.9705Z" fill="#37271B"/>
<path d="M97.7942 34.6016C98.202 34.6016 98.5515 34.252 98.5515 33.8442C98.5515 33.4364 98.202 33.0869 97.7942 33.0869C97.3864 33.0869 97.0369 33.4364 97.0369 33.8442C97.0369 34.252 97.3864 34.6016 97.7942 34.6016ZM97.6194 33.3199C97.9107 33.2034 98.3185 33.6112 98.3185 33.6112C98.435 33.7277 98.202 33.8442 98.0272 33.786C97.8524 33.7277 97.5029 33.7277 97.3281 33.6112C97.1534 33.4947 97.3864 33.3782 97.6194 33.3199Z" fill="#37271B"/>
<path d="M139.331 64.0209L138.107 61.8655C137.467 60.7003 136.826 59.4187 136.243 58.1954C135.195 56.0399 134.146 53.8262 132.69 51.9037C132.107 51.1464 131.525 50.3891 130.826 49.69C130.01 48.8744 129.078 48.1171 128.204 47.418L123.777 43.8644C122.437 42.8158 120.514 42.7576 119.174 43.0488C118.883 43.1071 118.767 43.3984 118.825 43.6314C118.883 43.9227 119.174 44.0392 119.407 43.9809C120.805 43.6314 122.32 43.9227 123.194 44.6217L127.621 48.1171C128.495 48.8162 129.369 49.5152 130.126 50.3308C130.826 51.0299 131.408 51.7872 131.932 52.4863C133.331 54.2922 134.379 56.5059 135.369 58.6031C135.952 59.8265 136.593 61.1081 137.234 62.3315L138.457 64.487C138.574 64.6617 138.69 64.8948 138.69 65.0695V65.1278C138.515 65.0695 138.34 65.1278 138.224 65.2443C138.107 65.3608 138.049 65.5938 138.107 65.7686C138.166 65.9434 138.107 66.2347 137.933 66.3512C137.758 66.4677 137.467 66.4094 137.35 66.2347C137.292 66.1181 137.234 66.0016 137.175 65.8269L136.36 63.4384C136.302 63.2636 136.127 63.1471 135.952 63.0888C135.544 63.0306 135.311 63.2636 135.136 63.4966V63.1471C135.136 62.9141 135.136 62.681 135.02 62.3898C134.845 62.0985 134.612 61.8655 134.437 61.749C132.981 60.6421 131.466 59.477 129.719 58.6614L129.544 58.6031C129.253 58.4866 128.961 58.3119 128.728 58.1371C128.554 58.0206 128.437 57.7876 128.262 57.6128C128.204 57.5545 128.146 57.438 128.087 57.3798C127.155 56.2729 126.165 55.5738 125 55.2826C124.883 55.2243 124.709 55.2826 124.592 55.3408C124.301 54.7583 124.068 54.234 123.777 53.7096L123.718 53.6514C123.485 53.2436 123.252 52.8358 123.136 52.428C123.077 52.2533 123.019 52.0785 123.019 51.8455C122.961 51.4377 122.844 51.0299 122.67 50.6803C122.437 50.2726 122.145 49.923 121.796 49.6317C121.446 49.2239 121.097 48.9327 121.039 48.5249C120.98 48.2336 120.747 48.0588 120.456 48.1171C120.165 48.1753 119.99 48.4084 120.048 48.6996C120.165 49.3987 120.631 49.923 121.097 50.3891C121.388 50.6803 121.621 50.9134 121.796 51.2046C121.912 51.4959 121.971 51.7872 122.087 52.1367C122.145 52.3698 122.145 52.5445 122.204 52.7776C122.378 53.3019 122.611 53.7679 122.844 54.234L122.903 54.2922C125.641 59.477 128.554 67.2833 127.039 75.2061C126.515 77.7693 125.524 80.3326 124.592 82.7211L122.378 88.3719C122.262 88.6632 122.204 89.0709 122.087 89.4787C121.912 90.2943 121.621 91.3429 121.213 92.042C120.922 92.4498 120.281 93.6149 120.048 94.0809C119.64 95.013 119.349 96.0034 119.291 97.052C119.291 97.3433 119.291 97.6346 119.407 97.9258C119.699 98.5667 120.339 98.8579 120.864 99.0327H120.922C122.378 99.557 123.602 100.489 124.476 101.771C124.126 101.829 123.718 101.887 123.369 102.004C122.961 102.12 122.553 102.237 122.145 102.237C121.796 102.237 121.388 102.237 120.864 102.12C120.747 102.12 120.514 102.062 120.223 102.179C119.99 102.295 119.932 102.47 119.873 102.586V102.645C119.873 102.703 119.64 102.703 119.466 102.586C119.349 102.528 119.174 102.412 119.058 102.237C118.883 102.062 118.708 101.945 118.534 101.829C118.184 101.596 117.776 101.538 117.427 101.421C117.31 101.363 117.194 101.363 117.019 101.305C116.029 101.013 115.213 100.256 114.747 99.324C114.514 98.7414 114.397 98.1589 114.281 97.4598C114.223 97.285 114.223 97.1103 114.164 96.9355C113.99 96.0617 113.757 95.1878 113.524 94.3722C113.174 93.2071 112.883 92.042 112.184 90.9934C111.718 90.2361 111.077 89.6535 110.494 89.0127L107.232 85.6921C108.28 84.8183 109.213 83.8862 110.145 82.8376C110.319 82.6628 110.319 82.3133 110.086 82.1385C109.912 81.9637 109.562 81.9637 109.387 82.1968C108.222 83.4784 106.882 84.7018 105.542 85.8086C105.251 86.0416 104.902 86.2747 104.61 86.5077C103.97 86.9737 103.27 87.498 102.688 88.0806C102.105 88.6049 101.523 89.1875 100.94 89.77L99.6004 91.1099C99.3091 91.4012 99.0178 91.6925 98.7848 92.1003C98.61 92.4498 98.4935 92.7993 98.377 93.1489C98.3187 93.2654 98.2605 93.4401 98.2605 93.5566C98.0857 94.0227 97.8527 94.4305 97.6197 94.8965C97.3284 95.4208 96.9789 96.0034 96.8041 96.6442C96.6293 97.1685 96.5711 97.7511 96.5128 98.2754C96.3963 99.2075 96.2798 100.081 95.6972 100.664C95.4642 100.897 95.1147 101.072 94.7651 101.246C94.2408 101.479 93.7165 101.771 93.2505 101.654C93.0757 101.596 92.8427 101.538 92.6097 101.421L92.4349 101.305C92.8427 101.246 93.1922 101.13 93.5418 100.839C93.833 100.606 93.833 100.314 93.833 100.198C93.7748 99.9648 93.6 99.79 93.5418 99.7318C93.0174 99.324 92.4931 98.9162 91.9688 98.5667C92.3184 98.3919 92.6679 98.1006 92.8427 97.7511C93.367 96.7607 92.6679 95.6539 92.3766 95.1296L90.6872 92.3333C90.629 92.2168 90.5124 92.042 90.4542 91.9255L91.0368 90.9351C91.328 90.4691 91.5611 90.0613 91.7941 89.537C92.2601 88.5466 92.4349 87.6145 92.2601 86.799L92.3184 86.6824C93.134 84.8183 93.8913 83.0706 94.2408 81.0899C94.4738 79.9248 94.5321 78.7014 94.5904 77.8276C94.7651 73.6331 94.4156 69.4387 94.0661 65.3608C94.0078 64.8948 94.0078 64.487 93.8913 64.0209C93.7748 63.4966 93.5417 63.0888 93.367 62.6228L93.2505 62.3898C92.0854 59.6517 91.4445 56.6807 90.9202 53.7679C91.7358 54.1174 92.4931 54.7583 93.2505 55.6321C93.3087 55.6903 93.367 55.8069 93.4252 55.8651C93.6583 56.0981 93.833 56.3894 94.1243 56.6224C94.4738 56.9137 94.9399 57.1467 95.3477 57.3215L95.5224 57.3798C97.4449 58.3119 99.1926 59.5935 100.882 60.8751C101.057 60.9916 101.232 61.1081 101.29 61.2829C101.348 61.3994 101.348 61.5742 101.348 61.749L101.406 63.3801C101.406 63.5549 101.523 63.7297 101.698 63.7879C102.222 64.0209 102.804 63.7297 103.096 63.0888L103.853 65.2443C103.911 65.4773 104.028 65.7686 104.203 66.0016C104.669 66.6424 105.601 66.8172 106.3 66.4094C106.766 66.1181 107.057 65.5938 107.057 65.0113C107.057 65.0113 107.115 65.0113 107.115 64.953C107.465 64.7783 107.64 64.4287 107.698 64.0792C107.756 63.5549 107.523 63.0888 107.29 62.7393L105.834 60.176C105.076 58.7779 104.319 57.3215 103.678 55.8651C102.455 53.3601 101.232 50.7386 99.4838 48.4666C99.4838 48.4666 99.4839 48.4666 99.4256 48.4084C99.7169 48.3501 99.9499 48.2336 99.9499 48.1753C100.183 48.0588 100.241 47.7093 100.125 47.4763C100.008 47.2433 99.6586 47.185 99.4256 47.3015C99.4256 47.3015 99.0761 47.4763 98.6683 47.4763C98.2022 46.8937 97.7362 46.3112 97.1536 45.7869C96.2215 44.7965 95.1147 43.9809 94.1243 43.1071L88.8813 38.9127C88.6483 38.7379 88.357 38.7962 88.1822 38.9709C88.0074 39.2039 88.0657 39.4952 88.2405 39.67L93.4835 43.8644C94.4738 44.68 95.5225 45.4956 96.4545 46.4277C97.2701 47.2432 97.9692 48.1171 98.61 48.9909C100.299 51.1464 101.465 53.7096 102.688 56.2146C103.387 57.671 104.086 59.1857 104.902 60.5838L106.358 63.1471C106.533 63.4384 106.649 63.6714 106.649 63.9044C106.649 63.9627 106.591 64.0209 106.591 64.0792C106.416 64.0209 106.183 64.0209 106.067 64.1957C105.95 64.3122 105.892 64.5452 105.95 64.72C106.067 65.0113 105.95 65.3608 105.717 65.4773C105.484 65.5938 105.076 65.5356 104.902 65.3026C104.785 65.1861 104.727 65.0113 104.669 64.8365L103.678 61.982C103.62 61.8072 103.445 61.6907 103.27 61.6324C102.746 61.5742 102.397 61.982 102.222 62.2733V61.6324C102.222 61.3994 102.222 61.1081 102.047 60.7586C101.872 60.4091 101.581 60.176 101.348 60.0013C99.6004 58.6614 97.8527 57.3215 95.8137 56.3894L95.639 56.3312C95.2894 56.1564 94.9399 55.9816 94.6486 55.7486C94.4738 55.5738 94.2991 55.3408 94.0661 55.1078C94.0078 54.9913 93.9495 54.933 93.833 54.8165C92.7844 53.5349 91.6193 52.7193 90.2212 52.3698C90.0464 52.3115 89.8716 52.3698 89.7551 52.4863C89.6386 52.6028 89.5804 52.7776 89.5804 52.9523C90.1629 56.1564 90.8037 59.5352 92.1436 62.6228L92.2601 62.8558C92.4349 63.2636 92.6097 63.6714 92.7262 64.0792C92.8427 64.4287 92.8427 64.8365 92.9009 65.3026C93.2505 69.3805 93.6 73.5166 93.4252 77.6528C93.367 78.5266 93.3087 79.6918 93.134 80.7986C92.7844 82.7211 92.0271 84.4105 91.2698 86.2164L91.1533 86.4494C91.095 86.5659 91.095 86.6825 91.1533 86.7407C91.328 87.5563 91.0368 88.4301 90.8037 89.0127C90.5707 89.4787 90.3377 89.8865 90.0464 90.2943L88.0074 93.6149C87.6579 94.1392 86.9006 95.4791 87.4831 96.5859C87.7744 97.1685 88.2987 97.4598 88.823 97.7511C90.1047 98.4501 91.328 99.324 92.4931 100.198C92.1436 100.314 91.7358 100.314 91.328 100.314H90.9785C90.1629 100.314 89.4056 100.431 88.6483 100.722C88.5318 100.722 88.4735 100.78 88.4152 100.839C88.2405 100.897 88.0657 100.955 87.8909 101.013L87.6579 101.13C87.4249 101.246 87.1336 101.363 86.9006 101.421C86.318 101.538 85.6772 101.246 85.0364 100.955C84.6286 100.722 84.2208 100.547 83.9295 100.256C83.2305 99.557 83.114 98.5084 82.9974 97.4015C82.9392 96.7607 82.8227 96.1199 82.6479 95.4791C82.4149 94.7218 82.0653 94.0809 81.7158 93.4401C81.4245 92.9158 81.1333 92.3915 80.9585 91.8672C80.9002 91.6925 80.842 91.5177 80.7837 91.3429C80.6672 90.9351 80.5507 90.5273 80.3177 90.1778C80.0847 89.7118 79.6769 89.3622 79.3856 89.0127L77.8127 87.3815C77.1719 86.7407 76.4728 86.0416 75.7737 85.4008C75.0164 84.76 74.2591 84.1775 73.5017 83.5949C73.1522 83.3036 72.7444 83.0123 72.3949 82.7211C70.7637 81.4394 69.2491 79.983 67.8509 78.4684C67.6762 78.2936 67.3266 78.2354 67.1519 78.4101C66.9771 78.5849 66.9188 78.9344 67.0936 79.1092C68.2005 80.3326 69.3656 81.4394 70.589 82.488L66.6858 86.4494C65.9867 87.1485 65.2877 87.8476 64.7051 88.7214C63.9478 89.9448 63.54 91.3429 63.1322 92.6828C62.8409 93.6732 62.5496 94.6635 62.3749 95.7121C62.3166 95.8869 62.3166 96.1199 62.2584 96.2947C62.1419 97.052 61.9671 97.8093 61.6758 98.4501C61.1515 99.557 60.1612 100.431 58.9378 100.78C58.763 100.839 58.6465 100.839 58.4717 100.897C58.0639 101.013 57.5979 101.13 57.1901 101.363C56.9571 101.538 56.7823 101.712 56.5493 101.829C56.3745 102.004 56.1998 102.12 56.025 102.237C55.792 102.353 55.5007 102.412 55.3842 102.237C55.3842 102.237 55.3842 102.179 55.3259 102.179C55.2677 102.062 55.1511 101.829 54.9181 101.712C54.6851 101.596 54.3938 101.654 54.2773 101.654C53.6365 101.771 53.1704 101.829 52.7627 101.829C52.2966 101.829 51.8306 101.654 51.3063 101.538C50.8402 101.421 50.3742 101.305 49.8499 101.246C50.8402 99.6735 52.4131 98.4501 54.1608 97.8676H54.2191C54.8599 97.6346 55.6172 97.4015 55.9085 96.6442C56.025 96.2947 56.025 96.0034 56.025 95.6539C55.9085 94.4305 55.6172 93.2654 55.0929 92.1585C54.8599 91.6342 54.0443 90.2943 53.753 89.77C53.2287 88.9544 52.9374 87.7311 52.7044 86.7407C52.5879 86.2164 52.4714 85.7504 52.3549 85.4008L49.8499 78.9927C48.743 76.1381 47.5779 73.1671 46.9953 70.1378C45.8885 64.6617 46.6458 59.244 48.1022 54.4087C48.3352 54.2922 48.3935 54.0009 48.277 53.7679C49.2673 50.6803 50.5489 47.8258 51.7723 45.4956L51.8306 45.3791C52.1218 44.8548 52.4131 44.3305 52.5879 43.6896C52.6461 43.4566 52.7044 43.2236 52.7627 42.9323C52.8209 42.5245 52.9374 42.175 53.1122 41.8255C53.287 41.4759 53.5782 41.1846 53.9278 40.8351C54.4521 40.3108 55.0346 39.7282 55.0929 38.9127C55.1511 38.6214 54.9181 38.3884 54.6851 38.3301C54.3938 38.2718 54.1608 38.5049 54.1025 38.7379C54.0443 39.2622 53.6365 39.6117 53.1704 40.0778C52.8209 40.4273 52.4131 40.8351 52.1801 41.3012C51.9471 41.7672 51.8306 42.2332 51.7723 42.6993C51.7141 42.9323 51.7141 43.1653 51.5975 43.3401C51.481 43.8644 51.1898 44.3305 50.9567 44.7965L50.8985 44.913C50.5489 45.5538 50.2577 46.1946 49.9081 46.8937C49.7916 46.7772 49.6168 46.7189 49.4421 46.7772C48.1022 47.1267 46.9371 47.9423 45.8302 49.2239C45.772 49.3405 45.7137 49.3987 45.5972 49.5152C45.4224 49.7483 45.2477 49.9813 45.0146 50.156C44.7233 50.3891 44.3738 50.5638 44.0243 50.7386L43.8495 50.7969C41.8106 51.729 40.0629 53.1271 38.3152 54.4087C38.0822 54.5835 37.7909 54.8165 37.6161 55.166C37.4996 55.4573 37.4414 55.7486 37.4414 56.0399V56.6807C37.2666 56.3894 36.9171 55.9816 36.3928 56.0399C36.218 56.0399 36.0432 56.2146 35.985 56.3894L34.9946 59.244C34.9364 59.4187 34.8781 59.5935 34.7616 59.71C34.5868 59.943 34.179 60.0013 33.946 59.8848C33.713 59.71 33.5965 59.3605 33.713 59.1274C33.7712 58.9527 33.7712 58.7197 33.6547 58.6031C33.5382 58.4866 33.3052 58.4284 33.1304 58.4866C33.0722 58.4866 33.0139 58.4284 33.0139 58.3119C33.0139 58.1371 33.1304 57.8458 33.3052 57.5545L34.7616 54.9913C35.5772 53.5931 36.2763 52.0785 36.9753 50.6221C38.1404 48.1171 39.3638 45.5538 41.0532 43.3984C41.694 42.5828 42.3931 41.6507 43.2087 40.8351C44.1408 39.903 45.1894 39.0874 46.1797 38.2719L51.4228 34.0774C52.4714 33.2619 54.2191 32.9706 55.9085 33.3201C56.1998 33.3784 56.4328 33.2036 56.491 32.9706C56.5493 32.6793 56.3745 32.4463 56.1415 32.388C54.5686 32.0385 52.3549 32.0967 50.782 33.3201L46.9371 36.4659C46.9953 35.7668 47.2284 35.3008 47.5196 35.126C48.1604 34.6017 47.9274 33.8444 47.7527 33.4366C47.7527 33.4366 47.7527 33.3784 47.6944 33.3784C47.9857 33.2618 48.3935 33.0288 48.5682 32.155C48.6847 31.4559 48.3352 31.0481 48.1022 30.7568C47.8692 30.5238 47.8692 30.4656 47.9857 30.1743C48.51 29.0092 46.1797 27.4945 44.0243 26.4459C43.8495 24.7565 43.0339 23.5914 42.5096 22.9506C44.3156 21.3194 44.2573 19.63 44.1408 18.8727C44.3156 18.7561 44.4321 18.5231 44.6068 18.2318C45.0146 17.4163 44.4903 16.5424 44.4321 16.4259C44.3156 16.2511 44.0825 16.1346 43.8495 16.1929C43.8495 16.1929 42.9757 16.4842 41.9271 16.7754C41.4028 16.9502 39.8299 16.8337 38.1404 16.7754C36.7423 16.7172 35.2276 16.6007 33.6547 16.6007C31.0332 16.6007 29.2273 17.2415 28.0622 17.7075C27.5379 17.8823 27.1301 18.0571 26.7805 18.1153C25.9067 18.2318 25.3242 17.4745 25.3242 17.4163C25.2659 17.2997 25.1494 17.2415 24.9746 17.2415C24.8581 17.2415 24.6833 17.2415 24.6251 17.358C24.6251 17.358 23.1687 18.5231 21.8871 19.2222C20.8967 19.8047 15.945 21.5524 13.3817 22.4263C7.26483 22.0767 5.10937 22.0185 4.35204 22.8923C4.11902 23.1836 3.4782 23.9992 9.12902 31.3394L10.1194 37.398C8.60472 38.7379 8.83774 40.4273 9.24553 41.3012C8.896 42.4663 8.95425 43.3984 9.4203 44.0392C9.82809 44.6217 10.3524 44.8548 10.7602 44.913L11.2845 46.4277C11.3427 46.6607 11.634 46.8355 11.867 46.7772L13.0322 46.4277C13.2652 46.952 13.6147 47.3015 14.0225 47.5928C14.7798 48.0588 15.7119 47.9423 16.178 47.8841C17.1683 49.1074 18.6247 49.1074 19.4403 48.8744C19.7898 49.1657 20.1976 49.2822 20.6637 49.2822C20.7219 49.2822 20.7802 49.2822 20.8384 49.2822C21.5958 49.2239 22.2366 48.6996 22.5861 48.3501C23.46 48.6996 24.4503 48.1753 24.5086 48.1753C24.7416 48.0588 24.7998 47.7093 24.6833 47.4763C24.5668 47.2433 24.2173 47.185 23.9843 47.3015C23.9843 47.3015 23.2269 47.7093 22.7609 47.3598C22.6444 47.3015 22.5279 47.2432 22.4114 47.2432C22.2948 47.2432 22.1783 47.3015 22.0618 47.418C21.8871 47.651 21.3045 48.2336 20.7219 48.2919C20.4307 48.2919 20.1394 48.2336 19.8481 47.9423C19.7316 47.8258 19.4986 47.7676 19.3238 47.8258C19.2655 47.8258 17.6926 48.4666 16.7605 47.0685C16.644 46.8937 16.411 46.7772 16.2362 46.8937C16.2362 46.8937 15.1876 47.185 14.4886 46.7772C14.139 46.6024 13.906 46.2529 13.7895 45.7869C13.7312 45.6703 13.673 45.5538 13.5565 45.4956C13.44 45.4373 13.3234 45.4373 13.2069 45.4373L12.0418 45.7286L11.5758 44.3887C11.5175 44.2139 11.3427 44.0392 11.1097 44.0392C11.1097 44.0392 10.5272 43.9809 10.1776 43.5149C9.88635 43.0488 9.88635 42.3498 10.1776 41.4177C10.2359 41.3012 10.1776 41.1264 10.1194 41.0099C10.0029 40.8351 9.24553 39.2622 10.8767 37.9806C10.9932 37.8641 11.1097 37.6893 11.0515 37.5145L10.0029 31.0481C10.0029 30.9899 9.9446 30.8734 9.88635 30.8151C7.67262 27.9023 5.28413 24.2905 5.16762 23.4749C5.80844 23.0088 9.30379 23.1836 13.3817 23.4166C13.44 23.4166 13.4982 23.4166 13.5565 23.4166C13.8477 23.3001 21.0132 20.9116 22.3531 20.1543C23.2852 19.63 24.3338 18.8727 24.8581 18.4649C25.2659 18.8144 25.965 19.2804 26.8971 19.1639C27.3048 19.1057 27.7709 18.9309 28.3535 18.6979C29.5186 18.2901 31.1497 17.6493 33.5965 17.6493C34.6451 17.6493 35.6354 17.7075 36.5675 17.7075C40.2959 21.3777 41.228 23.0671 41.228 23.1253C41.228 23.1836 41.2863 23.2418 41.3445 23.2418C41.3445 23.2418 42.8009 24.5817 42.9757 26.7372C42.9757 26.912 43.0922 27.0867 43.267 27.145C45.1894 28.1353 46.9371 29.3587 46.9953 29.7665C46.6458 30.5821 47.0536 31.1064 47.2866 31.3394C47.4614 31.5724 47.5779 31.6889 47.5196 31.922C47.4614 32.3298 47.4031 32.3298 47.2284 32.388C47.0536 32.4463 46.8206 32.5045 46.704 32.7958C46.5293 33.0871 46.6458 33.3784 46.7623 33.6696C46.8788 33.9609 46.9371 34.1939 46.8206 34.1939C46.1215 34.7182 45.772 35.8251 45.8885 37.165L45.5972 37.398C44.5486 38.2136 43.5 39.0874 42.5679 40.0778C41.7523 40.9516 40.995 41.8255 40.3542 42.6993C40.1794 42.8741 40.0629 43.1071 39.8881 43.3401C39.7716 43.3984 39.5968 43.3984 39.4221 43.3984C39.1308 43.4566 38.956 43.6896 39.0143 43.9227C39.0143 44.0974 39.1308 44.2139 39.2473 44.2722C38.0822 46.1364 37.0918 48.1171 36.1597 50.0978C35.4607 51.5542 34.7616 53.0106 34.0043 54.4087L32.5479 56.972C32.3731 57.2633 32.0818 57.7876 32.1401 58.3119C32.1983 58.6614 32.4314 59.0109 32.7226 59.1857C32.7226 59.1857 32.7809 59.1857 32.7809 59.244C32.7809 59.8265 33.0722 60.3508 33.5965 60.6421C33.8295 60.7586 34.1208 60.8751 34.4121 60.8751C34.9364 60.8751 35.4024 60.6421 35.6937 60.2343C35.8685 60.0013 35.985 59.71 36.0432 59.477L36.8006 57.3215C37.1501 58.0206 37.7326 58.3119 38.1987 58.0206C38.3735 57.9623 38.49 57.7876 38.49 57.6128L38.5482 55.9816C38.5482 55.8069 38.5482 55.6321 38.6065 55.5156C38.6647 55.3991 38.8395 55.2243 39.0143 55.1078C40.7037 53.8262 42.4514 52.4863 44.3738 51.6124L44.5486 51.5542C44.9564 51.3794 45.3642 51.1464 45.772 50.8551C45.8885 50.7969 45.9467 50.6803 46.005 50.6221C46.1215 50.7386 46.238 50.9134 46.2963 51.0299C46.4128 51.3212 46.471 51.6124 46.5875 51.962C46.6458 52.195 46.6458 52.3698 46.704 52.6028C46.8206 53.0106 46.9953 53.4184 47.2284 53.7679C45.6554 58.7779 44.8399 64.487 46.005 70.1961C46.6458 73.3419 47.8109 76.3129 48.9178 79.2257L49.6168 81.0316C49.4421 81.4977 49.2673 82.022 49.0343 82.488L46.8206 88.1388C46.7041 88.4301 46.6458 88.8379 46.5293 89.2457C46.3545 90.0613 46.0632 91.1099 45.6554 91.809C45.4224 92.2168 44.7234 93.3236 44.4903 93.8479C44.0825 94.78 43.7913 95.7704 43.733 96.819C43.733 97.1103 43.733 97.4015 43.8495 97.6928C44.1408 98.3336 44.7816 98.6249 45.3059 98.7997H45.3642C46.7041 99.2657 47.9274 100.198 48.8013 101.363C48.743 101.421 48.6847 101.538 48.6847 101.596C48.3935 101.654 48.1022 101.712 47.8692 101.771C47.4614 101.887 47.0536 102.004 46.6458 102.004C46.2963 102.004 45.8885 102.004 45.3642 101.887C45.2477 101.887 45.0146 101.829 44.7233 101.945C44.4903 102.062 44.4321 102.237 44.3738 102.353V102.412C44.3738 102.47 44.1408 102.47 43.966 102.353C43.8495 102.295 43.6747 102.179 43.5582 102.004C43.3835 101.829 43.2087 101.712 43.0339 101.596C42.6844 101.363 42.2766 101.305 41.9271 101.188C41.8106 101.13 41.694 101.13 41.5193 101.072C40.5289 100.78 39.7133 100.023 39.2473 99.091C39.0143 98.5084 38.8978 97.9258 38.7813 97.285C38.723 97.1103 38.723 96.9355 38.6647 96.7607C38.49 95.8869 38.2569 95.013 38.0239 94.1975C37.6744 93.0323 37.3831 91.8672 36.684 90.8186C36.218 90.0613 35.5772 89.4787 34.9946 88.8379L31.7323 85.5173C32.7809 84.6435 33.713 83.7114 34.6451 82.6628C34.8199 82.488 34.8199 82.1385 34.5868 81.9637C34.4121 81.789 34.0625 81.789 33.8878 82.022C32.7226 83.3036 31.3828 84.527 30.0429 85.6338C29.7516 85.8669 29.4021 86.0999 29.1108 86.3329C28.47 86.799 27.7709 87.3233 27.1883 87.8476C26.6058 88.3719 26.0232 88.9544 25.4407 89.537L24.1008 90.8769C23.8095 91.1682 23.5182 91.4594 23.2852 91.8672C23.1104 92.2168 22.9939 92.5663 22.8774 92.9158C22.8191 93.0323 22.7609 93.2071 22.7609 93.3236C22.5861 93.7897 22.3531 94.1975 22.1201 94.6635C21.8288 95.1878 21.4793 95.7704 21.3045 96.4112C21.1297 96.9355 21.0715 97.518 21.0132 98.0423C20.8967 98.9744 20.7802 99.8483 20.1976 100.431C19.9646 100.664 19.6151 100.839 19.2655 101.013C18.7412 101.246 18.2169 101.538 17.7509 101.421C17.5761 101.363 17.3431 101.305 17.1101 101.188L16.9353 101.072C16.1197 100.664 15.1876 100.489 14.2555 100.489H13.9643C13.673 100.489 13.3817 100.489 13.1487 100.431C14.0808 99.6735 15.1294 99.0327 16.178 98.4501C16.5858 98.2171 17.0518 97.9258 17.3431 97.4598C17.8674 96.4694 17.1683 95.3626 16.877 94.8383L15.1294 92.042C14.8963 91.6925 14.6633 91.3429 14.4886 90.9351C14.2555 90.4691 14.0225 89.7118 14.1973 89.0709C14.1973 88.9544 14.1973 88.8379 14.1973 88.7797L14.0808 88.5466C13.44 87.032 12.7991 85.5756 12.5079 84.0027C12.3331 83.0706 12.2748 82.1385 12.2166 81.3229C12.1001 77.8276 12.3913 74.274 12.6826 70.8369C12.6826 70.4873 12.7409 70.1378 12.7991 69.8465C12.8574 69.497 13.0322 69.1474 13.2069 68.7979L13.3234 68.6231C14.4886 66.0016 15.0129 63.1471 15.4789 60.4091C15.5372 60.2343 15.4789 60.0595 15.3041 59.943C15.1876 59.8265 15.0129 59.7683 14.8381 59.8265C13.673 60.1178 12.6826 60.8169 11.7505 61.9237C11.6923 61.982 11.634 62.0985 11.5758 62.1567C11.401 62.3315 11.2845 62.5063 11.1097 62.681C10.8767 62.8558 10.5854 63.0306 10.2941 63.1471L10.1194 63.2054C8.37169 64.0209 6.85704 65.186 5.40064 66.2929C5.22588 66.4677 4.9346 66.6424 4.81809 66.9337C4.70157 67.458 4.70157 67.7493 4.70157 67.9823V68.2736C4.52681 68.0406 4.23553 67.8658 3.88599 67.8658C3.71123 67.8658 3.53646 68.0406 3.4782 68.2154L2.66262 70.6038C2.60436 70.7786 2.54611 70.8951 2.48785 71.0116C2.37134 71.1864 2.08006 71.2447 1.90529 71.1281C1.73053 71.0116 1.61401 70.7204 1.73053 70.5456C1.78878 70.3708 1.78878 70.1378 1.61401 70.0213C1.4975 69.9048 1.32274 69.8465 1.14797 69.9048V69.8465C1.14797 69.6717 1.26448 69.4387 1.38099 69.264L2.60436 67.1085C3.30343 65.8851 3.88599 64.6035 4.46855 63.3801C5.4589 61.2829 6.50751 59.0692 7.90565 57.2633C8.42995 56.5642 9.07076 55.8069 9.71158 55.1078C10.4689 54.2922 11.3427 53.5931 12.2166 52.8941L16.644 49.3405C16.877 49.1657 16.877 48.8744 16.7023 48.6414C16.5275 48.4084 16.2362 48.4084 16.0032 48.5831L11.5758 52.1367C10.7019 52.8358 9.76983 53.5931 8.95425 54.4087C8.19693 55.1078 7.61437 55.9234 7.03181 56.6224C5.57541 58.5449 4.52681 60.7586 3.4782 62.9141C2.89564 64.1374 2.31308 65.4191 1.61401 66.5842L0.390641 68.7397C0.215874 69.0309 -0.0171497 69.4387 0.0411062 69.9048C0.0993621 70.2543 0.27413 70.5456 0.565409 70.7204C0.565409 70.7204 0.565409 70.7204 0.623665 70.7204C0.623665 71.1864 0.914944 71.6524 1.32274 71.9437C1.90529 72.2933 2.77913 72.1185 3.18692 71.5942C3.36169 71.3612 3.41995 71.1281 3.53646 70.8951L4.11902 69.2057C4.4103 69.73 4.9346 69.963 5.34239 69.73C5.51716 69.6717 5.63367 69.497 5.63367 69.3222L5.69192 67.9241C5.69192 67.8076 5.69192 67.6328 5.75018 67.5745C5.80844 67.458 5.92495 67.3415 6.04146 67.2833C7.4396 66.1764 8.95425 65.0695 10.5854 64.3122L10.7019 64.254C11.0515 64.0792 11.401 63.9044 11.7505 63.6714C11.9836 63.4966 12.1583 63.2636 12.3331 63.0306C12.3913 62.9723 12.4496 62.9141 12.5079 62.7976C13.0904 62.0985 13.673 61.6324 14.3138 61.3412C13.8477 63.7879 13.3234 66.2347 12.3913 68.5066L12.3331 68.6814C12.1583 69.0892 11.9836 69.4387 11.867 69.9048C11.7505 70.3126 11.7505 70.6621 11.6923 71.0699C11.401 74.5652 11.1097 78.1188 11.2262 81.6725C11.2845 82.488 11.3427 83.4784 11.5175 84.4687C11.867 86.2164 12.5079 87.6728 13.1487 89.2457L13.2069 89.304C13.0904 90.003 13.2069 90.8186 13.6147 91.6342C13.7895 92.042 14.0225 92.4498 14.2555 92.7993L15.945 95.5956C16.2362 96.1199 16.5858 96.7607 16.3527 97.2268C16.2362 97.4598 15.945 97.6346 15.5954 97.8093C14.372 98.5084 13.2069 99.324 12.1001 100.198C12.0418 100.256 11.867 100.373 11.8088 100.664C11.8088 100.78 11.8088 101.072 12.1001 101.305C12.6244 101.771 13.3817 101.771 13.9643 101.771H14.1973C15.0129 101.771 15.7119 101.945 16.411 102.295L16.5858 102.412C16.8188 102.528 17.1101 102.703 17.4596 102.761C17.5761 102.819 17.7509 102.819 17.8674 102.819C18.5082 102.819 19.0908 102.528 19.6151 102.295C20.0229 102.062 20.4307 101.887 20.7802 101.538C21.5958 100.722 21.7705 99.6153 21.8871 98.5667C21.9453 98.0424 22.0036 97.5763 22.1201 97.1103C22.2948 96.586 22.5279 96.0616 22.8191 95.5373C23.0522 95.0713 23.3434 94.6052 23.5182 94.0809C23.5765 93.9062 23.6347 93.7897 23.693 93.6149C23.8095 93.3236 23.8678 93.0323 24.0425 92.7993C24.2173 92.508 24.4503 92.275 24.6833 91.9837L26.0232 90.5856C26.5475 90.0613 27.1301 89.4787 27.7126 88.9544C28.2952 88.4301 28.936 87.9641 29.5768 87.4398C29.9264 87.2068 30.2176 86.9737 30.5089 86.6824C30.6254 86.6242 30.6837 86.5077 30.8002 86.4494L34.1208 89.8283C34.7033 90.4108 35.2276 90.9934 35.6937 91.6342C36.2762 92.5663 36.6258 93.6732 36.9171 94.7218C37.1501 95.5373 37.3831 96.3529 37.5579 97.2268C37.6161 97.4015 37.6161 97.5763 37.6744 97.7511C37.7909 98.4501 37.9074 99.1492 38.257 99.79C38.7812 101.013 39.8881 101.945 41.1115 102.295C41.228 102.353 41.4028 102.353 41.5193 102.412C41.8106 102.47 42.1018 102.528 42.3349 102.703C42.4514 102.761 42.5679 102.878 42.7427 102.994C42.9174 103.169 43.0922 103.285 43.3252 103.46C43.5582 103.577 43.8495 103.693 44.1408 103.693C44.5486 103.693 44.8981 103.518 45.1311 103.169C45.1311 103.169 45.1311 103.111 45.1894 103.111C45.772 103.227 46.238 103.285 46.6458 103.227C47.1118 103.169 47.6361 103.052 48.0439 102.936C48.3352 102.878 48.6265 102.761 48.9178 102.761C49.0925 102.761 49.209 102.645 49.2673 102.528C49.8499 102.47 50.4907 102.645 51.1315 102.819C51.6558 102.936 52.2384 103.111 52.7627 103.111C53.287 103.169 53.8113 103.111 54.5103 102.936C54.5103 102.994 54.5686 102.994 54.5686 103.052C54.8016 103.46 55.2094 103.577 55.6172 103.577C55.9085 103.577 56.258 103.46 56.491 103.344C56.7241 103.169 56.9571 102.994 57.1318 102.819C57.3066 102.645 57.4231 102.528 57.5979 102.412C57.8892 102.237 58.2387 102.179 58.5882 102.062C58.763 102.004 58.9378 102.004 59.1125 101.945C60.5689 101.538 61.7923 100.431 62.4331 99.0327C62.7827 98.2754 62.9574 97.4015 63.0739 96.6442C63.1322 96.4694 63.1322 96.2364 63.1905 96.0617C63.3652 95.0713 63.6565 94.0809 63.9478 93.1489C64.2973 91.8672 64.6469 90.5856 65.4042 89.4787C65.9285 88.7214 66.5693 88.0223 67.2101 87.3815L71.1715 83.3619C71.288 83.4784 71.4628 83.5949 71.5793 83.7114C71.9288 84.0027 72.3366 84.294 72.6862 84.5852C73.4435 85.1678 74.2008 85.7504 74.8999 86.3329C75.599 86.9155 76.2398 87.6145 76.8806 88.2554L78.4535 89.8865C78.7448 90.1778 79.036 90.5273 79.2691 90.8769C79.4438 91.1682 79.5603 91.5177 79.6769 91.8672C79.7351 92.042 79.7934 92.2168 79.8516 92.4498C80.0846 93.0323 80.3759 93.6149 80.6672 94.1392C81.0167 94.78 81.3663 95.3626 81.541 96.0034C81.7158 96.5277 81.7741 97.1103 81.8323 97.7511C82.0071 98.9744 82.1236 100.256 83.114 101.188C83.5218 101.596 83.9878 101.829 84.4538 102.062C85.0364 102.353 85.7355 102.703 86.4928 102.703C86.6676 102.703 86.7841 102.703 86.9588 102.645C87.3084 102.586 87.6579 102.412 87.9492 102.237L88.1822 102.12C88.357 102.062 88.5317 101.945 88.7065 101.887C88.8813 101.887 89.1143 101.887 89.2891 101.887H89.5221C89.5221 101.887 89.5221 101.887 89.5804 101.887C90.3377 101.887 91.095 102.062 91.7941 102.412L91.9688 102.528C92.2019 102.645 92.4931 102.819 92.8427 102.878C92.9592 102.878 93.134 102.936 93.2505 102.936C93.8913 102.936 94.4738 102.645 94.9982 102.412C95.4059 102.179 95.8137 102.004 96.1633 101.654C96.9789 100.839 97.1536 99.7318 97.2701 98.6832C97.3284 98.1589 97.3866 97.6928 97.5032 97.2268C97.6779 96.7025 97.9109 96.1782 98.2022 95.6539C98.4352 95.1878 98.7265 94.7218 98.9013 94.1975C98.9595 94.0227 99.0178 93.9062 99.0761 93.7314C99.1926 93.4401 99.2508 93.1488 99.4256 92.9158C99.6004 92.6245 99.8334 92.3915 100.066 92.1003L101.406 90.7021C101.931 90.1778 102.513 89.5952 103.096 89.0709C103.678 88.5466 104.319 88.0223 104.96 87.5563C105.251 87.3233 105.601 87.0902 105.892 86.799C106.009 86.7407 106.067 86.6242 106.183 86.5659L109.446 89.8865L109.504 89.9448C110.028 90.5273 110.611 91.1099 111.077 91.7507C111.659 92.6828 112.009 93.7897 112.3 94.8383C112.533 95.6539 112.766 96.4694 112.941 97.3433C112.999 97.518 112.999 97.6928 113.057 97.8093C113.174 98.5084 113.29 99.2075 113.64 99.9065C114.164 101.13 115.271 102.062 116.495 102.412C116.611 102.47 116.786 102.47 116.902 102.528C117.194 102.586 117.485 102.645 117.718 102.819C117.834 102.878 117.951 102.994 118.126 103.111C118.3 103.285 118.475 103.402 118.708 103.577C118.941 103.693 119.233 103.81 119.524 103.81C119.932 103.81 120.281 103.635 120.514 103.285C120.514 103.285 120.514 103.227 120.572 103.227C121.155 103.344 121.621 103.402 122.029 103.344C122.553 103.285 123.019 103.169 123.427 103.052C124.01 102.878 124.534 102.761 125.058 102.819C125.233 102.819 125.408 102.761 125.524 102.586C125.641 102.412 125.641 102.237 125.582 102.062C124.65 100.256 122.961 98.7997 121.039 98.1006H120.98C120.572 97.9841 120.223 97.8093 120.106 97.5763C120.048 97.4598 120.048 97.285 120.106 97.1685C120.165 96.2364 120.398 95.3626 120.805 94.547C120.98 94.1392 121.621 93.0323 121.912 92.6245C122.437 91.809 122.728 90.7021 122.961 89.77C123.077 89.3622 123.136 89.0127 123.252 88.7797L125.466 83.1289C126.456 80.6821 127.447 78.1188 127.971 75.4391C129.369 68.5066 127.388 61.6907 125.058 56.5059C125.874 56.7972 126.631 57.3215 127.33 58.1371C127.388 58.1953 127.447 58.2536 127.505 58.3701C127.68 58.6031 127.854 58.8362 128.087 59.0109C128.437 59.3022 128.787 59.477 129.136 59.5935L129.253 59.6517C130.884 60.4091 132.34 61.5742 133.797 62.6228C133.913 62.7393 134.088 62.7976 134.088 62.9141C134.146 62.9723 134.146 63.1471 134.146 63.2636L134.204 64.6617C134.204 64.8365 134.321 65.0113 134.496 65.0695C134.787 65.186 135.136 65.1861 135.369 64.953C135.544 64.8365 135.661 64.6617 135.719 64.5452L136.302 66.2347C136.36 66.4094 136.476 66.7007 136.651 66.9337C136.942 67.2833 137.35 67.5163 137.816 67.5163C138.049 67.5163 138.282 67.458 138.515 67.3415C138.923 67.1085 139.214 66.6424 139.214 66.1181C139.214 66.1181 139.214 66.1181 139.273 66.1181C139.564 65.9434 139.797 65.6521 139.797 65.3026C139.739 64.72 139.506 64.254 139.331 64.0209ZM88.357 96.2364C88.0657 95.7121 88.4735 94.9548 88.8813 94.2557L89.7551 92.8576L91.4445 95.6539C91.7358 96.1782 92.0854 96.819 91.8523 97.285C91.7358 97.518 91.4445 97.6928 91.095 97.8676C91.0368 97.8676 90.9785 97.9258 90.9202 97.9841C90.3959 97.6346 89.8716 97.285 89.2891 96.9937C88.8813 96.7607 88.4735 96.5277 88.357 96.2364ZM42.1601 17.7658C42.7427 17.591 43.3252 17.4163 43.6747 17.2997C43.733 17.4745 43.733 17.6493 43.6747 17.7658C43.5582 17.9988 43.4417 18.0571 43.4417 18.1153C43.3252 18.1153 43.2087 18.2318 43.1504 18.3484C43.0339 18.4649 43.0339 18.6396 43.0922 18.8144C43.0922 18.8727 43.6747 20.5038 41.9271 22.135C41.8688 22.0185 41.8106 21.902 41.694 21.7854C42.5096 20.9699 43.0922 18.3484 43.0922 18.3484C43.0922 18.3484 42.8009 18.3484 42.5096 18.6979C42.2183 19.0474 41.6358 18.9892 41.3445 19.1639C41.0532 19.3387 40.2959 19.3387 40.1211 19.63C40.1211 19.6882 40.0629 19.6882 40.0629 19.7465C39.5386 19.1639 38.956 18.5231 38.1987 17.8241C40.0629 17.9406 41.461 17.9988 42.1601 17.7658ZM47.6944 52.428C47.6361 52.2533 47.5779 52.0785 47.5779 51.8455C47.5196 51.4377 47.4031 51.0299 47.2284 50.6803C47.0536 50.3891 46.8788 50.156 46.704 49.923C47.5779 48.8744 48.51 48.2336 49.5586 47.8841C48.9178 49.2822 48.277 50.8551 47.6944 52.428ZM45.7137 97.9841H45.6554C45.3059 97.8676 44.8981 97.6928 44.7816 97.4598C44.7234 97.3433 44.7234 97.1685 44.7816 97.052C44.8399 96.1199 45.0729 95.2461 45.4807 94.4305C45.6554 94.0227 46.2963 92.9158 46.5875 92.508C47.1118 91.6925 47.4031 90.5273 47.6361 89.6535C47.7527 89.2457 47.8109 88.8962 47.9274 88.6632L50.1411 83.0123C50.1994 82.8376 50.2577 82.7211 50.3159 82.5463L51.6558 86.0416C51.7723 86.2747 51.8888 86.7407 52.0053 87.2068C52.2384 88.2554 52.5879 89.5952 53.1704 90.5273C53.4617 90.9934 54.2191 92.275 54.4521 92.7411C54.9181 93.7314 55.2094 94.78 55.2677 95.8869C55.2677 96.0616 55.2677 96.2947 55.2094 96.4112C55.0929 96.7607 54.5686 96.8772 54.1025 97.052H54.0443C52.1801 97.6928 50.6072 98.9162 49.4421 100.547C48.3935 99.4405 47.1118 98.5084 45.7137 97.9841Z" fill="#37271B"/>
</svg>
